# WaveFront *.obj file (generated by CINEMA 4D)

mtllib ./balin.mtl

v -3 0 0
v 0 0 -3
v 3 0 0
v 0 0 3
v 0 3 0
v 0 -3 0
v 0 1.34164083003998 -2.68328166007996
v 0 2.68328166007996 -1.34164083003998
v -2.68328166007996 0 -1.34164083003998
v -1.34164083003998 0 -2.68328166007996
v -2.68328166007996 1.34164083003998 0
v -1.34164083003998 2.68328166007996 0
v 2.68328166007996 1.34164083003998 0
v 1.34164083003998 2.68328166007996 0
v 1.34164083003998 0 -2.68328166007996
v 2.68328166007996 0 -1.34164083003998
v 0 1.34164083003998 2.68328166007996
v 0 2.68328166007996 1.34164083003998
v 2.68328166007996 0 1.34164083003998
v 1.34164083003998 0 2.68328166007996
v -2.68328166007996 0 1.34164083003998
v -1.34164083003998 0 2.68328166007996
v -2.68328166007996 -1.34164083003998 0
v -1.34164083003998 -2.68328166007996 0
v 0 -1.34164083003998 -2.68328166007996
v 0 -2.68328166007996 -1.34164083003998
v 2.68328166007996 -1.34164083003998 0
v 1.34164083003998 -2.68328166007996 0
v 0 -1.34164083003998 2.68328166007996
v 0 -2.68328166007996 1.34164083003998
v -1.73205077648163 1.73205077648163 -1.73205077648163
v 1.73205077648163 1.73205077648163 -1.73205077648163
v 1.73205077648163 1.73205077648163 1.73205077648163
v -1.73205077648163 1.73205077648163 1.73205077648163
v -1.73205077648163 -1.73205077648163 -1.73205077648163
v 1.73205077648163 -1.73205077648163 -1.73205077648163
v 1.73205077648163 -1.73205077648163 1.73205077648163
v -1.73205077648163 -1.73205077648163 1.73205077648163
# 38 vertices

vn 0 -1 0
vn 0.46159562468529 -0.88709044456482 0.00000000532487
vn 0.00000000532486 -0.88709044456482 0.46159559488297
vn 0 0 0
vn 0.57735025882721 -0.57735025882721 0.57735031843185
vn 0.00000000266243 -0.46159562468529 0.88709044456482
vn 0.88709050416946 -0.46159556508064 0
vn 0.46159562468529 0.00000000532487 0.88709044456482
vn 0 0 1
vn 0.88709044456482 0 0.46159562468529
vn 1 0 0
vn -0.46159559488297 -0.88709044456482 0.00000000532486
vn -0.57735031843185 -0.57735025882721 0.57735025882721
vn -0.88709044456482 -0.46159562468529 0.00000000266243
vn -0.88709044456482 0.00000000532487 0.46159562468529
vn -1 0 0
vn -0.46159562468529 0 0.88709044456482
vn -0.00000000532486 -0.88709044456482 -0.46159559488297
vn -0.57735025882721 -0.57735025882721 -0.57735031843185
vn -0.00000000266243 -0.46159562468529 -0.88709044456482
vn -0.46159562468529 0.00000000532487 -0.88709044456482
vn 0 0 -1
vn -0.88709044456482 0 -0.46159562468529
vn 0.57735031843185 -0.57735025882721 -0.57735025882721
vn 0.88709044456482 0.00000000532487 -0.46159562468529
vn 0.46159562468529 0 -0.88709044456482
vn 0 1 0
vn 0.00000000532487 0.88709044456482 0.46159562468529
vn 0.46159559488297 0.88709044456482 0.00000000532486
vn 0.57735031843185 0.57735025882721 0.57735025882721
vn 0.88709044456482 0.46159562468529 0.00000000266243
vn 0 0.46159556508064 0.88709050416946
vn -0.46159562468529 0.88709044456482 0.00000000532487
vn -0.57735025882721 0.57735025882721 0.57735031843185
vn -0.88709050416946 0.46159556508064 0
vn -0.00000000532487 0.88709044456482 -0.46159562468529
vn -0.57735031843185 0.57735025882721 -0.57735025882721
vn 0 0.46159556508064 -0.88709050416946
vn 0.57735025882721 0.57735025882721 -0.57735031843185
# 39 normals

vt 0.16699999570847 0.71100002527237 0
vt 0.22233331203461 0.61466664075851 0
vt 0.27833330631256 0.71066671609879 0
vt 0 1 0
vt 0.3336666226387 0.61433333158493 0
vt 0.38966661691666 0.71033334732056 0
vt 0.27766662836075 0.5183333158493 0
vt 0.4449999332428 0.61400002241135 0
vt 0.50099992752075 0.71000003814697 0
vt 0.38899993896484 0.51800000667572 0
vt 0.33300000429153 0.42200005054474 0
vt 0.22299998998642 0.807000041008 0
vt 0.33433330059052 0.80666667222977 0
vt 0.27899998426437 0.90299999713898 0
vt 0.39033332467079 0.90266668796539 0
vt 0.33500000834465 0.9990000128746 0
vt 0.44566661119461 0.80633330345154 0
vt 0.11166666448116 0.80733335018158 0
vt 0.16766667366028 0.90333330631256 0
vt 0.05633333325386 0.90366667509079 0
vt 0.1123333349824 0.99966669082642 0
vt 0.0010000000475 1 0
vt 0.22366666793823 0.99933332204819 0
vt 0.11133333295584 0.61500000953674 0
vt 0.16666665673256 0.51866668462753 0
vt 0.05566666647792 0.51899999380112 0
vt 0.22200000286102 0.42233335971832 0
vt 0.11100000143051 0.42266666889191 0
vt 0 0.42299997806549 0
vt 0.66699993610382 0.4210000038147 0
vt 0.61166656017303 0.51733332872391 0
vt 0.55566656589508 0.42133343219757 0
vt 0.50033330917358 0.51766669750214 0
vt 0.44433331489563 0.42166674137115 0
vt 0.55633318424225 0.61366665363312 0
vt 0.72266662120819 0.51700001955032 0
vt 0.6673332452774 0.61333334445953 0
vt 0.77833330631256 0.61300003528595 0
vt 0.61199992895126 0.70966666936874 0
vt 0.72299998998642 0.70933336019516 0
vt 0.83399999141693 0.70899999141693 0
vt 0.77799993753433 0.42066669464111 0
vt 0.83366656303406 0.51666671037674 0
vt 0.88899999856949 0.42033338546753 0
vt 0.88933330774307 0.61266666650772 0
vt 0.94466668367386 0.51633334159851 0
vt 1 0.42000007629395 0
vt 0.61099994182587 0.32500004768372 0
vt 0.49966663122177 0.3253333568573 0
vt 0.55500000715256 0.22900009155273 0
vt 0.44366666674614 0.22933340072632 0
vt 0.4990000128746 0.13300001621246 0
vt 0.38833335042 0.32566666603088 0
# 53 texture coordinates

o Sphere
usemtl default
f 5/1/1 12/2/2 8/3/3
f 8/3/3 31/5/5 7/6/6
f 31/5/5 8/3/3 12/2/2
f 12/2/2 11/7/7 31/5/5
f 7/6/6 10/8/8 2/9/9
f 10/8/8 7/6/6 31/5/5
f 31/5/5 9/10/10 10/8/8
f 9/10/10 31/5/5 11/7/7
f 11/7/7 1/11/11 9/10/10
f 5/1/1 8/3/3 14/12/12
f 14/12/12 32/13/13 13/14/14
f 32/13/13 14/12/12 8/3/3
f 8/3/3 7/6/6 32/13/13
f 13/14/14 16/15/15 3/16/16
f 16/15/15 13/14/14 32/13/13
f 32/13/13 15/17/17 16/15/15
f 15/17/17 32/13/13 7/6/6
f 7/6/6 2/9/9 15/17/17
f 5/1/1 14/12/12 18/18/18
f 18/18/18 33/19/19 17/20/20
f 33/19/19 18/18/18 14/12/12
f 14/12/12 13/14/14 33/19/19
f 17/20/20 20/21/21 4/22/22
f 20/21/21 17/20/20 33/19/19
f 33/19/19 19/23/23 20/21/21
f 19/23/23 33/19/19 13/14/14
f 13/14/14 3/16/16 19/23/23
f 5/1/1 18/24/18 12/2/2
f 12/2/2 34/25/24 11/7/7
f 34/25/24 12/2/2 18/24/18
f 18/24/18 17/26/20 34/25/24
f 11/7/7 21/27/25 1/11/11
f 21/27/25 11/7/7 34/25/24
f 34/25/24 22/28/26 21/27/25
f 22/28/26 34/25/24 17/26/20
f 17/26/20 4/29/22 22/28/26
f 6/30/27 26/31/28 24/32/29
f 24/32/29 35/33/30 23/34/31
f 35/33/30 24/32/29 26/31/28
f 26/31/28 25/35/32 35/33/30
f 23/34/31 9/10/10 1/11/11
f 9/10/10 23/34/31 35/33/30
f 35/33/30 10/8/8 9/10/10
f 10/8/8 35/33/30 25/35/32
f 25/35/32 2/9/9 10/8/8
f 6/30/27 28/36/33 26/31/28
f 26/31/28 36/37/34 25/35/32
f 36/37/34 26/31/28 28/36/33
f 28/36/33 27/38/35 36/37/34
f 25/35/32 15/39/17 2/9/9
f 15/39/17 25/35/32 36/37/34
f 36/37/34 16/40/15 15/39/17
f 16/40/15 36/37/34 27/38/35
f 27/38/35 3/41/16 16/40/15
f 6/30/27 30/42/36 28/36/33
f 28/36/33 37/43/37 27/38/35
f 37/43/37 28/36/33 30/42/36
f 30/42/36 29/44/38 37/43/37
f 27/38/35 19/45/23 3/41/16
f 19/45/23 27/38/35 37/43/37
f 37/43/37 20/46/21 19/45/23
f 20/46/21 37/43/37 29/44/38
f 29/44/38 4/47/22 20/46/21
f 6/30/27 24/32/29 30/48/36
f 30/48/36 38/49/39 29/50/38
f 38/49/39 30/48/36 24/32/29
f 24/32/29 23/34/31 38/49/39
f 29/50/38 22/51/26 4/52/22
f 22/51/26 29/50/38 38/49/39
f 38/49/39 21/53/25 22/51/26
f 21/53/25 38/49/39 23/34/31
f 23/34/31 1/11/11 21/53/25

