# WaveFront *.obj file (generated by CINEMA 4D)

mtllib ./borng.mtl

v -1 -1 1
v -1 -0.60000002384186 1
v -1 -0.20000000298023 1
v -1 0.20000000298023 1
v -1 0.60000002384186 1
v -1 1 1
v -0.60000002384186 -1 1
v -0.60000002384186 -0.60000002384186 1
v -0.60000002384186 -0.20000000298023 1
v -0.60000002384186 0.20000000298023 1
v -0.60000002384186 0.60000002384186 1
v -0.60000002384186 1 1
v -0.20000000298023 -1 1
v -0.20000000298023 -0.60000002384186 1
v -0.20000000298023 -0.20000000298023 1
v -0.20000000298023 0.20000000298023 1
v -0.20000000298023 0.60000002384186 1
v -0.20000000298023 1 1
v 0.20000000298023 -1 1
v 0.20000000298023 -0.60000002384186 1
v 0.20000000298023 -0.20000000298023 1
v 0.20000000298023 0.20000000298023 1
v 0.20000000298023 0.60000002384186 1
v 0.20000000298023 1 1
v 0.60000002384186 -1 1
v 0.60000002384186 -0.60000002384186 1
v 0.60000002384186 -0.20000000298023 1
v 0.60000002384186 0.20000000298023 1
v 0.60000002384186 0.60000002384186 1
v 0.60000002384186 1 1
v 1 -1 1
v 1 -0.60000002384186 1
v 1 -0.20000000298023 1
v 1 0.20000000298023 1
v 1 0.60000002384186 1
v 1 1 1
v 1 -1 0.60000002384186
v 1 -0.60000002384186 0.60000002384186
v 1 -0.20000000298023 0.60000002384186
v 1 0.20000000298023 0.60000002384186
v 1 0.60000002384186 0.60000002384186
v 1 1 0.60000002384186
v 1 -1 0.20000000298023
v 1 -0.60000002384186 0.20000000298023
v 1 -0.20000000298023 0.20000000298023
v 1 0.20000000298023 0.20000000298023
v 1 0.60000002384186 0.20000000298023
v 1 1 0.20000000298023
v 1 -1 -0.20000000298023
v 1 -0.60000002384186 -0.20000000298023
v 1 -0.20000000298023 -0.20000000298023
v 1 0.20000000298023 -0.20000000298023
v 1 0.60000002384186 -0.20000000298023
v 1 1 -0.20000000298023
v 1 -1 -0.60000002384186
v 1 -0.60000002384186 -0.60000002384186
v 1 -0.20000000298023 -0.60000002384186
v 1 0.20000000298023 -0.60000002384186
v 1 0.60000002384186 -0.60000002384186
v 1 1 -0.60000002384186
v 1 -1 -1
v 1 -0.60000002384186 -1
v 1 -0.20000000298023 -1
v 1 0.20000000298023 -1
v 1 0.60000002384186 -1
v 1 1 -1
v 0.60000002384186 -1 -1
v 0.60000002384186 -0.60000002384186 -1
v 0.60000002384186 -0.20000000298023 -1
v 0.60000002384186 0.20000000298023 -1
v 0.60000002384186 0.60000002384186 -1
v 0.60000002384186 1 -1
v 0.20000000298023 -1 -1
v 0.20000000298023 -0.60000002384186 -1
v 0.20000000298023 -0.20000000298023 -1
v 0.20000000298023 0.20000000298023 -1
v 0.20000000298023 0.60000002384186 -1
v 0.20000000298023 1 -1
v -0.20000000298023 -1 -1
v -0.20000000298023 -0.60000002384186 -1
v -0.20000000298023 -0.20000000298023 -1
v -0.20000000298023 0.20000000298023 -1
v -0.20000000298023 0.60000002384186 -1
v -0.20000000298023 1 -1
v -0.60000002384186 -1 -1
v -0.60000002384186 -0.60000002384186 -1
v -0.60000002384186 -0.20000000298023 -1
v -0.60000002384186 0.20000000298023 -1
v -0.60000002384186 0.60000002384186 -1
v -0.60000002384186 1 -1
v -1 -1 -1
v -1 -0.60000002384186 -1
v -1 -0.20000000298023 -1
v -1 0.20000000298023 -1
v -1 0.60000002384186 -1
v -1 1 -1
v -1 -1 -0.60000002384186
v -1 -0.60000002384186 -0.60000002384186
v -1 -0.20000000298023 -0.60000002384186
v -1 0.20000000298023 -0.60000002384186
v -1 0.60000002384186 -0.60000002384186
v -1 1 -0.60000002384186
v -1 -1 -0.20000000298023
v -1 -0.60000002384186 -0.20000000298023
v -1 -0.20000000298023 -0.20000000298023
v -1 0.20000000298023 -0.20000000298023
v -1 0.60000002384186 -0.20000000298023
v -1 1 -0.20000000298023
v -1 -1 0.20000000298023
v -1 -0.60000002384186 0.20000000298023
v -1 -0.20000000298023 0.20000000298023
v -1 0.20000000298023 0.20000000298023
v -1 0.60000002384186 0.20000000298023
v -1 1 0.20000000298023
v -1 -1 0.60000002384186
v -1 -0.60000002384186 0.60000002384186
v -1 -0.20000000298023 0.60000002384186
v -1 0.20000000298023 0.60000002384186
v -1 0.60000002384186 0.60000002384186
v -1 1 0.60000002384186
v -0.60000002384186 1 0.60000002384186
v -0.60000002384186 1 0.20000000298023
v -0.60000002384186 1 -0.20000000298023
v -0.60000002384186 1 -0.60000002384186
v -0.20000000298023 1 0.60000002384186
v -0.20000000298023 1 0.20000000298023
v -0.20000000298023 1 -0.20000000298023
v -0.20000000298023 1 -0.60000002384186
v 0.20000000298023 1 0.60000002384186
v 0.20000000298023 1 0.20000000298023
v 0.20000000298023 1 -0.20000000298023
v 0.20000000298023 1 -0.60000002384186
v 0.60000002384186 1 0.60000002384186
v 0.60000002384186 1 0.20000000298023
v 0.60000002384186 1 -0.20000000298023
v 0.60000002384186 1 -0.60000002384186
v -0.60000002384186 -1 -0.60000002384186
v -0.60000002384186 -1 -0.20000000298023
v -0.60000002384186 -1 0.20000000298023
v -0.60000002384186 -1 0.60000002384186
v -0.20000000298023 -1 -0.60000002384186
v -0.20000000298023 -1 -0.20000000298023
v -0.20000000298023 -1 0.20000000298023
v -0.20000000298023 -1 0.60000002384186
v 0.20000000298023 -1 -0.60000002384186
v 0.20000000298023 -1 -0.20000000298023
v 0.20000000298023 -1 0.20000000298023
v 0.20000000298023 -1 0.60000002384186
v 0.60000002384186 -1 -0.60000002384186
v 0.60000002384186 -1 -0.20000000298023
v 0.60000002384186 -1 0.20000000298023
v 0.60000002384186 -1 0.60000002384186
# 152 vertices

vn 0 0 1
vn 1 0 0
vn 0 0 -1
vn -1 0 0
vn 0 1 0
vn 0 -1 0
# 6 normals

vt 0 0 0
vt 0 0.20000004768372 0
vt 0.19999998807907 0.20000004768372 0
vt 0.20000000298023 0 0
vt 0.39999997615814 0.20000004768372 0
vt 0.40000000596046 0 0
vt 0.60000002384186 0.20000004768372 0
vt 0.60000002384186 0 0
vt 0.79999995231628 0.20000004768372 0
vt 0.80000001192093 0 0
vt 1 0.20000004768372 0
vt 1 0 0
vt 0 0.39999997615814 0
vt 0.19999998807907 0.39999997615814 0
vt 0.39999997615814 0.39999997615814 0
vt 0.60000002384186 0.39999997615814 0
vt 0.79999995231628 0.39999997615814 0
vt 1 0.39999997615814 0
vt 0 0.60000002384186 0
vt 0.19999998807907 0.60000002384186 0
vt 0.39999997615814 0.60000002384186 0
vt 0.60000002384186 0.60000002384186 0
vt 0.79999995231628 0.60000002384186 0
vt 1 0.60000002384186 0
vt 0 0.80000001192093 0
vt 0.19999998807907 0.80000001192093 0
vt 0.39999997615814 0.80000001192093 0
vt 0.60000002384186 0.80000001192093 0
vt 0.79999995231628 0.80000001192093 0
vt 1 0.80000001192093 0
vt 0 1 0
vt 0.20000000298023 1 0
vt 0.40000000596046 1 0
vt 0.60000002384186 1 0
vt 0.80000001192093 1 0
vt 1 1 0
# 36 texture coordinates

o Cube
usemtl Mat
f 7/4/1 8/3/1 2/2/1 1/1/1
f 13/6/1 14/5/1 8/3/1 7/4/1
f 19/8/1 20/7/1 14/5/1 13/6/1
f 25/10/1 26/9/1 20/7/1 19/8/1
f 31/12/1 32/11/1 26/9/1 25/10/1
f 8/3/1 9/14/1 3/13/1 2/2/1
f 14/5/1 15/15/1 9/14/1 8/3/1
f 20/7/1 21/16/1 15/15/1 14/5/1
f 26/9/1 27/17/1 21/16/1 20/7/1
f 32/11/1 33/18/1 27/17/1 26/9/1
f 9/14/1 10/20/1 4/19/1 3/13/1
f 15/15/1 16/21/1 10/20/1 9/14/1
f 21/16/1 22/22/1 16/21/1 15/15/1
f 27/17/1 28/23/1 22/22/1 21/16/1
f 33/18/1 34/24/1 28/23/1 27/17/1
f 10/20/1 11/26/1 5/25/1 4/19/1
f 16/21/1 17/27/1 11/26/1 10/20/1
f 22/22/1 23/28/1 17/27/1 16/21/1
f 28/23/1 29/29/1 23/28/1 22/22/1
f 34/24/1 35/30/1 29/29/1 28/23/1
f 11/26/1 12/32/1 6/31/1 5/25/1
f 17/27/1 18/33/1 12/32/1 11/26/1
f 23/28/1 24/34/1 18/33/1 17/27/1
f 29/29/1 30/35/1 24/34/1 23/28/1
f 35/30/1 36/36/1 30/35/1 29/29/1
f 37/4/2 38/3/2 32/2/2 31/1/2
f 43/6/2 44/5/2 38/3/2 37/4/2
f 49/8/2 50/7/2 44/5/2 43/6/2
f 55/10/2 56/9/2 50/7/2 49/8/2
f 61/12/2 62/11/2 56/9/2 55/10/2
f 38/3/2 39/14/2 33/13/2 32/2/2
f 44/5/2 45/15/2 39/14/2 38/3/2
f 50/7/2 51/16/2 45/15/2 44/5/2
f 56/9/2 57/17/2 51/16/2 50/7/2
f 62/11/2 63/18/2 57/17/2 56/9/2
f 39/14/2 40/20/2 34/19/2 33/13/2
f 45/15/2 46/21/2 40/20/2 39/14/2
f 51/16/2 52/22/2 46/21/2 45/15/2
f 57/17/2 58/23/2 52/22/2 51/16/2
f 63/18/2 64/24/2 58/23/2 57/17/2
f 40/20/2 41/26/2 35/25/2 34/19/2
f 46/21/2 47/27/2 41/26/2 40/20/2
f 52/22/2 53/28/2 47/27/2 46/21/2
f 58/23/2 59/29/2 53/28/2 52/22/2
f 64/24/2 65/30/2 59/29/2 58/23/2
f 41/26/2 42/32/2 36/31/2 35/25/2
f 47/27/2 48/33/2 42/32/2 41/26/2
f 53/28/2 54/34/2 48/33/2 47/27/2
f 59/29/2 60/35/2 54/34/2 53/28/2
f 65/30/2 66/36/2 60/35/2 59/29/2
f 67/4/3 68/3/3 62/2/3 61/1/3
f 73/6/3 74/5/3 68/3/3 67/4/3
f 79/8/3 80/7/3 74/5/3 73/6/3
f 85/10/3 86/9/3 80/7/3 79/8/3
f 91/12/3 92/11/3 86/9/3 85/10/3
f 68/3/3 69/14/3 63/13/3 62/2/3
f 74/5/3 75/15/3 69/14/3 68/3/3
f 80/7/3 81/16/3 75/15/3 74/5/3
f 86/9/3 87/17/3 81/16/3 80/7/3
f 92/11/3 93/18/3 87/17/3 86/9/3
f 69/14/3 70/20/3 64/19/3 63/13/3
f 75/15/3 76/21/3 70/20/3 69/14/3
f 81/16/3 82/22/3 76/21/3 75/15/3
f 87/17/3 88/23/3 82/22/3 81/16/3
f 93/18/3 94/24/3 88/23/3 87/17/3
f 70/20/3 71/26/3 65/25/3 64/19/3
f 76/21/3 77/27/3 71/26/3 70/20/3
f 82/22/3 83/28/3 77/27/3 76/21/3
f 88/23/3 89/29/3 83/28/3 82/22/3
f 94/24/3 95/30/3 89/29/3 88/23/3
f 71/26/3 72/32/3 66/31/3 65/25/3
f 77/27/3 78/33/3 72/32/3 71/26/3
f 83/28/3 84/34/3 78/33/3 77/27/3
f 89/29/3 90/35/3 84/34/3 83/28/3
f 95/30/3 96/36/3 90/35/3 89/29/3
f 97/4/4 98/3/4 92/2/4 91/1/4
f 103/6/4 104/5/4 98/3/4 97/4/4
f 109/8/4 110/7/4 104/5/4 103/6/4
f 115/10/4 116/9/4 110/7/4 109/8/4
f 1/12/4 2/11/4 116/9/4 115/10/4
f 98/3/4 99/14/4 93/13/4 92/2/4
f 104/5/4 105/15/4 99/14/4 98/3/4
f 110/7/4 111/16/4 105/15/4 104/5/4
f 116/9/4 117/17/4 111/16/4 110/7/4
f 2/11/4 3/18/4 117/17/4 116/9/4
f 99/14/4 100/20/4 94/19/4 93/13/4
f 105/15/4 106/21/4 100/20/4 99/14/4
f 111/16/4 112/22/4 106/21/4 105/15/4
f 117/17/4 118/23/4 112/22/4 111/16/4
f 3/18/4 4/24/4 118/23/4 117/17/4
f 100/20/4 101/26/4 95/25/4 94/19/4
f 106/21/4 107/27/4 101/26/4 100/20/4
f 112/22/4 113/28/4 107/27/4 106/21/4
f 118/23/4 119/29/4 113/28/4 112/22/4
f 4/24/4 5/30/4 119/29/4 118/23/4
f 101/26/4 102/32/4 96/31/4 95/25/4
f 107/27/4 108/33/4 102/32/4 101/26/4
f 113/28/4 114/34/4 108/33/4 107/27/4
f 119/29/4 120/35/4 114/34/4 113/28/4
f 5/30/4 6/36/4 120/35/4 119/29/4
f 12/4/5 121/3/5 120/2/5 6/1/5
f 18/6/5 125/5/5 121/3/5 12/4/5
f 24/8/5 129/7/5 125/5/5 18/6/5
f 30/10/5 133/9/5 129/7/5 24/8/5
f 36/12/5 42/11/5 133/9/5 30/10/5
f 121/3/5 122/14/5 114/13/5 120/2/5
f 125/5/5 126/15/5 122/14/5 121/3/5
f 129/7/5 130/16/5 126/15/5 125/5/5
f 133/9/5 134/17/5 130/16/5 129/7/5
f 42/11/5 48/18/5 134/17/5 133/9/5
f 122/14/5 123/20/5 108/19/5 114/13/5
f 126/15/5 127/21/5 123/20/5 122/14/5
f 130/16/5 131/22/5 127/21/5 126/15/5
f 134/17/5 135/23/5 131/22/5 130/16/5
f 48/18/5 54/24/5 135/23/5 134/17/5
f 123/20/5 124/26/5 102/25/5 108/19/5
f 127/21/5 128/27/5 124/26/5 123/20/5
f 131/22/5 132/28/5 128/27/5 127/21/5
f 135/23/5 136/29/5 132/28/5 131/22/5
f 54/24/5 60/30/5 136/29/5 135/23/5
f 124/26/5 90/32/5 96/31/5 102/25/5
f 128/27/5 84/33/5 90/32/5 124/26/5
f 132/28/5 78/34/5 84/33/5 128/27/5
f 136/29/5 72/35/5 78/34/5 132/28/5
f 60/30/5 66/36/5 72/35/5 136/29/5
f 85/4/6 137/3/6 97/2/6 91/1/6
f 79/6/6 141/5/6 137/3/6 85/4/6
f 73/8/6 145/7/6 141/5/6 79/6/6
f 67/10/6 149/9/6 145/7/6 73/8/6
f 61/12/6 55/11/6 149/9/6 67/10/6
f 137/3/6 138/14/6 103/13/6 97/2/6
f 141/5/6 142/15/6 138/14/6 137/3/6
f 145/7/6 146/16/6 142/15/6 141/5/6
f 149/9/6 150/17/6 146/16/6 145/7/6
f 55/11/6 49/18/6 150/17/6 149/9/6
f 138/14/6 139/20/6 109/19/6 103/13/6
f 142/15/6 143/21/6 139/20/6 138/14/6
f 146/16/6 147/22/6 143/21/6 142/15/6
f 150/17/6 151/23/6 147/22/6 146/16/6
f 49/18/6 43/24/6 151/23/6 150/17/6
f 139/20/6 140/26/6 115/25/6 109/19/6
f 143/21/6 144/27/6 140/26/6 139/20/6
f 147/22/6 148/28/6 144/27/6 143/21/6
f 151/23/6 152/29/6 148/28/6 147/22/6
f 43/24/6 37/30/6 152/29/6 151/23/6
f 140/26/6 7/32/6 1/31/6 115/25/6
f 144/27/6 13/33/6 7/32/6 140/26/6
f 148/28/6 19/34/6 13/33/6 144/27/6
f 152/29/6 25/35/6 19/34/6 148/28/6
f 37/30/6 31/36/6 25/35/6 152/29/6

