ply
format ascii 1.0
comment Created by Blender 2.79 (sub 0) - www.blender.org, source file: ''
element vertex 26
property float x
property float y
property float z
property float nx
property float ny
property float nz
property uchar red
property uchar green
property uchar blue
element face 12
property list uchar uint vertex_indices
end_header
1.000000 1.000000 -1.000000 0.000000 0.000000 -1.000000 255 0 236
1.000000 -1.000000 -1.000000 0.000000 0.000000 -1.000000 255 0 236
-1.000000 -1.000000 -1.000000 0.000000 0.000000 -1.000000 0 255 25
-1.000000 1.000000 -1.000000 -0.000000 0.000000 -1.000000 0 255 25
1.000000 0.999999 1.000000 -0.000000 0.000000 1.000000 255 245 0
-1.000000 1.000000 1.000000 -0.000000 0.000000 1.000000 0 192 255
-1.000000 -1.000000 1.000000 -0.000000 0.000000 1.000000 0 192 255
0.999999 -1.000001 1.000000 0.000000 0.000000 1.000000 255 245 0
1.000000 1.000000 -1.000000 1.000000 -0.000001 -0.000000 255 0 236
1.000000 0.999999 1.000000 1.000000 -0.000001 -0.000000 255 245 0
0.999999 -1.000001 1.000000 1.000000 -0.000001 -0.000000 255 245 0
0.999999 -1.000001 1.000000 1.000000 0.000000 0.000000 255 245 0
1.000000 -1.000000 -1.000000 1.000000 0.000000 0.000000 255 0 236
1.000000 1.000000 -1.000000 1.000000 0.000000 0.000000 255 0 236
1.000000 -1.000000 -1.000000 -0.000000 -1.000000 -0.000000 255 0 236
0.999999 -1.000001 1.000000 -0.000000 -1.000000 -0.000000 255 245 0
-1.000000 -1.000000 1.000000 -0.000000 -1.000000 -0.000000 0 192 255
-1.000000 -1.000000 -1.000000 -0.000000 -1.000000 0.000000 0 255 25
-1.000000 -1.000000 -1.000000 -1.000000 0.000000 -0.000000 0 255 25
-1.000000 -1.000000 1.000000 -1.000000 0.000000 -0.000000 0 192 255
-1.000000 1.000000 1.000000 -1.000000 0.000000 -0.000000 0 192 255
-1.000000 1.000000 -1.000000 -1.000000 0.000000 -0.000000 0 255 25
1.000000 0.999999 1.000000 0.000000 1.000000 0.000000 255 245 0
1.000000 1.000000 -1.000000 0.000000 1.000000 0.000000 255 0 236
-1.000000 1.000000 -1.000000 0.000000 1.000000 0.000000 0 255 25
-1.000000 1.000000 1.000000 0.000000 1.000000 0.000000 0 192 255
3 0 1 2
3 2 3 0
3 4 5 6
3 6 7 4
3 8 9 10
3 11 12 13
3 14 15 16
3 16 17 14
3 18 19 20
3 20 21 18
3 22 23 24
3 24 25 22
