# WaveFront *.obj file (generated by CINEMA 4D)

v -0.50000000000000 -0.50000000000000 -0.50000000000000
v -1.71204638481140 0.50000000000000 -1.20628392696381
v 0.50000000000000 -0.50000000000000 -0.50000000000000
v 0.50000000000000 0.50000000000000 -0.50000000000000
v 1.50887393951416 -0.50000000000000 2.15837526321411
v 0.50000000000000 0.50000000000000 0.50000000000000
v -0.50000000000000 -0.50000000000000 0.50000000000000
v -0.50000000000000 0.50000000000000 0.50000000000000
# 8 vertices

vn 0.14883367717266 -0.14883367717266 -0.97759759426117
vn 0.69719755649567 0.01468605641276 -0.71672856807709
vn 0.96982377767563 0.17239752411842 -0.17239752411842
vn -0.38069730997086 0.51209682226181 0.76995223760605
vn -0.21891474723816 0.86951047182083 0.44275042414665
vn -0.61999130249023 0.54638755321503 0.56309103965759
vn -0.64379483461380 -0.49360162019730 0.58470994234085
vn -0.83290296792984 -0.44257205724716 0.33226883411407
vn -0.49035507440567 -0.84928560256958 0.19561666250229
vn 0.00000000000000 1.00000000000000 0.00000000000000
vn 0.00000000000000 -1.00000000000000 0.00000000000000
# 11 normals

vt 0.00000000000000 -1.00000000000000 0.00000000000000
vt 0.00000000000000 0.00000000000000 0.00000000000000
vt 1.00000000000000 0.00000000000000 0.00000000000000
vt 1.00000000000000 -1.00000000000000 0.00000000000000
# 4 texture coordinates

o Cube
usemtl Mat
f 1/1/1 2/2/1 4/3/2 3/4/2
f 3/1/2 4/2/2 6/3/3 5/4/3
f 5/1/4 6/2/5 8/3/6 7/4/7
f 7/1/7 8/2/6 2/3/8 1/4/9
f 2/1/10 8/2/6 6/3/5 4/4/10
f 7/1/7 1/2/9 3/3/11 5/4/11

