# WaveFront *.obj file (generated by CINEMA 4D)

mtllib ./roundcube.mtl

v -1 -1 1
v -1 -0.60000002384186 1
v -1 -0.20000000298023 1
v -1 0.20000000298023 1
v -1 0.60000002384186 1
v -1 1 1
v -0.60000002384186 -1 1
v -0.60000002384186 -0.60000002384186 1
v -0.60000002384186 -0.20000000298023 1
v -0.60000002384186 0.20000000298023 1
v -0.60000002384186 0.60000002384186 1
v -0.60000002384186 1 1
v -0.20000000298023 -1 1
v -0.20000000298023 -0.60000002384186 1
v -0.20000000298023 -0.20000000298023 1
v -0.20000000298023 0.20000000298023 1
v -0.20000000298023 0.60000002384186 1
v -0.20000000298023 1 1
v 0.20000000298023 -1 1
v 0.20000000298023 -0.60000002384186 1
v 0.20000000298023 -0.20000000298023 1
v 0.20000000298023 0.20000000298023 1
v 0.20000000298023 0.60000002384186 1
v 0.20000000298023 1 1
v 0.60000002384186 -1 1
v 0.60000002384186 -0.60000002384186 1
v 0.60000002384186 -0.20000000298023 1
v 0.60000002384186 0.20000000298023 1
v 0.60000002384186 0.60000002384186 1
v 0.60000002384186 1 1
v 1 -1 1
v 1 -0.60000002384186 1
v 1 -0.20000000298023 1
v 1 0.20000000298023 1
v 1 0.60000002384186 1
v 1 1 1
v 1 -1 0.60000002384186
v 1 -0.60000002384186 0.60000002384186
v 1 -0.20000000298023 0.60000002384186
v 1 0.20000000298023 0.60000002384186
v 1 0.60000002384186 0.60000002384186
v 1 1 0.60000002384186
v 1 -1 0.20000000298023
v 1 -0.60000002384186 0.20000000298023
v 1 -0.20000000298023 0.20000000298023
v 1 0.20000000298023 0.20000000298023
v 1 0.60000002384186 0.20000000298023
v 1 1 0.20000000298023
v 1 -1 -0.20000000298023
v 1 -0.60000002384186 -0.20000000298023
v 1 -0.20000000298023 -0.20000000298023
v 1 0.20000000298023 -0.20000000298023
v 1 0.60000002384186 -0.20000000298023
v 1 1 -0.20000000298023
v 1 -1 -0.60000002384186
v 1 -0.60000002384186 -0.60000002384186
v 1 -0.20000000298023 -0.60000002384186
v 1 0.20000000298023 -0.60000002384186
v 1 0.60000002384186 -0.60000002384186
v 1 1 -0.60000002384186
v 1 -1 -1
v 1 -0.60000002384186 -1
v 1 -0.20000000298023 -1
v 1 0.20000000298023 -1
v 1 0.60000002384186 -1
v 1 1 -1
v 0.60000002384186 -1 -1
v 0.60000002384186 -0.60000002384186 -1
v 0.60000002384186 -0.20000000298023 -1
v 0.60000002384186 0.20000000298023 -1
v 0.60000002384186 0.60000002384186 -1
v 0.60000002384186 1 -1
v 0.20000000298023 -1 -1
v 0.20000000298023 -0.60000002384186 -1
v 0.20000000298023 -0.20000000298023 -1
v 0.20000000298023 0.20000000298023 -1
v 0.20000000298023 0.60000002384186 -1
v 0.20000000298023 1 -1
v -0.20000000298023 -1 -1
v -0.20000000298023 -0.60000002384186 -1
v -0.20000000298023 -0.20000000298023 -1
v -0.20000000298023 0.20000000298023 -1
v -0.20000000298023 0.60000002384186 -1
v -0.20000000298023 1 -1
v -0.60000002384186 -1 -1
v -0.60000002384186 -0.60000002384186 -1
v -0.60000002384186 -0.20000000298023 -1
v -0.60000002384186 0.20000000298023 -1
v -0.60000002384186 0.60000002384186 -1
v -0.60000002384186 1 -1
v -1 -1 -1
v -1 -0.60000002384186 -1
v -1 -0.20000000298023 -1
v -1 0.20000000298023 -1
v -1 0.60000002384186 -1
v -1 1 -1
v -1 -1 -0.60000002384186
v -1 -0.60000002384186 -0.60000002384186
v -1 -0.20000000298023 -0.60000002384186
v -1 0.20000000298023 -0.60000002384186
v -1 0.60000002384186 -0.60000002384186
v -1 1 -0.60000002384186
v -1 -1 -0.20000000298023
v -1 -0.60000002384186 -0.20000000298023
v -1 -0.20000000298023 -0.20000000298023
v -1 0.20000000298023 -0.20000000298023
v -1 0.60000002384186 -0.20000000298023
v -1 1 -0.20000000298023
v -1 -1 0.20000000298023
v -1 -0.60000002384186 0.20000000298023
v -1 -0.20000000298023 0.20000000298023
v -1 0.20000000298023 0.20000000298023
v -1 0.60000002384186 0.20000000298023
v -1 1 0.20000000298023
v -1 -1 0.60000002384186
v -1 -0.60000002384186 0.60000002384186
v -1 -0.20000000298023 0.60000002384186
v -1 0.20000000298023 0.60000002384186
v -1 0.60000002384186 0.60000002384186
v -1 1 0.60000002384186
v -0.60000002384186 1 0.60000002384186
v -0.60000002384186 1 0.20000000298023
v -0.60000002384186 1 -0.20000000298023
v -0.60000002384186 1 -0.60000002384186
v -0.20000000298023 1 0.60000002384186
v -0.20000000298023 1 0.20000000298023
v -0.20000000298023 1 -0.20000000298023
v -0.20000000298023 1 -0.60000002384186
v 0.20000000298023 1 0.60000002384186
v 0.20000000298023 1 0.20000000298023
v 0.20000000298023 1 -0.20000000298023
v 0.20000000298023 1 -0.60000002384186
v 0.60000002384186 1 0.60000002384186
v 0.60000002384186 1 0.20000000298023
v 0.60000002384186 1 -0.20000000298023
v 0.60000002384186 1 -0.60000002384186
v -0.60000002384186 -1 -0.60000002384186
v -0.60000002384186 -1 -0.20000000298023
v -0.60000002384186 -1 0.20000000298023
v -0.60000002384186 -1 0.60000002384186
v -0.20000000298023 -1 -0.60000002384186
v -0.20000000298023 -1 -0.20000000298023
v -0.20000000298023 -1 0.20000000298023
v -0.20000000298023 -1 0.60000002384186
v 0.20000000298023 -1 -0.60000002384186
v 0.20000000298023 -1 -0.20000000298023
v 0.20000000298023 -1 0.20000000298023
v 0.20000000298023 -1 0.60000002384186
v 0.60000002384186 -1 -0.60000002384186
v 0.60000002384186 -1 -0.20000000298023
v 0.60000002384186 -1 0.20000000298023
v 0.60000002384186 -1 0.60000002384186
# 152 vertices

vn -0.57735025882721 -0.57735025882721 0.57735025882721
vn -0.70710676908493 0 0.70710676908493
vn 0 0 1
vn 0 -0.70710676908493 0.70710676908493
vn 0.70710676908493 0 0.70710676908493
vn 0.57735025882721 -0.57735025882721 0.57735025882721
vn -0.57735025882721 0.57735025882721 0.57735025882721
vn 0 0.70710676908493 0.70710676908493
vn 0.57735025882721 0.57735025882721 0.57735025882721
vn 1 0 0
vn 0.70710676908493 -0.70710676908493 0
vn 0.70710676908493 0 -0.70710676908493
vn 0.57735025882721 -0.57735025882721 -0.57735025882721
vn 0.70710676908493 0.70710676908493 0
vn 0.57735025882721 0.57735025882721 -0.57735025882721
vn 0 0 -1
vn 0 -0.70710676908493 -0.70710676908493
vn -0.70710676908493 0 -0.70710676908493
vn -0.57735025882721 -0.57735025882721 -0.57735025882721
vn 0 0.70710676908493 -0.70710676908493
vn -0.57735025882721 0.57735025882721 -0.57735025882721
vn -1 0 0
vn -0.70710676908493 -0.70710676908493 0
vn -0.70710676908493 0.70710676908493 0
vn 0 1 0
vn 0 -1 0
# 26 normals

vt 0 0 0
vt 0 0.20000004768372 0
vt 0.19999998807907 0.20000004768372 0
vt 0.20000000298023 0 0
vt 0.39999997615814 0.20000004768372 0
vt 0.40000000596046 0 0
vt 0.60000002384186 0.20000004768372 0
vt 0.60000002384186 0 0
vt 0.79999995231628 0.20000004768372 0
vt 0.80000001192093 0 0
vt 1 0.20000004768372 0
vt 1 0 0
vt 0 0.39999997615814 0
vt 0.19999998807907 0.39999997615814 0
vt 0.39999997615814 0.39999997615814 0
vt 0.60000002384186 0.39999997615814 0
vt 0.79999995231628 0.39999997615814 0
vt 1 0.39999997615814 0
vt 0 0.60000002384186 0
vt 0.19999998807907 0.60000002384186 0
vt 0.39999997615814 0.60000002384186 0
vt 0.60000002384186 0.60000002384186 0
vt 0.79999995231628 0.60000002384186 0
vt 1 0.60000002384186 0
vt 0 0.80000001192093 0
vt 0.19999998807907 0.80000001192093 0
vt 0.39999997615814 0.80000001192093 0
vt 0.60000002384186 0.80000001192093 0
vt 0.79999995231628 0.80000001192093 0
vt 1 0.80000001192093 0
vt 0 1 0
vt 0.20000000298023 1 0
vt 0.40000000596046 1 0
vt 0.60000002384186 1 0
vt 0.80000001192093 1 0
vt 1 1 0
# 36 texture coordinates

o Cube
usemtl Mat
f 7/4/4 8/3/3 2/2/2 1/1/1
f 13/6/4 14/5/3 8/3/3 7/4/4
f 19/8/4 20/7/3 14/5/3 13/6/4
f 25/10/4 26/9/3 20/7/3 19/8/4
f 31/12/6 32/11/5 26/9/3 25/10/4
f 8/3/3 9/14/3 3/13/2 2/2/2
f 14/5/3 15/15/3 9/14/3 8/3/3
f 20/7/3 21/16/3 15/15/3 14/5/3
f 26/9/3 27/17/3 21/16/3 20/7/3
f 32/11/5 33/18/5 27/17/3 26/9/3
f 9/14/3 10/20/3 4/19/2 3/13/2
f 15/15/3 16/21/3 10/20/3 9/14/3
f 21/16/3 22/22/3 16/21/3 15/15/3
f 27/17/3 28/23/3 22/22/3 21/16/3
f 33/18/5 34/24/5 28/23/3 27/17/3
f 10/20/3 11/26/3 5/25/2 4/19/2
f 16/21/3 17/27/3 11/26/3 10/20/3
f 22/22/3 23/28/3 17/27/3 16/21/3
f 28/23/3 29/29/3 23/28/3 22/22/3
f 34/24/5 35/30/5 29/29/3 28/23/3
f 11/26/3 12/32/8 6/31/7 5/25/2
f 17/27/3 18/33/8 12/32/8 11/26/3
f 23/28/3 24/34/8 18/33/8 17/27/3
f 29/29/3 30/35/8 24/34/8 23/28/3
f 35/30/5 36/36/9 30/35/8 29/29/3
f 37/4/11 38/3/10 32/2/5 31/1/6
f 43/6/11 44/5/10 38/3/10 37/4/11
f 49/8/11 50/7/10 44/5/10 43/6/11
f 55/10/11 56/9/10 50/7/10 49/8/11
f 61/12/13 62/11/12 56/9/10 55/10/11
f 38/3/10 39/14/10 33/13/5 32/2/5
f 44/5/10 45/15/10 39/14/10 38/3/10
f 50/7/10 51/16/10 45/15/10 44/5/10
f 56/9/10 57/17/10 51/16/10 50/7/10
f 62/11/12 63/18/12 57/17/10 56/9/10
f 39/14/10 40/20/10 34/19/5 33/13/5
f 45/15/10 46/21/10 40/20/10 39/14/10
f 51/16/10 52/22/10 46/21/10 45/15/10
f 57/17/10 58/23/10 52/22/10 51/16/10
f 63/18/12 64/24/12 58/23/10 57/17/10
f 40/20/10 41/26/10 35/25/5 34/19/5
f 46/21/10 47/27/10 41/26/10 40/20/10
f 52/22/10 53/28/10 47/27/10 46/21/10
f 58/23/10 59/29/10 53/28/10 52/22/10
f 64/24/12 65/30/12 59/29/10 58/23/10
f 41/26/10 42/32/14 36/31/9 35/25/5
f 47/27/10 48/33/14 42/32/14 41/26/10
f 53/28/10 54/34/14 48/33/14 47/27/10
f 59/29/10 60/35/14 54/34/14 53/28/10
f 65/30/12 66/36/15 60/35/14 59/29/10
f 67/4/17 68/3/16 62/2/12 61/1/13
f 73/6/17 74/5/16 68/3/16 67/4/17
f 79/8/17 80/7/16 74/5/16 73/6/17
f 85/10/17 86/9/16 80/7/16 79/8/17
f 91/12/19 92/11/18 86/9/16 85/10/17
f 68/3/16 69/14/16 63/13/12 62/2/12
f 74/5/16 75/15/16 69/14/16 68/3/16
f 80/7/16 81/16/16 75/15/16 74/5/16
f 86/9/16 87/17/16 81/16/16 80/7/16
f 92/11/18 93/18/18 87/17/16 86/9/16
f 69/14/16 70/20/16 64/19/12 63/13/12
f 75/15/16 76/21/16 70/20/16 69/14/16
f 81/16/16 82/22/16 76/21/16 75/15/16
f 87/17/16 88/23/16 82/22/16 81/16/16
f 93/18/18 94/24/18 88/23/16 87/17/16
f 70/20/16 71/26/16 65/25/12 64/19/12
f 76/21/16 77/27/16 71/26/16 70/20/16
f 82/22/16 83/28/16 77/27/16 76/21/16
f 88/23/16 89/29/16 83/28/16 82/22/16
f 94/24/18 95/30/18 89/29/16 88/23/16
f 71/26/16 72/32/20 66/31/15 65/25/12
f 77/27/16 78/33/20 72/32/20 71/26/16
f 83/28/16 84/34/20 78/33/20 77/27/16
f 89/29/16 90/35/20 84/34/20 83/28/16
f 95/30/18 96/36/21 90/35/20 89/29/16
f 97/4/23 98/3/22 92/2/18 91/1/19
f 103/6/23 104/5/22 98/3/22 97/4/23
f 109/8/23 110/7/22 104/5/22 103/6/23
f 115/10/23 116/9/22 110/7/22 109/8/23
f 1/12/1 2/11/2 116/9/22 115/10/23
f 98/3/22 99/14/22 93/13/18 92/2/18
f 104/5/22 105/15/22 99/14/22 98/3/22
f 110/7/22 111/16/22 105/15/22 104/5/22
f 116/9/22 117/17/22 111/16/22 110/7/22
f 2/11/2 3/18/2 117/17/22 116/9/22
f 99/14/22 100/20/22 94/19/18 93/13/18
f 105/15/22 106/21/22 100/20/22 99/14/22
f 111/16/22 112/22/22 106/21/22 105/15/22
f 117/17/22 118/23/22 112/22/22 111/16/22
f 3/18/2 4/24/2 118/23/22 117/17/22
f 100/20/22 101/26/22 95/25/18 94/19/18
f 106/21/22 107/27/22 101/26/22 100/20/22
f 112/22/22 113/28/22 107/27/22 106/21/22
f 118/23/22 119/29/22 113/28/22 112/22/22
f 4/24/2 5/30/2 119/29/22 118/23/22
f 101/26/22 102/32/24 96/31/21 95/25/18
f 107/27/22 108/33/24 102/32/24 101/26/22
f 113/28/22 114/34/24 108/33/24 107/27/22
f 119/29/22 120/35/24 114/34/24 113/28/22
f 5/30/2 6/36/7 120/35/24 119/29/22
f 12/4/8 121/3/25 120/2/24 6/1/7
f 18/6/8 125/5/25 121/3/25 12/4/8
f 24/8/8 129/7/25 125/5/25 18/6/8
f 30/10/8 133/9/25 129/7/25 24/8/8
f 36/12/9 42/11/14 133/9/25 30/10/8
f 121/3/25 122/14/25 114/13/24 120/2/24
f 125/5/25 126/15/25 122/14/25 121/3/25
f 129/7/25 130/16/25 126/15/25 125/5/25
f 133/9/25 134/17/25 130/16/25 129/7/25
f 42/11/14 48/18/14 134/17/25 133/9/25
f 122/14/25 123/20/25 108/19/24 114/13/24
f 126/15/25 127/21/25 123/20/25 122/14/25
f 130/16/25 131/22/25 127/21/25 126/15/25
f 134/17/25 135/23/25 131/22/25 130/16/25
f 48/18/14 54/24/14 135/23/25 134/17/25
f 123/20/25 124/26/25 102/25/24 108/19/24
f 127/21/25 128/27/25 124/26/25 123/20/25
f 131/22/25 132/28/25 128/27/25 127/21/25
f 135/23/25 136/29/25 132/28/25 131/22/25
f 54/24/14 60/30/14 136/29/25 135/23/25
f 124/26/25 90/32/20 96/31/21 102/25/24
f 128/27/25 84/33/20 90/32/20 124/26/25
f 132/28/25 78/34/20 84/33/20 128/27/25
f 136/29/25 72/35/20 78/34/20 132/28/25
f 60/30/14 66/36/15 72/35/20 136/29/25
f 85/4/17 137/3/26 97/2/23 91/1/19
f 79/6/17 141/5/26 137/3/26 85/4/17
f 73/8/17 145/7/26 141/5/26 79/6/17
f 67/10/17 149/9/26 145/7/26 73/8/17
f 61/12/13 55/11/11 149/9/26 67/10/17
f 137/3/26 138/14/26 103/13/23 97/2/23
f 141/5/26 142/15/26 138/14/26 137/3/26
f 145/7/26 146/16/26 142/15/26 141/5/26
f 149/9/26 150/17/26 146/16/26 145/7/26
f 55/11/11 49/18/11 150/17/26 149/9/26
f 138/14/26 139/20/26 109/19/23 103/13/23
f 142/15/26 143/21/26 139/20/26 138/14/26
f 146/16/26 147/22/26 143/21/26 142/15/26
f 150/17/26 151/23/26 147/22/26 146/16/26
f 49/18/11 43/24/11 151/23/26 150/17/26
f 139/20/26 140/26/26 115/25/23 109/19/23
f 143/21/26 144/27/26 140/26/26 139/20/26
f 147/22/26 148/28/26 144/27/26 143/21/26
f 151/23/26 152/29/26 148/28/26 147/22/26
f 43/24/11 37/30/11 152/29/26 151/23/26
f 140/26/26 7/32/4 1/31/1 115/25/23
f 144/27/26 13/33/4 7/32/4 140/26/26
f 148/28/26 19/34/4 13/33/4 144/27/26
f 152/29/26 25/35/4 19/34/4 148/28/26
f 37/30/11 31/36/6 25/35/4 152/29/26

