# Blender v2.79 (sub 0) OBJ File: ''
# www.blender.org
mtllib sort-test.mtl
o Plane.014_Plane.015
v 9.500000 -0.000000 0.500000
v 9.500000 0.000000 -0.500000
v 9.500000 1.000000 -0.500000
v 9.500000 1.000000 0.500000
v 3.500000 -0.000000 0.500000
v 4.500000 -0.000000 0.500000
v 4.500000 0.000000 -0.500000
v 3.500000 0.000000 -0.500000
v 29.500000 0.000000 -0.500000
v 30.500000 0.000000 -0.500000
v 30.500000 1.000000 -0.500000
v 29.500000 1.000000 -0.500000
v 31.505026 0.000000 -0.494975
v 32.494976 -0.000000 0.494975
v 32.494976 1.000000 0.494975
v 31.505026 1.000000 -0.494975
v 54.500000 1.000000 0.500000
v 55.500000 1.000000 0.500000
v 55.500000 1.000000 -0.500000
v 54.500000 1.000000 -0.500000
v 25.505026 -0.000000 0.494975
v 26.494974 0.000000 -0.494975
v 26.494974 1.000000 -0.494975
v 25.505026 1.000000 0.494975
v 35.500000 0.000000 -0.500000
v 35.500000 -0.000000 0.500000
v 35.500000 1.000000 0.500000
v 35.500000 1.000000 -0.500000
v 48.500000 -0.000000 0.500000
v 48.500000 0.000000 -0.500000
v 48.500000 1.000000 -0.500000
v 48.500000 1.000000 0.500000
v 54.500000 0.000000 -0.500000
v 55.500000 0.000000 -0.500000
v 55.500000 1.000000 -0.500000
v 54.500000 1.000000 -0.500000
v 58.500000 1.000000 0.500000
v 59.500000 1.000000 0.500000
v 59.500000 1.000000 -0.500000
v 58.500000 1.000000 -0.500000
v 33.505024 -0.000000 0.494975
v 34.494976 0.000000 -0.494975
v 34.494976 1.000000 -0.494975
v 33.505024 1.000000 0.494975
v 25.500000 0.000000 -0.500000
v 26.500000 0.000000 -0.500000
v 26.500000 1.000000 -0.500000
v 25.500000 1.000000 -0.500000
v 52.500000 0.006923 0.493077
v 53.500000 0.006923 0.493077
v 53.500000 0.993077 -0.493077
v 52.500000 0.993077 -0.493077
v 49.500000 -0.000000 0.500000
v 50.500000 -0.000000 0.500000
v 50.500000 0.000000 -0.500000
v 49.500000 0.000000 -0.500000
v 56.500000 -0.000000 0.500000
v 56.500000 0.000000 -0.500000
v 56.500000 1.000000 -0.500000
v 56.500000 1.000000 0.500000
v 37.500000 0.000000 -0.500000
v 38.500000 0.000000 -0.500000
v 38.500000 1.000000 -0.500000
v 37.500000 1.000000 -0.500000
v 8.500000 -0.000000 0.500000
v 8.500000 0.000000 -0.500000
v 8.500000 1.000000 -0.500000
v 8.500000 1.000000 0.500000
v 15.505025 0.000000 -0.494975
v 16.494974 -0.000000 0.494975
v 16.494974 1.000000 0.494975
v 15.505025 1.000000 -0.494975
v -0.500000 -1.000000 0.500000
v 0.500000 -1.000000 0.500000
v 0.500000 -0.000000 0.500000
v -0.500000 -0.000000 0.500000
v 43.500000 0.006923 0.493077
v 44.500000 0.006923 0.493077
v 44.500000 0.993077 -0.493077
v 43.500000 0.993077 -0.493077
v 41.500000 0.006923 0.493077
v 42.500000 0.006923 0.493077
v 42.500000 0.993077 -0.493077
v 41.500000 0.993077 -0.493077
v 15.500000 -0.000000 0.500000
v 16.500000 -0.000000 0.500000
v 16.500000 0.000000 -0.500000
v 15.500000 0.000000 -0.500000
v 45.500000 0.006923 0.493077
v 46.500000 0.006923 0.493077
v 46.500000 0.993077 -0.493077
v 45.500000 0.993077 -0.493077
v 1.500000 -0.000000 0.500000
v 2.500000 -0.000000 0.500000
v 2.500000 0.000000 -0.500000
v 1.500000 0.000000 -0.500000
v 10.500000 0.000000 -0.500000
v 10.500000 0.000000 -1.500000
v 10.500000 1.000000 -1.500000
v 10.500000 1.000000 -0.500000
v 4.500000 -1.000000 0.500000
v 4.500000 -1.000000 -0.500000
v 4.500000 0.000000 -0.500000
v 4.500000 -0.000000 0.500000
v 60.500000 1.000000 0.500000
v 61.500000 1.000000 0.500000
v 61.500000 1.000000 -0.500000
v 60.500000 1.000000 -0.500000
v 10.500000 0.000000 -1.500000
v 10.500000 0.000000 -2.500000
v 10.500000 1.000000 -2.500000
v 10.500000 1.000000 -1.500000
v 5.500000 1.000000 0.500000
v 6.500000 1.000000 0.500000
v 6.500000 1.000000 -0.500000
v 5.500000 1.000000 -0.500000
v 31.500000 0.000000 -0.500000
v 31.500000 -0.000000 0.500000
v 31.500000 1.000000 0.500000
v 31.500000 1.000000 -0.500000
v 56.500000 1.000000 0.500000
v 57.500000 1.000000 0.500000
v 57.500000 1.000000 -0.500000
v 56.500000 1.000000 -0.500000
v 23.505026 0.000000 -0.494975
v 24.494974 -0.000000 0.494975
v 24.494974 1.000000 0.494975
v 23.505026 1.000000 -0.494975
v 64.500000 1.000000 0.500000
v 65.500000 1.000000 0.500000
v 65.500000 1.000000 -0.500000
v 64.500000 1.000000 -0.500000
v 23.500000 0.000000 -0.500000
v 24.500000 0.000000 -0.500000
v 24.500000 1.000000 -0.500000
v 23.500000 1.000000 -0.500000
v 13.500000 -0.000000 0.500000
v 13.500000 0.000000 -0.500000
v 13.500000 1.000000 -0.500000
v 13.500000 1.000000 0.500000
v 29.500000 0.000000 -0.500000
v 29.500000 -0.000000 0.500000
v 29.500000 1.000000 0.500000
v 29.500000 1.000000 -0.500000
v 64.500000 -0.000000 0.500000
v 65.500000 -0.000000 0.500000
v 65.500000 1.000000 0.500000
v 64.500000 1.000000 0.500000
v 39.505024 0.000000 -0.494975
v 40.494976 -0.000000 0.494975
v 40.494976 1.000000 0.494975
v 39.505024 1.000000 -0.494975
v 11.500000 0.000000 -0.500000
v 12.500000 0.000000 -0.500000
v 12.500000 1.000000 -0.500000
v 11.500000 1.000000 -0.500000
v 9.500000 1.000000 -0.500000
v 10.500000 1.000000 -0.500000
v 10.500000 1.000000 -1.500000
v 9.500000 1.000000 -1.500000
v 19.500000 0.006923 0.493077
v 20.500000 0.006923 0.493077
v 20.500000 0.993077 -0.493077
v 19.500000 0.993077 -0.493077
v 60.505024 -0.000000 0.494975
v 61.494976 0.000000 -0.494975
v 61.494976 1.000000 -0.494975
v 60.505024 1.000000 0.494975
v 21.500000 -0.000000 0.500000
v 21.500000 0.000000 -0.500000
v 21.500000 1.000000 -0.500000
v 21.500000 1.000000 0.500000
v 47.500000 -0.000000 0.500000
v 48.500000 -0.000000 0.500000
v 48.500000 0.000000 -0.500000
v 47.500000 0.000000 -0.500000
v 7.500000 -0.000000 0.500000
v 8.500000 -0.000000 0.500000
v 8.500000 1.000000 0.500000
v 7.500000 1.000000 0.500000
v 9.500000 0.000000 -0.500000
v 9.500000 0.000000 -1.500000
v 9.500000 1.000000 -1.500000
v 9.500000 1.000000 -0.500000
v 58.505024 0.000000 -0.494975
v 59.494976 -0.000000 0.494975
v 59.494976 1.000000 0.494975
v 58.505024 1.000000 -0.494975
v 62.500000 1.000000 0.500000
v 63.500000 1.000000 0.500000
v 63.500000 1.000000 -0.500000
v 62.500000 1.000000 -0.500000
v 49.500000 -0.000000 0.500000
v 50.500000 -0.000000 0.500000
v 50.500000 1.000000 0.500000
v 49.500000 1.000000 0.500000
v 10.500000 -0.000000 0.500000
v 10.500000 0.000000 -0.500000
v 10.500000 1.000000 -0.500000
v 10.500000 1.000000 0.500000
v 27.500000 0.000000 -0.500000
v 28.500000 0.000000 -0.500000
v 28.500000 1.000000 -0.500000
v 27.500000 1.000000 -0.500000
v 41.505024 0.000000 -0.494975
v 42.494976 -0.000000 0.494975
v 42.494976 1.000000 0.494975
v 41.505024 1.000000 -0.494975
v 33.500000 0.000000 -0.500000
v 33.500000 -0.000000 0.500000
v 33.500000 1.000000 0.500000
v 33.500000 1.000000 -0.500000
v 11.500000 -0.000000 0.500000
v 12.500000 -0.000000 0.500000
v 12.500000 0.000000 -0.500000
v 11.500000 0.000000 -0.500000
v 17.500000 -0.000000 0.500000
v 18.500000 -0.000000 0.500000
v 18.500000 0.000000 -0.500000
v 17.500000 0.000000 -0.500000
v 13.500000 -0.000000 0.500000
v 14.500000 -0.000000 0.500000
v 14.500000 0.000000 -0.500000
v 13.500000 0.000000 -0.500000
v 9.500000 0.000000 -1.500000
v 9.500000 0.000000 -2.500000
v 9.500000 1.000000 -2.500000
v 9.500000 1.000000 -1.500000
v -0.500000 -0.000000 0.500000
v 0.500000 -0.000000 0.500000
v 0.500000 0.000000 -0.500000
v -0.500000 0.000000 -0.500000
v 51.500000 -0.000000 0.500000
v 52.500000 -0.000000 0.500000
v 52.500000 0.000000 -0.500000
v 51.500000 0.000000 -0.500000
v 35.500000 0.006923 0.493077
v 36.500000 0.006923 0.493077
v 36.500000 0.993077 -0.493077
v 35.500000 0.993077 -0.493077
v 21.500000 0.000000 -0.500000
v 22.500000 0.000000 -0.500000
v 22.500000 1.000000 -0.500000
v 21.500000 1.000000 -0.500000
v 9.500000 1.000000 -1.500000
v 10.500000 1.000000 -1.500000
v 10.500000 1.000000 -2.500000
v 9.500000 1.000000 -2.500000
v 6.500000 -0.000000 0.500000
v 6.500000 0.000000 -0.500000
v 6.500000 1.000000 -0.500000
v 6.500000 1.000000 0.500000
v 19.500000 -0.000000 0.500000
v 20.500000 -0.000000 0.500000
v 20.500000 0.000000 -0.500000
v 19.500000 0.000000 -0.500000
v 39.505024 -0.000000 0.494975
v 40.494976 0.000000 -0.494975
v 40.494976 1.000000 -0.494975
v 39.505024 1.000000 0.494975
v 67.500000 -0.000000 0.500000
v 67.500000 0.000000 -0.500000
v 67.500000 1.000000 -0.500000
v 67.500000 1.000000 0.500000
v 43.505024 -0.000000 0.494975
v 44.494976 0.000000 -0.494975
v 44.494976 1.000000 -0.494975
v 43.505024 1.000000 0.494975
v 45.500000 0.006923 -0.493077
v 46.500000 0.006923 -0.493077
v 46.500000 0.993077 0.493077
v 45.500000 0.993077 0.493077
v 37.505024 0.000000 -0.494975
v 38.494976 -0.000000 0.494975
v 38.494976 1.000000 0.494975
v 37.505024 1.000000 -0.494975
v 66.500000 1.000000 0.500000
v 67.500000 1.000000 0.500000
v 67.500000 1.000000 -0.500000
v 66.500000 1.000000 -0.500000
v 17.505026 -0.000000 0.494975
v 18.494974 0.000000 -0.494975
v 18.494974 1.000000 -0.494975
v 17.505026 1.000000 0.494975
v 9.500000 -0.000000 0.500000
v 10.500000 -0.000000 0.500000
v 10.500000 1.000000 0.500000
v 9.500000 1.000000 0.500000
v 62.500000 0.006923 0.493077
v 63.500000 0.006923 0.493077
v 63.500000 0.993077 -0.493077
v 62.500000 0.993077 -0.493077
v 9.500000 1.000000 0.500000
v 10.500000 1.000000 0.500000
v 10.500000 1.000000 -0.500000
v 9.500000 1.000000 -0.500000
v 1.500000 -1.000000 0.500000
v 1.500000 -1.000000 -0.500000
v 1.500000 0.000000 -0.500000
v 1.500000 -0.000000 0.500000
v 27.500000 0.006923 0.493077
v 28.500000 0.006923 0.493077
v 28.500000 0.993077 -0.493077
v 27.500000 0.993077 -0.493077
vt 0.000000 0.333333
vt 0.000000 0.666667
vt 0.333333 0.666667
vt 0.333333 0.333333
vt 0.000000 0.666667
vt 0.333333 0.666667
vt 0.333333 1.000000
vt 0.000000 1.000000
vt 0.333333 0.666667
vt 0.666667 0.666667
vt 0.666667 1.000000
vt 0.333333 1.000000
vt 0.333333 0.666667
vt 0.666667 0.666667
vt 0.666667 1.000000
vt 0.333333 1.000000
vt 0.000000 0.666667
vt 0.333333 0.666667
vt 0.333333 1.000000
vt 0.000000 1.000000
vt 0.333333 0.666667
vt 0.666667 0.666667
vt 0.666667 1.000000
vt 0.333333 1.000000
vt 0.000000 0.666667
vt 0.333333 0.666667
vt 0.333333 1.000000
vt 0.000000 1.000000
vt 0.333333 0.666667
vt 0.666667 0.666667
vt 0.666667 1.000000
vt 0.333333 1.000000
vt 0.333333 0.666667
vt 0.666667 0.666667
vt 0.666667 1.000000
vt 0.333333 1.000000
vt 0.000000 0.666667
vt 0.333333 0.666667
vt 0.333333 1.000000
vt 0.000000 1.000000
vt 0.333333 0.666667
vt 0.666667 0.666667
vt 0.666667 1.000000
vt 0.333333 1.000000
vt 0.000000 0.666667
vt 0.333333 0.666667
vt 0.333333 1.000000
vt 0.000000 1.000000
vt 0.333333 0.666667
vt 0.666667 0.666667
vt 0.666667 1.000000
vt 0.333333 1.000000
vt 0.000000 0.666667
vt 0.333333 0.666667
vt 0.333333 1.000000
vt 0.000000 1.000000
vt 0.333333 0.666667
vt 0.666667 0.666667
vt 0.666667 1.000000
vt 0.333333 1.000000
vt 0.333333 0.666667
vt 0.666667 0.666667
vt 0.666667 1.000000
vt 0.333333 1.000000
vt 0.333333 0.666667
vt 0.666667 0.666667
vt 0.666667 1.000000
vt 0.333333 1.000000
vt 0.333333 0.666667
vt 0.666667 0.666667
vt 0.666667 1.000000
vt 0.333333 1.000000
vt 0.333333 0.666667
vt 0.666667 0.666667
vt 0.666667 1.000000
vt 0.333333 1.000000
vt 0.333333 0.666667
vt 0.666667 0.666667
vt 0.666667 1.000000
vt 0.333333 1.000000
vt 0.333333 0.666667
vt 0.666667 0.666667
vt 0.666667 1.000000
vt 0.333333 1.000000
vt 0.000000 0.666667
vt 0.333333 0.666667
vt 0.333333 1.000000
vt 0.000000 1.000000
vt -0.000000 0.666667
vt 0.333333 0.666667
vt 0.333333 1.000000
vt -0.000000 1.000000
vt 0.000000 0.666667
vt 0.333333 0.666667
vt 0.333333 1.000000
vt 0.000000 1.000000
vt 0.666667 0.333333
vt 1.000000 0.333333
vt 1.000000 0.666667
vt 0.666667 0.666667
vt 0.333333 0.666667
vt 0.666667 0.666667
vt 0.666667 1.000000
vt 0.333333 1.000000
vt 0.000000 0.666667
vt 0.333333 0.666667
vt 0.333333 1.000000
vt 0.000000 1.000000
vt 0.666667 0.333333
vt 1.000000 0.333333
vt 1.000000 0.666667
vt 0.666667 0.666667
vt 0.000000 0.666667
vt 0.333333 0.666667
vt 0.333333 1.000000
vt 0.000000 1.000000
vt 0.000000 0.666667
vt 0.333333 0.666667
vt 0.333333 1.000000
vt 0.000000 1.000000
vt 0.000000 0.666667
vt 0.333333 0.666667
vt 0.333333 1.000000
vt 0.000000 1.000000
vt 0.333333 0.666667
vt 0.666667 0.666667
vt 0.666667 1.000000
vt 0.333333 1.000000
vt 0.000000 0.666667
vt 0.333333 0.666667
vt 0.333333 1.000000
vt 0.000000 1.000000
vt 0.000000 0.666667
vt 0.333333 0.666667
vt 0.333333 1.000000
vt 0.000000 1.000000
vt 0.333333 0.666667
vt 0.666667 0.666667
vt 0.666667 1.000000
vt 0.333333 1.000000
vt 0.000000 0.666667
vt 0.333333 0.666667
vt 0.333333 1.000000
vt 0.000000 1.000000
vt 0.333333 0.666667
vt 0.666667 0.666667
vt 0.666667 1.000000
vt 0.333333 1.000000
vt -0.000000 0.666667
vt 0.333333 0.666667
vt 0.333333 1.000000
vt -0.000000 1.000000
vt 0.333333 0.666667
vt 0.666667 0.666667
vt 0.666667 1.000000
vt 0.333333 1.000000
vt 0.666667 0.666667
vt 1.000000 0.666667
vt 1.000000 1.000000
vt 0.666667 1.000000
vt 0.333333 0.666667
vt 0.666667 0.666667
vt 0.666667 1.000000
vt 0.333333 1.000000
vt 0.333333 0.666667
vt 0.666667 0.666667
vt 0.666667 1.000000
vt 0.333333 1.000000
vt 0.333333 0.666667
vt 0.666667 0.666667
vt 0.666667 1.000000
vt 0.333333 1.000000
vt 0.000000 0.666667
vt 0.333333 0.666667
vt 0.333333 1.000000
vt 0.000000 1.000000
vt 0.000000 0.666667
vt 0.333333 0.666667
vt 0.333333 1.000000
vt 0.000000 1.000000
vt 0.000000 0.333333
vt 0.000000 0.666667
vt 0.333333 0.666667
vt 0.333333 0.333333
vt 0.333333 0.666667
vt 0.666667 0.666667
vt 0.666667 1.000000
vt 0.333333 1.000000
vt 0.000000 0.666667
vt 0.333333 0.666667
vt 0.333333 1.000000
vt 0.000000 1.000000
vt 0.333333 0.666667
vt 0.666667 0.666667
vt 0.666667 1.000000
vt 0.333333 1.000000
vt 0.666667 0.333333
vt 1.000000 0.333333
vt 1.000000 0.666667
vt 0.666667 0.666667
vt 0.000000 0.666667
vt 0.333333 0.666667
vt 0.333333 1.000000
vt 0.000000 1.000000
vt -0.000000 0.666667
vt 0.333333 0.666667
vt 0.333333 1.000000
vt -0.000000 1.000000
vt 0.000000 0.666667
vt 0.333333 0.666667
vt 0.333333 1.000000
vt 0.000000 1.000000
vt 0.000000 0.666667
vt 0.333333 0.666667
vt 0.333333 1.000000
vt 0.000000 1.000000
vt 0.000000 0.666667
vt 0.333333 0.666667
vt 0.333333 1.000000
vt 0.000000 1.000000
vt 0.000000 0.666667
vt 0.333333 0.666667
vt 0.333333 1.000000
vt 0.000000 1.000000
vt 0.000000 0.333333
vt 0.000000 0.666667
vt 0.333333 0.666667
vt 0.333333 0.333333
vt 0.000000 0.666667
vt 0.333333 0.666667
vt 0.333333 1.000000
vt 0.000000 1.000000
vt 0.000000 0.666667
vt 0.333333 0.666667
vt 0.333333 1.000000
vt 0.000000 1.000000
vt 0.333333 0.666667
vt 0.666667 0.666667
vt 0.666667 1.000000
vt 0.333333 1.000000
vt 0.000000 0.666667
vt 0.333333 0.666667
vt 0.333333 1.000000
vt 0.000000 1.000000
vt 0.666667 0.666667
vt 1.000000 0.666667
vt 1.000000 1.000000
vt 0.666667 1.000000
vt 0.333333 0.666667
vt 0.666667 0.666667
vt 0.666667 1.000000
vt 0.333333 1.000000
vt 0.000000 0.666667
vt 0.333333 0.666667
vt 0.333333 1.000000
vt 0.000000 1.000000
vt 0.333333 0.666667
vt 0.666667 0.666667
vt 0.666667 1.000000
vt 0.333333 1.000000
vt 0.333333 0.666667
vt 0.666667 0.666667
vt 0.666667 1.000000
vt 0.333333 1.000000
vt -0.000000 0.666667
vt 0.333333 0.666667
vt 0.333333 1.000000
vt -0.000000 1.000000
vt 0.333333 0.666667
vt 0.666667 0.666667
vt 0.666667 1.000000
vt 0.333333 1.000000
vt -0.000000 0.666667
vt 0.333333 0.666667
vt 0.333333 1.000000
vt -0.000000 1.000000
vt 0.000000 0.666667
vt 0.333333 0.666667
vt 0.333333 1.000000
vt 0.000000 1.000000
vt 0.333333 0.666667
vt 0.666667 0.666667
vt 0.666667 1.000000
vt 0.333333 1.000000
vt 0.333333 0.333333
vt 0.666667 0.333333
vt 0.666667 0.666667
vt 0.333333 0.666667
vt 0.333333 0.666667
vt 0.666667 0.666667
vt 0.666667 1.000000
vt 0.333333 1.000000
vt 0.666667 0.666667
vt 1.000000 0.666667
vt 1.000000 1.000000
vt 0.666667 1.000000
vt 0.333333 0.666667
vt 0.666667 0.666667
vt 0.666667 1.000000
vt 0.333333 1.000000
vt 0.333333 0.666667
vt 0.666667 0.666667
vt 0.666667 1.000000
vt 0.333333 1.000000
vn -1.0000 -0.0000 0.0000
vn 0.0000 1.0000 0.0000
vn 0.0000 -0.0000 1.0000
vn -0.7071 -0.0000 0.7071
vn 0.7071 0.0000 0.7071
vn 1.0000 0.0000 0.0000
vn 0.0000 0.7071 0.7071
vn 0.0000 -0.7071 0.7071
usemtl Material.016
s 1
f 1/1/1 4/2/1 3/3/1 2/4/1
usemtl Material.005
f 5/5/2 6/6/2 7/7/2 8/8/2
usemtl Material.041
f 9/9/3 10/10/3 11/11/3 12/12/3
usemtl Material.043
f 13/13/4 14/14/4 15/15/4 16/16/4
usemtl Material.067
f 17/17/2 18/18/2 19/19/2 20/20/2
usemtl Material.036
f 21/21/5 22/22/5 23/23/5 24/24/5
usemtl Material.046
f 25/25/1 26/26/1 27/27/1 28/28/1
usemtl Material.061
f 29/29/6 30/30/6 31/31/6 32/32/6
usemtl Material.066
f 33/33/3 34/34/3 35/35/3 36/36/3
usemtl Material.073
f 37/37/2 38/38/2 39/39/2 40/40/2
usemtl Material.045
f 41/41/5 42/42/5 43/43/5 44/44/5
usemtl Material.037
f 45/45/3 46/46/3 47/47/3 48/48/3
usemtl Material.065
f 49/49/7 50/50/7 51/51/7 52/52/7
usemtl Material.062
f 53/53/2 54/54/2 55/55/2 56/56/2
usemtl Material.069
f 57/57/6 58/58/6 59/59/6 60/60/6
usemtl Material.048
f 61/61/3 62/62/3 63/63/3 64/64/3
usemtl Material.011
f 65/65/6 66/66/6 67/67/6 68/68/6
usemtl Material.027
f 69/69/4 70/70/4 71/71/4 72/72/4
usemtl Material.002
f 73/73/3 74/74/3 75/75/3 76/76/3
usemtl Material.054
f 77/77/7 78/78/7 79/79/7 80/80/7
usemtl Material.053
f 81/81/7 82/82/7 83/83/7 84/84/7
usemtl Material.026
f 85/85/2 86/86/2 87/87/2 88/88/2
usemtl Material.058
f 89/89/7 90/90/7 91/91/7 92/92/7
usemtl Material.003
f 93/93/2 94/94/2 95/95/2 96/96/2
usemtl Material.020
f 97/97/6 98/98/6 99/99/6 100/100/6
usemtl Material.006
f 101/101/6 102/102/6 103/103/6 104/104/6
usemtl Material.074
f 105/105/2 106/106/2 107/107/2 108/108/2
usemtl Material.019
f 109/109/6 110/110/6 111/111/6 112/112/6
usemtl Material.008
f 113/113/2 114/114/2 115/115/2 116/116/2
usemtl Material.042
f 117/117/1 118/118/1 119/119/1 120/120/1
usemtl Material.068
f 121/121/2 122/122/2 123/123/2 124/124/2
usemtl Material.034
f 125/125/4 126/126/4 127/127/4 128/128/4
usemtl Material.078
f 129/129/2 130/130/2 131/131/2 132/132/2
usemtl Material.035
f 133/133/3 134/134/3 135/135/3 136/136/3
usemtl Material.024
f 137/137/6 138/138/6 139/139/6 140/140/6
usemtl Material.040
f 141/141/1 142/142/1 143/143/1 144/144/1
usemtl Material.077
f 145/145/3 146/146/3 147/147/3 148/148/3
usemtl Material.050
f 149/149/4 150/150/4 151/151/4 152/152/4
usemtl Material.023
f 153/153/3 154/154/3 155/155/3 156/156/3
usemtl Material.014
f 157/157/2 158/158/2 159/159/2 160/160/2
usemtl Material.031
f 161/161/7 162/162/7 163/163/7 164/164/7
usemtl Material.070
f 165/165/5 166/166/5 167/167/5 168/168/5
usemtl Material.032
f 169/169/6 170/170/6 171/171/6 172/172/6
usemtl Material.060
f 173/173/2 174/174/2 175/175/2 176/176/2
usemtl Material.010
f 177/177/3 178/178/3 179/179/3 180/180/3
usemtl Material.017
f 181/181/1 184/182/1 183/183/1 182/184/1
usemtl Material.072
f 185/185/4 186/186/4 187/187/4 188/188/4
usemtl Material.076
f 189/189/2 190/190/2 191/191/2 192/192/2
usemtl Material.063
f 193/193/3 194/194/3 195/195/3 196/196/3
usemtl Material.021
f 197/197/6 198/198/6 199/199/6 200/200/6
usemtl Material.039
f 201/201/3 202/202/3 203/203/3 204/204/3
usemtl Material.052
f 205/205/4 206/206/4 207/207/4 208/208/4
usemtl Material.044
f 209/209/1 210/210/1 211/211/1 212/212/1
usemtl Material.022
f 213/213/2 214/214/2 215/215/2 216/216/2
usemtl Material.028
f 217/217/2 218/218/2 219/219/2 220/220/2
usemtl Material.025
f 221/221/2 222/222/2 223/223/2 224/224/2
usemtl Material.018
f 225/225/1 228/226/1 227/227/1 226/228/1
usemtl Material.001
f 229/229/2 230/230/2 231/231/2 232/232/2
usemtl Material.064
f 233/233/2 234/234/2 235/235/2 236/236/2
usemtl Material.047
f 237/237/7 238/238/7 239/239/7 240/240/7
usemtl Material.033
f 241/241/3 242/242/3 243/243/3 244/244/3
usemtl Material.015
f 245/245/2 246/246/2 247/247/2 248/248/2
usemtl Material.007
f 249/249/6 250/250/6 251/251/6 252/252/6
usemtl Material.030
f 253/253/2 254/254/2 255/255/2 256/256/2
usemtl Material.051
f 257/257/5 258/258/5 259/259/5 260/260/5
usemtl Material.080
f 261/261/6 262/262/6 263/263/6 264/264/6
usemtl Material.057
f 265/265/5 266/266/5 267/267/5 268/268/5
usemtl Material.059
f 269/269/8 270/270/8 271/271/8 272/272/8
usemtl Material.049
f 273/273/4 274/274/4 275/275/4 276/276/4
usemtl Material.079
f 277/277/2 278/278/2 279/279/2 280/280/2
usemtl Material.029
f 281/281/5 282/282/5 283/283/5 284/284/5
usemtl Material.012
f 285/285/3 286/286/3 287/287/3 288/288/3
usemtl Material.075
f 289/289/7 290/290/7 291/291/7 292/292/7
usemtl Material.013
f 293/293/2 294/294/2 295/295/2 296/296/2
usemtl Material.004
f 297/297/6 298/298/6 299/299/6 300/300/6
usemtl Material.038
f 301/301/7 302/302/7 303/303/7 304/304/7
