# WaveFront *.obj file (generated by CINEMA 4D)

v 80.49981689453125 1 -0.5
v 81.49981689453125 1 -0.5
v 81.49981689453125 1 0.5
v 80.49981689453125 1 0.5
# 4 vertices

vn 0 1 0
# 1 normal

vt 0 1 0
vt 0.33333295583725 1 0
vt 0.33333295583725 0.66666704416275 0
vt 0 0.66666704416275 0
# 4 texture coordinates

o Plane.014_Plane
usemtl Material.079
f 4/4/1 3/3/1 2/2/1 1/1/1

v 9.5 0 0.5
v 9.5 0 -0.5
v 9.5 1 -0.5
v 9.5 1 0.5
v 3.5 0 0.5
v 4.5 0 0.5
v 4.5 0 -0.5
v 3.5 0 -0.5
v 29.5 0 -0.5
v 30.5 0 -0.5
v 30.5 1 -0.5
v 29.5 1 -0.5
v 31.50502586364746 0 -0.49497500061989
v 32.49497604370117 0 0.49497500061989
v 32.49497604370117 1 0.49497500061989
v 31.50502586364746 1 -0.49497500061989
v 54.5 1 0.5
v 55.5 1 0.5
v 55.5 1 -0.5
v 54.5 1 -0.5
v 25.50502586364746 0 0.49497500061989
v 26.49497413635254 0 -0.49497500061989
v 26.49497413635254 1 -0.49497500061989
v 25.50502586364746 1 0.49497500061989
v 35.5 0 -0.5
v 35.5 0 0.5
v 35.5 1 0.5
v 35.5 1 -0.5
v 48.5 0 0.5
v 48.5 0 -0.5
v 48.5 1 -0.5
v 48.5 1 0.5
v 54.5 0 -0.5
v 55.5 0 -0.5
v 58.5 1 0.5
v 59.5 1 0.5
v 59.5 1 -0.5
v 58.5 1 -0.5
v 33.50502395629883 0 0.49497500061989
v 34.49497604370117 0 -0.49497500061989
v 34.49497604370117 1 -0.49497500061989
v 33.50502395629883 1 0.49497500061989
v 25.5 0 -0.5
v 26.5 0 -0.5
v 26.5 1 -0.5
v 25.5 1 -0.5
v 52.5 0.00692299986258 0.49307700991631
v 53.5 0.00692299986258 0.49307700991631
v 53.5 0.99307698011398 -0.49307700991631
v 52.5 0.99307698011398 -0.49307700991631
v 49.5 0 0.5
v 50.5 0 0.5
v 50.5 0 -0.5
v 49.5 0 -0.5
v 56.5 0 0.5
v 56.5 0 -0.5
v 56.5 1 -0.5
v 56.5 1 0.5
v 37.5 0 -0.5
v 38.5 0 -0.5
v 38.5 1 -0.5
v 37.5 1 -0.5
v 8.5 0 0.5
v 8.5 0 -0.5
v 8.5 1 -0.5
v 8.5 1 0.5
v 15.50502490997314 0 -0.49497500061989
v 16.49497413635254 0 0.49497500061989
v 16.49497413635254 1 0.49497500061989
v 15.50502490997314 1 -0.49497500061989
v -0.5 -1 0.5
v 0.5 -1 0.5
v 0.5 0 0.5
v -0.5 0 0.5
v 43.5 0.00692299986258 0.49307700991631
v 44.5 0.00692299986258 0.49307700991631
v 44.5 0.99307698011398 -0.49307700991631
v 43.5 0.99307698011398 -0.49307700991631
v 41.5 0.00692299986258 0.49307700991631
v 42.5 0.00692299986258 0.49307700991631
v 42.5 0.99307698011398 -0.49307700991631
v 41.5 0.99307698011398 -0.49307700991631
v 15.5 0 0.5
v 16.5 0 0.5
v 16.5 0 -0.5
v 15.5 0 -0.5
v 45.5 0.00692299986258 0.49307700991631
v 46.5 0.00692299986258 0.49307700991631
v 46.5 0.99307698011398 -0.49307700991631
v 45.5 0.99307698011398 -0.49307700991631
v 1.5 0 0.5
v 2.5 0 0.5
v 2.5 0 -0.5
v 1.5 0 -0.5
v 10.5 0 -0.5
v 10.5 0 -1.5
v 10.5 1 -1.5
v 10.5 1 -0.5
v 4.5 -1 0.5
v 4.5 -1 -0.5
v 60.5 1 0.5
v 61.5 1 0.5
v 61.5 1 -0.5
v 60.5 1 -0.5
v 10.5 0 -2.5
v 10.5 1 -2.5
v 5.5 1 0.5
v 6.5 1 0.5
v 6.5 1 -0.5
v 5.5 1 -0.5
v 31.5 0 -0.5
v 31.5 0 0.5
v 31.5 1 0.5
v 31.5 1 -0.5
v 57.5 1 0.5
v 57.5 1 -0.5
v 23.50502586364746 0 -0.49497500061989
v 24.49497413635254 0 0.49497500061989
v 24.49497413635254 1 0.49497500061989
v 23.50502586364746 1 -0.49497500061989
v 64.5 1 0.5
v 65.5 1 0.5
v 65.5 1 -0.5
v 64.5 1 -0.5
v 23.5 0 -0.5
v 24.5 0 -0.5
v 24.5 1 -0.5
v 23.5 1 -0.5
v 13.5 0 0.5
v 13.5 0 -0.5
v 13.5 1 -0.5
v 13.5 1 0.5
v 29.5 0 0.5
v 29.5 1 0.5
v 64.5 0 0.5
v 65.5 0 0.5
v 39.50502395629883 0 -0.49497500061989
v 40.49497604370117 0 0.49497500061989
v 40.49497604370117 1 0.49497500061989
v 39.50502395629883 1 -0.49497500061989
v 11.5 0 -0.5
v 12.5 0 -0.5
v 12.5 1 -0.5
v 11.5 1 -0.5
v 9.5 1 -1.5
v 19.5 0.00692299986258 0.49307700991631
v 20.5 0.00692299986258 0.49307700991631
v 20.5 0.99307698011398 -0.49307700991631
v 19.5 0.99307698011398 -0.49307700991631
v 60.50502395629883 0 0.49497500061989
v 61.49497604370117 0 -0.49497500061989
v 61.49497604370117 1 -0.49497500061989
v 60.50502395629883 1 0.49497500061989
v 21.5 0 0.5
v 21.5 0 -0.5
v 21.5 1 -0.5
v 21.5 1 0.5
v 47.5 0 0.5
v 47.5 0 -0.5
v 7.5 0 0.5
v 7.5 1 0.5
v 9.5 0 -1.5
v 58.50502395629883 0 -0.49497500061989
v 59.49497604370117 0 0.49497500061989
v 59.49497604370117 1 0.49497500061989
v 58.50502395629883 1 -0.49497500061989
v 62.5 1 0.5
v 63.5 1 0.5
v 63.5 1 -0.5
v 62.5 1 -0.5
v 50.5 1 0.5
v 49.5 1 0.5
v 10.5 0 0.5
v 10.5 1 0.5
v 27.5 0 -0.5
v 28.5 0 -0.5
v 28.5 1 -0.5
v 27.5 1 -0.5
v 41.50502395629883 0 -0.49497500061989
v 42.49497604370117 0 0.49497500061989
v 42.49497604370117 1 0.49497500061989
v 41.50502395629883 1 -0.49497500061989
v 33.5 0 -0.5
v 33.5 0 0.5
v 33.5 1 0.5
v 33.5 1 -0.5
v 11.5 0 0.5
v 12.5 0 0.5
v 17.5 0 0.5
v 18.5 0 0.5
v 18.5 0 -0.5
v 17.5 0 -0.5
v 14.5 0 0.5
v 14.5 0 -0.5
v 9.5 0 -2.5
v 9.5 1 -2.5
v 0.5 0 -0.5
v -0.5 0 -0.5
v 51.5 0 0.5
v 52.5 0 0.5
v 52.5 0 -0.5
v 51.5 0 -0.5
v 35.5 0.00692299986258 0.49307700991631
v 36.5 0.00692299986258 0.49307700991631
v 36.5 0.99307698011398 -0.49307700991631
v 35.5 0.99307698011398 -0.49307700991631
v 22.5 0 -0.5
v 22.5 1 -0.5
v 6.5 0 0.5
v 6.5 0 -0.5
v 19.5 0 0.5
v 20.5 0 0.5
v 20.5 0 -0.5
v 19.5 0 -0.5
v 39.50502395629883 0 0.49497500061989
v 40.49497604370117 0 -0.49497500061989
v 40.49497604370117 1 -0.49497500061989
v 39.50502395629883 1 0.49497500061989
v 67.5 0 0.5
v 67.5 0 -0.5
v 67.5 1 -0.5
v 67.5 1 0.5
v 43.50502395629883 0 0.49497500061989
v 44.49497604370117 0 -0.49497500061989
v 44.49497604370117 1 -0.49497500061989
v 43.50502395629883 1 0.49497500061989
v 45.5 0.00692299986258 -0.49307700991631
v 46.5 0.00692299986258 -0.49307700991631
v 46.5 0.99307698011398 0.49307700991631
v 45.5 0.99307698011398 0.49307700991631
v 37.50502395629883 0 -0.49497500061989
v 38.49497604370117 0 0.49497500061989
v 38.49497604370117 1 0.49497500061989
v 37.50502395629883 1 -0.49497500061989
v 66.5 1 0.5
v 66.5 1 -0.5
v 17.50502586364746 0 0.49497500061989
v 18.49497413635254 0 -0.49497500061989
v 18.49497413635254 1 -0.49497500061989
v 17.50502586364746 1 0.49497500061989
v 62.5 0.00692299986258 0.49307700991631
v 63.5 0.00692299986258 0.49307700991631
v 63.5 0.99307698011398 -0.49307700991631
v 62.5 0.99307698011398 -0.49307700991631
v 1.5 -1 0.5
v 1.5 -1 -0.5
v 27.5 0.00692299986258 0.49307700991631
v 28.5 0.00692299986258 0.49307700991631
v 28.5 0.99307698011398 -0.49307700991631
v 27.5 0.99307698011398 -0.49307700991631
# 250 vertices

vn -1 0 0
vn 0 0 1
vn -0.70710676908493 0 0.70710676908493
vn 0.70710676908493 0 0.70710676908493
vn 1 0 0
vn 0 0.70710676908493 0.70710676908493
vn 0 -0.70710676908493 0.70710676908493
# 7 normals

vt 0.33333298563957 0.33333301544189 0
vt 0.33333298563957 0.66666704416275 0
vt 0 0.33333301544189 0
vt 0.33333298563957 1 0
vt 0.66666698455811 1 0
vt 0.66666698455811 0.66666704416275 0
vt 0 1 0
vt 0 0.66666704416275 0
vt 1 0.66666704416275 0
vt 1 0.33333301544189 0
vt 0.66666698455811 0.33333301544189 0
vt 1 1 0
# 12 texture coordinates

o Plane.014_Plane.015
usemtl Material.051
f 219/6/5 220/10/5 221/9/5 222/8/5

usemtl Material.016
f 5/7/2 8/4/2 7/6/2 6/5/2

usemtl Material.043
f 17/6/4 18/10/4 19/9/4 20/8/4

usemtl Material.065
f 51/6/7 52/10/7 53/9/7 54/8/7

usemtl Material.014
f 7/10/1 102/13/1 101/16/1 149/9/1

usemtl Material.069
f 59/6/6 60/10/6 61/9/6 62/8/6

usemtl Material.079
f 239/4/1 226/6/1 225/8/1 240/1/1

usemtl Material.006
f 103/6/6 104/10/6 11/9/6 10/8/6

usemtl Material.078
f 125/4/1 126/6/1 127/8/1 128/1/1

usemtl Material.002
f 75/6/3 76/10/3 77/9/3 78/8/3

usemtl Material.060
f 162/4/1 33/6/1 34/8/1 163/1/1

usemtl Material.073
f 39/4/1 40/6/1 41/8/1 42/1/1

usemtl Material.042
f 115/4/2 116/6/2 117/8/2 118/1/2

usemtl Material.077
f 139/6/3 140/10/3 126/9/3 125/8/3

usemtl Material.080
f 223/6/6 224/10/6 225/9/6 226/8/6

usemtl Material.037
f 47/4/3 48/6/3 49/8/3 50/1/3

usemtl Material.046
f 29/4/2 30/6/2 31/8/2 32/1/2

usemtl Material.023
f 145/6/3 146/10/3 147/9/3 148/8/3

usemtl Material.048
f 63/6/3 64/10/3 65/9/3 66/8/3

usemtl Material.035
f 129/4/3 130/6/3 131/8/3 132/1/3

usemtl Material.045
f 43/6/5 44/10/5 45/9/5 46/8/5

usemtl Material.020
f 99/15/6 100/14/6 101/13/6 102/10/6

usemtl Material.041
f 13/6/3 14/10/3 15/9/3 16/8/3

usemtl Material.054
f 79/6/7 80/10/7 81/9/7 82/8/7

usemtl Material.050
f 141/12/4 142/6/4 143/8/4 144/11/4

usemtl Material.008
f 111/4/1 112/6/1 113/8/1 114/1/1

usemtl Material.003
f 95/4/1 96/6/1 97/8/1 98/1/1

usemtl Material.068
f 62/4/1 119/6/1 120/8/1 61/1/1

usemtl Material.036
f 25/6/5 26/10/5 27/9/5 28/8/5

usemtl Material.070
f 154/6/5 155/10/5 156/9/5 157/8/5

usemtl Material.011
f 67/6/6 68/10/6 69/9/6 70/8/6

usemtl Material.025
f 133/4/1 197/6/1 198/8/1 134/1/1

usemtl Material.005
f 9/4/1 10/6/1 11/8/1 12/1/1

usemtl Material.019
f 100/15/6 109/14/6 110/13/6 101/10/6

usemtl Material.024
f 133/6/6 134/10/6 135/9/6 136/8/6

usemtl Material.057
f 227/12/5 228/6/5 229/8/5 230/11/5

usemtl Material.067
f 21/4/1 22/6/1 23/8/1 24/1/1

usemtl Material.053
f 83/6/7 84/10/7 85/9/7 86/8/7

usemtl Material.062
f 55/4/1 56/6/1 57/8/1 58/1/1

usemtl Material.034
f 121/6/4 122/10/4 123/9/4 124/8/4

usemtl Material.058
f 91/12/7 92/6/7 93/8/7 94/11/7

usemtl Material.021
f 177/15/6 99/14/6 102/13/6 178/10/6

usemtl Material.066
f 37/6/3 38/10/3 23/9/3 24/8/3

usemtl Material.061
f 33/6/6 34/10/6 35/9/6 36/8/6

usemtl Material.031
f 150/6/7 151/10/7 152/9/7 153/8/7

usemtl Material.027
f 71/6/4 72/10/4 73/9/4 74/8/4

usemtl Material.040
f 13/4/2 137/6/2 138/8/2 16/1/2

usemtl Material.074
f 105/4/1 106/6/1 107/8/1 108/1/1

usemtl Material.026
f 87/4/1 88/6/1 89/8/1 90/1/1

usemtl Material.032
f 158/6/6 159/10/6 160/9/6 161/8/6

usemtl Material.010
f 164/4/3 67/6/3 70/8/3 165/1/3

usemtl Material.017
f 6/7/2 7/4/2 149/6/2 166/5/2

usemtl Material.072
f 167/6/4 168/10/4 169/9/4 170/8/4

usemtl Material.076
f 171/4/1 172/6/1 173/8/1 174/1/1

usemtl Material.063
f 55/6/3 56/10/3 175/9/3 176/8/3

usemtl Material.039
f 179/4/3 180/6/3 181/8/3 182/1/3

usemtl Material.052
f 183/12/4 184/6/4 185/8/4 186/11/4

usemtl Material.044
f 187/4/2 188/6/2 189/8/2 190/1/2

usemtl Material.022
f 191/4/1 192/6/1 146/8/1 145/1/1

usemtl Material.028
f 193/4/1 194/6/1 195/8/1 196/1/1

usemtl Material.018
f 166/7/2 149/4/2 200/6/2 199/5/2

usemtl Material.001
f 78/4/1 77/6/1 201/8/1 202/1/1

usemtl Material.064
f 203/4/1 204/6/1 205/8/1 206/1/1

usemtl Material.047
f 207/6/7 208/10/7 209/9/7 210/8/7

usemtl Material.033
f 159/4/3 211/6/3 212/8/3 160/1/3

usemtl Material.015
f 149/10/1 101/13/1 110/16/1 200/9/1

usemtl Material.007
f 213/6/6 214/10/6 113/9/6 112/8/6

usemtl Material.030
f 215/4/1 216/6/1 217/8/1 218/1/1

usemtl Material.059
f 231/6/8 232/10/8 233/9/8 234/8/8

usemtl Material.049
f 235/12/4 236/6/4 237/8/4 238/11/4

usemtl Material.029
f 241/6/5 242/10/5 243/9/5 244/8/5

usemtl Material.012
f 5/5/3 177/15/3 178/10/3 8/6/3

usemtl Material.075
f 245/6/7 246/10/7 247/9/7 248/8/7

usemtl Material.013
f 8/10/1 178/13/1 102/16/1 7/9/1

usemtl Material.004
f 249/6/6 250/10/6 98/9/6 95/8/6

usemtl Material.038
f 251/6/7 252/10/7 253/9/7 254/8/7

