# WaveFront *.obj file (generated by CINEMA 4D)

v 0.40500000119209 1.71000099182129 1.62000000476837
v 0.58499997854233 1.35000002384186 1.62000000476837
v 0.58499997854233 1.35000002384186 1.16999995708466
v 0.58499997854233 1.08000004291534 3.86999988555908
v 0.22499999403954 0.45000100135803 4.40999984741211
v 0.22499999403954 1.35000002384186 3.86999988555908
v 0.04500000178814 0.80999898910522 3.59999990463257
v -0.22499999403954 1.35000002384186 3.86999988555908
v 1.125 1.25999999046326 2.78999996185303
v 2.29500007629395 2.96999907493591 2.70000004768372
v 0.49500000476837 1.98000001907349 3.05999994277954
v -0.49500000476837 1.98000001907349 3.05999994277954
v 3.82500004768372 1.35000002384186 3.69000005722046
v 1.2150000333786 1.53000104427338 3.32999992370605
v 0.76499998569489 1.98000001907349 3.32999992370605
v -0.58499997854233 1.08000004291534 3.86999988555908
v -0.22499999403954 0.45000100135803 4.40999984741211
v -1.125 1.16999995708466 2.78999996185303
v -0.76499998569489 1.98000001907349 3.32999992370605
v -1.125 1.53000104427338 3.32999992370605
v 2.47499990463257 3.32999992370605 1.62000000476837
v 0.04500000178814 0.63000100851059 2.4300000667572
v 3.73499989509583 1.44000101089478 3.59999990463257
v -0.40500000119209 1.71000099182129 1.16999995708466
v 0.04500000178814 1.44000101089478 0.81000000238419
v 2.74499988555908 1.25999999046326 -0.18000000715256
v 0.31499999761581 1.16999995708466 0.81000000238419
v 2.38499999046326 2.96999907493591 1.44000005722046
v 0.04500000178814 0.71999901533127 1.35000002384186
v -0.58499997854233 1.35000002384186 1.16999995708466
v -0.31499999761581 1.16999995708466 0.81000000238419
v -0.31499999761581 1.16999995708466 2.0699999332428
v 0.04500000178814 1.44000101089478 2.0699999332428
v 0.40500000119209 1.71000099182129 1.16999995708466
v 3.01500010490417 1.35000002384186 -0.54000002145767
v -0.40500000119209 1.71000099182129 1.62000000476837
v 2.47499990463257 3.32999992370605 1.25999999046326
v 0.76499998569489 1.53000104427338 3.77999997138977
v 0.31499999761581 1.16999995708466 2.0699999332428
v 2.83500003814697 1.35000002384186 -0.18000000715256
v 3.46499991416931 1.35000002384186 3.24000000953674
v 1.93499994277954 3.42000007629395 0.36000001430511
v -0.58499997854233 1.35000002384186 1.62000000476837
v 1.48500001430511 1.44000101089478 -3.50999999046326
v 0.04500000178814 2.16000008583069 -4.1399998664856
v 0.04500000178814 1.16999995708466 -4.40999984741211
v 2.47499990463257 1.44000101089478 -2.4300000667572
v 1.93499994277954 2.51999998092651 -2.4300000667572
v 2.20499992370605 1.35000002384186 -0.54000002145767
v 1.75499999523163 2.33999991416931 -0.54000002145767
v 1.0349999666214 1.88999903202057 0.27000001072884
v -4.18499994277954 1.25999999046326 1.16999995708466
v -2.47499990463257 1.44000101089478 -2.4300000667572
v -2.20499992370605 1.35000002384186 -0.54000002145767
v -1.93499994277954 0.45000100135803 -2.33999991416931
v 0.04500000178814 2.79000091552734 -0.18000000715256
v 4.00500011444092 1.35000002384186 3.15000009536743
v 0.76499998569489 3.24000000953674 -2.4300000667572
v 1.48500001430511 0.45000100135803 0
v 1.93499994277954 3.15000009536743 0.54000002145767
v 2.29500007629395 2.70000100135803 2.51999998092651
v 0.04500000178814 0 -4.1399998664856
v -0.67500001192093 3.24000000953674 -2.4300000667572
v 3.01500010490417 0 3.05999994277954
v 3.10500001907349 1.25999999046326 -0.62999999523163
v -1.0349999666214 1.88999903202057 0.27000001072884
v 2.38499999046326 2.96999907493591 2.33999991416931
v -1.75499999523163 2.33999991416931 -0.54000002145767
v 2.11500000953674 3.42000007629395 0.62999999523163
v -1.93499994277954 2.51999998092651 -2.4300000667572
v -1.48500001430511 0.45000100135803 0
v -1.48500001430511 1.44000101089478 -3.50999999046326
v 3.91499996185303 1.44000101089478 3.15000009536743
v 0.94499999284744 0.36000099778175 -3.15000009536743
v 1.93499994277954 0.45000100135803 -2.33999991416931
v -0.94499999284744 0.36000099778175 -3.15000009536743
v 0.04500000178814 0.27000001072884 -1.52999997138977
v 3.375 1.25999999046326 -0.09000000357628
v 3.5550000667572 1.44000101089478 3.24000000953674
v -0.67500001192093 1.53000104427338 3.77999997138977
v -1.93499994277954 3.42000007629395 0.36000001430511
v -1.93499994277954 3.15000009536743 0.54000002145767
v -3.10500001907349 1.25999999046326 -0.62999999523163
v -2.11500000953674 3.42000007629395 0.62999999523163
v -3.375 1.25999999046326 -0.09000000357628
v 4.72499990463257 1.25999999046326 1.35000002384186
v -3.01500010490417 1.35000002384186 -0.54000002145767
v -2.83500003814697 1.35000002384186 -0.18000000715256
v -2.11500000953674 0 0.27000001072884
v -3.1949999332428 1.35000002384186 -0.09000000357628
v 4.63500022888184 1.25999999046326 0.89999997615814
v 4.27500009536743 1.25999999046326 1.16999995708466
v -2.74499988555908 1.25999999046326 -0.18000000715256
v -2.38499999046326 2.96999907493591 2.33999991416931
v -2.29500007629395 2.70000100135803 2.51999998092651
v -4.00500011444092 1.35000002384186 3.15000009536743
v -2.29500007629395 2.96999907493591 2.70000004768372
v -3.82500004768372 1.35000002384186 3.69000005722046
v 3.82500004768372 0 1.16999995708466
v -3.91499996185303 1.44000101089478 3.15000009536743
v -3.5550000667572 1.44000101089478 3.24000000953674
v -3.01500010490417 0 3.05999994277954
v -3.73499989509583 1.44000101089478 3.59999990463257
v 4.63500022888184 1.25999999046326 1.35000002384186
v 2.11500000953674 0 0.27000001072884
v -3.46499991416931 1.35000002384186 3.24000000953674
v -2.47499990463257 3.32999992370605 1.25999999046326
v -2.38499999046326 2.96999907493591 1.44000005722046
v -4.72499990463257 1.25999999046326 0.89999997615814
v -2.47499990463257 3.32999992370605 1.62000000476837
v -4.72499990463257 1.25999999046326 1.35000002384186
v 3.1949999332428 1.35000002384186 -0.09000000357628
v -4.63500022888184 1.25999999046326 0.89999997615814
v -4.27500009536743 1.25999999046326 1.16999995708466
v -3.82500004768372 0 1.16999995708466
v -4.63500022888184 1.25999999046326 1.35000002384186
v 4.72499990463257 1.25999999046326 0.89999997615814
v 4.18499994277954 1.25999999046326 1.16999995708466
# 118 vertices

vn 0.84730297327042 -0.4850749373436 -0.21628679335117
vn 0.89280450344086 -0.42579233646393 0.14697258174419
vn -0.01200000569224 0.99962550401688 0.02459376119077
vn 0.69513523578644 -0.43885025382042 0.56938338279724
vn -0.02378195151687 -0.07197087258101 0.99712318181992
vn -0.13903474807739 0.42147940397263 0.89611631631851
vn 0.02884442918003 -0.97699177265167 0.21131747961044
vn 0.10734599083662 0.50013542175293 0.85926795005798
vn 0.17097090184689 0.47769349813461 0.86172956228256
vn 0.76161020994186 0.23891140520573 0.60238796472549
vn -0.27547669410706 -0.9595901966095 0.05743915960193
vn 0.02181282825768 0.97888970375061 0.20322179794312
vn 0.27253991365433 0.18131828308105 -0.94490510225296
vn 0.83131045103073 -0.46570387482643 -0.30338567495346
vn 0.225470662117 0.97310197353363 -0.04728164896369
vn 0.941645860672 0.30241295695305 0.14781577885151
vn 0.30150282382965 0.90453970432282 0.30150282382965
vn -0.70321637392044 -0.37320283055305 0.60514986515045
vn 0.01634376682341 0.017125017941 0.99971973896027
vn -0.8394256234169 -0.47785478830338 -0.25888100266457
vn -0.26082041859627 0.94940388202667 -0.17494282126427
vn -0.37341332435608 0.88082921504974 0.29103675484657
vn -0.93535655736923 0.30750420689583 0.17478363215923
vn 0.88245928287506 -0.19594234228134 -0.42763555049896
vn 0.78068220615387 -0.52786129713058 -0.3345111310482
vn 0.17547470331192 0.41785794496536 0.89140528440475
vn 0.03825103491545 -0.91199350357056 -0.40841734409332
vn -0.84530699253082 -0.46351411938667 0.26572686433792
vn -0.60570377111435 0.28663268685341 -0.74226993322372
vn 0.03990673646331 0.96591812372208 0.25575312972069
vn 0.66311311721802 -0.48860800266266 0.56704783439636
vn 0.02203160710633 -0.99923497438431 -0.03231302276254
vn -0.83923786878586 -0.49898013472557 -0.21609868109226
vn -0.77399069070816 -0.35779139399528 0.522421002388
vn -0.85088920593262 -0.29072362184525 -0.43756979703903
vn 0.2988186776638 0.95195716619492 -0.06697012484074
vn -0.36716604232788 0.92396211624146 -0.10715910792351
vn 0.00803129002452 0.99987995624542 0.01325006503612
vn 0.28656795620918 0.48172789812088 -0.82814073562622
vn -0.21396978199482 -0.97444212436676 0.06840657442808
vn -0.10218860208988 0.06212566792965 -0.99282318353653
vn 0.16053587198257 0.49435797333717 0.85430580377579
vn 0.87615472078323 -0.28032201528549 -0.39213833212852
vn -0.00903134793043 0.33790987730026 0.94113510847092
vn 0.40419948101044 0.32091578841209 0.85652542114258
vn -0.8838956952095 -0.44410416483879 0.14662842452526
vn 0.68182277679443 0.63222831487656 -0.36797428131104
vn 0.93773752450943 -0.33491295576096 -0.09209559857845
vn -0.28697696328163 0.37351068854332 0.88211899995804
vn 0.66438418626785 -0.091063760221 -0.74182277917862
vn 0.01093779783696 0.60070389509201 -0.7993968129158
vn 0.01353132072836 0.02487513050437 -0.99959897994995
vn 0.95218640565872 -0.03093848004937 -0.30394712090492
vn 0.70054829120636 0.68386036157608 -0.20387996733189
vn 0.87699246406555 0.0283132661134 0.47966921329498
vn 0.59954726696014 0.65683007240295 0.45729348063469
vn -0.3486964404583 0.32013320922852 0.88086634874344
vn -0.95218640565872 -0.03093848004937 -0.30394712090492
vn -0.87699246406555 0.0283132661134 0.47966921329498
vn -0.60970437526703 -0.7691775560379 -0.19138030707836
vn 0.55661207437515 0.46879670023918 -0.685866355896
vn -0.10812789946795 0.4523871243 0.8852424621582
vn 0.26182067394257 0.94852954149246 -0.17816181480885
vn 0.00818774010986 0.87158805131912 0.49017062783241
vn 0.42488995194435 0.40085783600807 0.81165355443954
vn -0.38332146406174 0.36747735738754 -0.84736359119415
vn -0.34010151028633 -0.93880259990692 -0.05459498986602
vn -0.69315075874329 -0.6975571513176 -0.18153800070286
vn 0.25547474622726 -0.22103644907475 -0.94120961427689
vn -0.24687698483467 0.95247638225555 -0.17843893170357
vn -0.53804439306259 0.11487781256437 -0.83505171537399
vn -0.68916666507721 0.69457298517227 -0.20644061267376
vn -0.59338706731796 0.66291970014572 0.45654052495956
vn -0.41006979346275 0.41444489359856 0.81245195865631
vn -0.30284863710403 -0.81485688686371 0.49425795674324
vn -0.65064418315887 -0.08875261247158 -0.75417846441269
vn 0.01518786605448 -0.71798604726791 -0.69589173793793
vn 0.84189075231552 -0.36535057425499 0.39716365933418
vn 0.8298054933548 0.1090344414115 0.54729729890823
vn 0.08400160074234 0.31275597214699 -0.94611173868179
vn 0.32485044002533 -0.92558151483536 -0.19434773921967
vn 0.61067175865173 -0.76833200454712 -0.19169235229492
vn -0.31812924146652 -0.92610609531403 -0.2027839422226
vn 0.00131253257859 -0.99986863136292 0.01615665107965
vn 0.37366336584091 -0.81535929441452 0.44222718477249
vn -0.17247448861599 0.52067357301712 0.83615285158157
vn -0.68835651874542 -0.72535717487335 0.00471883732826
vn 0.53804439306259 0.11487781256437 -0.83505171537399
vn 0.27547669410706 -0.9595901966095 0.05743915960193
vn -0.25835219025612 0.19013120234013 -0.94715589284897
vn -0.76161020994186 0.23891140520573 0.60238796472549
vn -0.18247207999229 0.46232092380524 0.86773461103439
vn 0.88245928287506 0.19594234228134 0.42763555049896
vn 0.78068220615387 0.52786129713058 0.3345111310482
vn 0.17547470331192 -0.41785794496536 -0.89140528440475
vn -0.60570377111435 -0.28663268685341 0.74226993322372
vn 0.84530699253082 -0.46351411938667 0.26572686433792
vn -0.25547474622726 -0.22103644907475 -0.94120961427689
vn 0.34010151028633 -0.93880259990692 -0.05459498986602
vn -0.55661207437515 0.46879670023918 -0.685866355896
vn 0.10812789946795 0.4523871243 0.8852424621582
vn 0.35272389650345 0.33728617429733 0.87282526493073
vn 0.8298054933548 -0.1090344414115 -0.54729729890823
vn 0.84189075231552 0.36535057425499 -0.39716365933418
vn -0.62164944410324 -0.34457606077194 -0.70343393087387
vn 0.08400160074234 -0.31275597214699 0.94611173868179
vn 0.69315075874329 -0.6975571513176 -0.18153800070286
vn 0.10218860208988 0.06212566792965 -0.99282318353653
vn 0.21396978199482 -0.97444212436676 0.06840657442808
vn -0.28656795620918 0.48172789812088 -0.82814073562622
vn -0.40419948101044 0.32091578841209 0.85652542114258
vn 0.00903134793043 0.33790987730026 0.94113510847092
vn 0.68182277679443 -0.63222831487656 0.36797428131104
vn 0.93773752450943 0.33491295576096 0.09209559857845
vn -0.28697696328163 -0.37351068854332 -0.88211899995804
vn -0.38332146406174 -0.36747735738754 0.84736359119415
vn 0.68835651874542 -0.72535717487335 0.00471883732826
vn -0.62164944410324 0.34457606077194 0.70343393087387
# 118 normals

vt 0.149827003479 0.48241806030273 0
vt 0.149827003479 0.48221600055695 0
vt 0.15449799597263 0.48221600055695 0
vt 0.88637101650238 0.82274198532104 0
vt 0.88637101650238 0.81922101974487 0
vt 0.88959699869156 0.81922101974487 0
vt 0.73056298494339 0.78364503383636 0
vt 0.73056298494339 0.78344404697418 0
vt 0.7352340221405 0.78344404697418 0
vt 0.17857299745083 0.77337098121643 0
vt 0.17847000062466 0.77337098121643 0
vt 0.17847000062466 0.77447700500488 0
vt 0.68807101249695 0.1878000497818 0
vt 0.68807101249695 0.18759799003601 0
vt 0.69274097681046 0.18759799003601 0
vt 0.45577600598335 0.49752604961395 0
vt 0.45577600598335 0.49732398986816 0
vt 0.46044701337814 0.49732398986816 0
vt 0.63707900047302 0.49469399452209 0
vt 0.63707900047302 0.4944920539856 0
vt 0.64174997806549 0.4944920539856 0
vt 0.17854300141335 0.77363300323486 0
vt 0.35379299521446 0.1386970281601 0
vt 0.35379299521446 0.1384950876236 0
vt 0.35846400260925 0.1384950876236 0
vt 0.11960999667644 0.78459000587463 0
vt 0.11960999667644 0.78438800573349 0
vt 0.12427999824286 0.78438800573349 0
# 28 texture coordinates

o ungrouped_1
usemtl spider
f 1/3/3 2/2/2 3/1/1
f 6/6/6 5/5/5 4/4/4
f 8/3/8 7/2/7 6/1/6
f 60/3/11 78/2/10 69/1/9
f 69/3/9 42/2/13 25/1/12
f 9/3/14 4/2/4 7/1/7
f 8/3/8 6/2/6 11/1/15
f 11/9/15 15/8/17 14/7/16
f 7/6/7 17/5/19 16/4/18
f 7/3/7 16/2/18 18/1/20
f 20/9/23 19/8/22 12/7/21
f 35/12/26 40/11/25 105/10/24
f 22/15/27 7/14/7 18/13/20
f 9/15/14 7/14/7 22/13/27
f 60/3/11 26/2/28 78/1/10
f 112/12/29 35/11/26 105/10/24
f 11/3/15 33/2/30 12/1/21
f 12/3/21 8/2/8 11/1/15
f 42/3/13 60/2/11 3/1/1
f 3/3/1 60/2/11 69/1/9
f 78/3/10 42/2/13 69/1/9
f 3/3/1 27/2/31 25/1/12
f 3/15/1 29/14/32 27/13/31
f 31/15/34 29/14/32 30/13/33
f 25/3/12 31/2/34 30/1/33
f 32/3/35 12/2/21 33/1/30
f 16/3/18 20/2/23 18/1/20
f 18/3/20 20/2/23 12/1/21
f 1/3/3 34/2/37 24/1/36
f 1/3/3 36/2/38 33/1/30
f 117/3/41 28/2/40 37/1/39
f 15/9/17 38/8/42 14/7/16
f 2/3/2 33/2/30 39/1/43
f 39/3/43 33/2/30 11/1/15
f 28/3/40 86/2/45 21/1/44
f 29/15/32 2/14/2 39/13/43
f 21/3/44 37/2/39 34/1/37
f 32/15/35 39/14/43 22/13/27
f 32/15/35 43/14/46 29/13/32
f 91/12/49 92/11/48 99/10/47
f 46/3/52 45/2/51 44/1/50
f 48/3/54 47/2/53 44/1/50
f 48/3/54 50/2/56 49/1/55
f 2/3/2 10/2/57 33/1/30
f 55/15/60 54/14/59 53/13/58
f 13/3/62 67/2/61 10/1/57
f 45/18/51 58/17/63 48/16/54
f 56/18/64 50/17/56 48/16/54
f 56/18/64 51/17/65 50/16/56
f 104/12/66 91/11/49 99/10/47
f 57/3/69 41/2/68 61/1/67
f 63/21/70 58/20/63 45/19/51
f 78/3/10 65/2/71 42/1/13
f 37/3/39 28/2/40 3/1/1
f 67/3/61 2/2/2 1/1/3
f 65/3/71 60/2/11 42/1/13
f 70/18/72 63/17/70 45/16/51
f 70/18/72 68/17/73 56/16/64
f 68/18/73 66/17/74 56/16/64
f 31/15/34 54/14/59 71/13/75
f 46/15/52 62/14/77 72/13/76
f 72/3/76 53/2/58 70/1/72
f 54/3/59 68/2/73 70/1/72
f 23/22/80 64/22/79 79/22/78
f 69/3/9 25/2/12 34/1/37
f 44/15/50 75/14/82 74/13/81
f 72/15/76 55/14/60 53/13/58
f 55/15/60 71/14/75 54/13/59
f 54/3/59 31/2/34 66/1/74
f 71/25/75 27/24/31 31/23/34
f 62/15/77 76/14/83 72/13/76
f 76/28/83 77/27/84 55/26/60
f 3/3/1 69/2/9 34/1/37
f 46/3/52 72/2/76 45/1/51
f 3/3/1 28/2/40 21/1/44
f 76/28/83 62/27/77 74/26/81
f 21/3/44 34/2/37 1/1/3
f 59/28/85 71/27/75 77/26/84
f 77/28/84 71/27/75 55/26/60
f 71/25/75 59/24/85 27/23/31
f 62/15/77 44/14/50 74/13/81
f 75/28/82 77/27/84 74/26/81
f 42/3/13 3/2/1 25/1/12
f 61/3/67 41/2/68 13/1/62
f 74/28/81 77/27/84 76/26/83
f 76/15/83 55/14/60 72/13/76
f 44/15/50 47/14/53 75/13/82
f 49/15/55 59/14/85 75/13/82
f 51/3/65 27/2/31 49/1/55
f 59/15/85 49/14/55 27/13/31
f 31/3/34 25/2/12 66/1/74
f 66/18/74 25/17/12 56/16/64
f 3/3/1 21/2/44 1/1/3
f 56/18/64 25/17/12 51/16/65
f 51/3/65 25/2/12 27/1/31
f 37/3/39 3/2/1 34/1/37
f 63/21/70 56/20/64 58/19/63
f 62/15/77 46/14/52 44/13/50
f 65/3/71 26/2/28 60/1/11
f 104/12/66 99/11/47 92/10/48
f 70/18/72 56/17/64 63/16/70
f 58/18/63 56/17/64 48/16/54
f 13/3/62 57/2/69 67/1/61
f 75/28/82 59/27/85 77/26/84
f 72/3/76 70/2/72 45/1/51
f 45/3/51 48/2/54 44/1/50
f 48/3/54 49/2/55 47/1/53
f 50/3/56 51/2/65 49/1/55
f 112/12/29 105/11/24 40/10/25
f 47/15/53 49/14/55 75/13/82
f 53/3/58 54/2/59 70/1/72
f 54/3/59 66/2/74 68/1/73
f 17/6/19 8/5/8 16/4/18
f 5/6/5 7/5/7 4/4/4
f 5/6/5 6/5/6 7/4/7
f 17/6/19 7/5/7 8/4/8
f 11/3/15 14/2/16 9/1/14
f 80/9/86 16/8/18 8/7/8
f 20/9/23 80/8/86 19/7/22
f 9/3/14 39/2/43 11/1/15
f 86/3/45 117/2/41 37/1/39
f 117/3/41 118/2/87 28/1/40
f 1/3/3 24/2/36 36/1/38
f 34/3/37 25/2/12 24/1/36
f 28/3/40 118/2/87 86/1/45
f 22/15/27 39/14/43 9/13/14
f 29/15/32 3/14/1 2/13/2
f 86/3/45 37/2/39 21/1/44
f 19/9/22 80/8/86 12/7/21
f 6/9/6 38/8/42 11/7/15
f 33/3/30 43/2/46 32/1/35
f 18/3/20 12/2/21 32/1/35
f 18/15/20 32/14/35 22/13/27
f 32/15/35 29/14/32 39/13/43
f 43/15/46 30/14/33 29/13/32
f 29/15/32 31/14/34 27/13/31
f 38/9/42 4/8/4 14/7/16
f 14/3/16 4/2/4 9/1/14
f 38/9/42 6/8/6 4/7/4
f 38/9/42 15/8/17 11/7/15
f 20/9/23 16/8/18 80/7/86
f 80/9/86 8/8/8 12/7/21
f 30/3/33 43/2/46 36/1/38
f 81/3/90 82/2/89 83/1/88
f 84/3/92 85/2/91 82/1/89
f 25/3/12 81/2/90 84/1/92
f 87/12/95 88/11/94 89/10/93
f 90/12/96 87/11/95 89/10/93
f 30/3/33 82/2/89 81/1/90
f 84/3/92 82/2/89 30/1/33
f 24/3/36 25/2/12 84/1/92
f 24/3/36 84/2/92 30/1/33
f 25/3/12 30/2/33 81/1/90
f 90/12/96 89/11/93 88/10/94
f 81/3/90 83/2/88 85/1/91
f 82/3/89 93/2/97 83/1/88
f 85/3/91 93/2/97 82/1/89
f 84/3/92 81/2/90 85/1/91
f 94/3/100 95/2/99 96/1/98
f 97/3/102 98/2/101 95/1/99
f 36/3/38 94/2/100 97/1/102
f 100/22/105 101/22/104 102/22/103
f 103/22/106 100/22/105 102/22/103
f 43/3/46 95/2/99 94/1/100
f 97/3/102 95/2/99 43/1/46
f 33/3/30 36/2/38 97/1/102
f 33/3/30 97/2/102 43/1/46
f 36/3/38 43/2/46 94/1/100
f 103/22/106 102/22/103 101/22/104
f 94/3/100 96/2/98 98/1/101
f 95/3/99 106/2/107 96/1/98
f 98/3/101 106/2/107 95/1/99
f 97/3/102 94/2/100 98/1/101
f 107/3/110 108/2/109 109/1/108
f 110/3/112 111/2/111 108/1/109
f 24/3/36 107/2/110 110/1/112
f 113/12/115 114/11/114 115/10/113
f 116/12/116 113/11/115 115/10/113
f 30/3/33 108/2/109 107/1/110
f 110/3/112 108/2/109 30/1/33
f 36/3/38 24/2/36 110/1/112
f 36/3/38 110/2/112 30/1/33
f 24/3/36 30/2/33 107/1/110
f 116/12/116 115/11/113 114/10/114
f 107/3/110 109/2/108 111/1/111
f 108/3/109 52/2/117 109/1/108
f 111/3/111 52/2/117 108/1/109
f 110/3/112 107/2/110 111/1/111
f 57/3/69 61/2/67 67/1/61
f 61/3/67 13/2/62 10/1/57
f 10/3/57 67/2/61 1/1/3
f 73/22/118 79/22/78 64/22/79
f 23/22/80 73/22/118 64/22/79
f 67/3/61 61/2/67 2/1/2
f 2/3/2 61/2/67 10/1/57
f 10/3/57 1/2/3 33/1/30

