# Blender v2.79 (sub 0) OBJ File: 'minecraft.blend'
# www.blender.org
mtllib steve.mtl
o Cube_Cube.001
v -1.000000 6.000000 -1.000000
v -1.000000 8.000000 -1.000000
v 1.000000 6.000000 -1.000000
v 1.000000 8.000000 -1.000000
v -1.000000 6.000000 1.000000
v -1.000000 8.000000 1.000000
v 1.000000 6.000000 1.000000
v 1.000000 8.000000 1.000000
v -0.500000 3.000000 -1.000000
v -0.500000 6.000000 -1.000000
v 0.500000 3.000000 -1.000000
v 0.500000 6.000000 -1.000000
v -0.500000 3.000000 1.000000
v -0.500000 6.000000 1.000000
v 0.500000 3.000000 1.000000
v 0.500000 6.000000 1.000000
v 1.265768 3.286896 1.000000
v -0.705450 5.548378 1.000000
v 2.019595 3.943968 1.000000
v 0.048377 6.205450 1.000000
v 1.265768 3.286896 2.000000
v -0.705450 5.548378 2.000000
v 2.019595 3.943968 2.000000
v 0.048377 6.205451 2.000000
v -2.019595 3.943968 -2.000000
v -0.048377 6.205451 -2.000000
v -1.265768 3.286896 -2.000000
v 0.705450 5.548378 -2.000000
v -2.019595 3.943968 -1.000000
v -0.048377 6.205450 -1.000000
v -1.265768 3.286896 -1.000000
v 0.705450 5.548378 -1.000000
v -2.348132 1.067055 0.000000
v -0.376914 3.328537 0.000000
v -1.594305 0.409982 -0.000000
v 0.376914 2.671464 0.000000
v -2.348132 1.067054 1.000000
v -0.376914 3.328537 1.000000
v -1.594305 0.409982 1.000000
v 0.376914 2.671464 1.000000
v 1.594305 0.409982 -1.000000
v -0.376914 2.671464 -1.000000
v 2.348132 1.067054 -1.000000
v 0.376914 3.328537 -1.000000
v 1.594305 0.409982 0.000000
v -0.376914 2.671464 -0.000000
v 2.348132 1.067055 -0.000000
v 0.376914 3.328537 -0.000000
vt 0.375000 0.750000
vt 0.375000 0.875000
vt 0.250000 0.875000
vt 0.250000 0.750000
vt 0.125000 0.875000
vt 0.125000 0.750000
vt -0.000000 0.875000
vt -0.000000 0.750000
vt 0.500000 0.750000
vt 0.500000 0.875000
vt 0.375000 1.000000
vt 0.250000 1.000000
vt 0.250000 0.875000
vt 0.375000 0.875000
vt 0.250000 1.000000
vt 0.125000 1.000000
vt 0.500000 0.500000
vt 0.500000 0.687500
vt 0.437500 0.687500
vt 0.437500 0.500000
vt 0.312500 0.687500
vt 0.312500 0.500000
vt 0.250000 0.687500
vt 0.250000 0.500000
vt 0.625000 0.500000
vt 0.625000 0.687500
vt 0.500000 0.750000
vt 0.437500 0.750000
vt 0.437500 0.687500
vt 0.500000 0.687500
vt 0.437500 0.750000
vt 0.312500 0.750000
vt 0.812500 0.500000
vt 0.812500 0.687500
vt 0.750000 0.687500
vt 0.750000 0.500000
vt 0.687500 0.687500
vt 0.687500 0.500000
vt 0.625000 0.687500
vt 0.625000 0.500000
vt 0.875000 0.500000
vt 0.875000 0.687500
vt 0.812500 0.750000
vt 0.750000 0.750000
vt 0.750000 0.687500
vt 0.812500 0.687500
vt 0.750000 0.750000
vt 0.687500 0.750000
vt 0.812500 0.500000
vt 0.812500 0.687500
vt 0.750000 0.687500
vt 0.750000 0.500000
vt 0.687500 0.687500
vt 0.687500 0.500000
vt 0.625000 0.687500
vt 0.625000 0.500000
vt 0.875000 0.500000
vt 0.875000 0.687500
vt 0.812500 0.750000
vt 0.750000 0.750000
vt 0.750000 0.687500
vt 0.812500 0.687500
vt 0.750000 0.750000
vt 0.687500 0.750000
vt 0.187500 0.500000
vt 0.187500 0.687500
vt 0.125000 0.687500
vt 0.125000 0.500000
vt 0.062500 0.687500
vt 0.062500 0.500000
vt 0.000000 0.687500
vt 0.000000 0.500000
vt 0.250000 0.500000
vt 0.250000 0.687500
vt 0.187500 0.750000
vt 0.125000 0.750000
vt 0.125000 0.687500
vt 0.187500 0.687500
vt 0.125000 0.750000
vt 0.062500 0.750000
vt 0.187500 0.500000
vt 0.187500 0.687500
vt 0.125000 0.687500
vt 0.125000 0.500000
vt 0.062500 0.687500
vt 0.062500 0.500000
vt 0.000000 0.687500
vt 0.000000 0.500000
vt 0.250000 0.500000
vt 0.250000 0.687500
vt 0.187500 0.750000
vt 0.125000 0.750000
vt 0.125000 0.687500
vt 0.187500 0.687500
vt 0.125000 0.750000
vt 0.062500 0.750000
vn -0.0000 0.0000 -1.0000
vn 1.0000 0.0000 -0.0000
vn 0.0000 0.0000 1.0000
vn -1.0000 0.0000 0.0000
vn 0.0000 -1.0000 0.0000
vn 0.0000 1.0000 0.0000
vn 0.7538 0.6571 -0.0000
vn -0.7538 -0.6571 0.0000
vn 0.6571 -0.7538 0.0000
vn -0.6571 0.7538 0.0000
vn 0.7538 -0.6571 0.0000
vn -0.7538 0.6571 0.0000
vn -0.6571 -0.7538 0.0000
vn 0.6571 0.7538 0.0000
usemtl Material.001
s off
f 1/1/1 2/2/1 4/3/1 3/4/1
f 3/4/2 4/3/2 8/5/2 7/6/2
f 7/6/3 8/5/3 6/7/3 5/8/3
f 5/9/4 6/10/4 2/2/4 1/1/4
f 3/11/5 7/12/5 5/13/5 1/14/5
f 8/5/6 4/3/6 2/15/6 6/16/6
f 9/17/1 10/18/1 12/19/1 11/20/1
f 11/20/2 12/19/2 16/21/2 15/22/2
f 15/22/3 16/21/3 14/23/3 13/24/3
f 13/25/4 14/26/4 10/18/4 9/17/4
f 11/27/5 15/28/5 13/29/5 9/30/5
f 16/21/6 12/19/6 10/31/6 14/32/6
f 17/33/1 18/34/1 20/35/1 19/36/1
f 19/36/7 20/35/7 24/37/7 23/38/7
f 23/38/3 24/37/3 22/39/3 21/40/3
f 21/41/8 22/42/8 18/34/8 17/33/8
f 19/43/9 23/44/9 21/45/9 17/46/9
f 24/37/10 20/35/10 18/47/10 22/48/10
f 25/49/1 26/50/1 28/51/1 27/52/1
f 27/52/11 28/51/11 32/53/11 31/54/11
f 31/54/3 32/53/3 30/55/3 29/56/3
f 29/57/12 30/58/12 26/50/12 25/49/12
f 27/59/13 31/60/13 29/61/13 25/62/13
f 32/53/14 28/51/14 26/63/14 30/64/14
f 33/65/1 34/66/1 36/67/1 35/68/1
f 35/68/11 36/67/11 40/69/11 39/70/11
f 39/70/3 40/69/3 38/71/3 37/72/3
f 37/73/12 38/74/12 34/66/12 33/65/12
f 35/75/13 39/76/13 37/77/13 33/78/13
f 40/69/14 36/67/14 34/79/14 38/80/14
f 41/81/1 42/82/1 44/83/1 43/84/1
f 43/84/7 44/83/7 48/85/7 47/86/7
f 47/86/3 48/85/3 46/87/3 45/88/3
f 45/89/8 46/90/8 42/82/8 41/81/8
f 43/91/9 47/92/9 45/93/9 41/94/9
f 48/85/10 44/83/10 42/95/10 46/96/10
