# WaveFront *.obj file (generated by CINEMA 4D)

v -0.76999998092651 0 0.14822499454021
v 0 1.53999996185303 0.14822499454021
v 0.76999998092651 0 0.14822499454021
v -0.38499999046326 0.76999998092651 0.14822499454021
v 0.38499999046326 0.76999998092651 0.14822499454021
v 0 0 0.14822499454021
v -0.76999998092651 0 -0.14822499454021
v 0 0 -0.14822499454021
v -0.38499999046326 0.76999998092651 -0.14822499454021
v 0 1.53999996185303 -0.14822499454021
v 0.38499999046326 0.76999998092651 -0.14822499454021
v 0.76999998092651 0 -0.14822499454021
v -0.38499999046326 0 0.14822499454021
v -0.19249999523163 0.38499999046326 0.14822499454021
v -0.57749998569489 0.38499999046326 0.14822499454021
v 0 0.76999998092651 0.14822499454021
v 0.19249999523163 1.15499997138977 0.14822499454021
v -0.19249999523163 1.15499997138977 0.14822499454021
v 0.38499999046326 0 0.14822499454021
v 0.57749998569489 0.38499999046326 0.14822499454021
v 0.19249999523163 0.38499999046326 0.14822499454021
v -0.57749998569489 0.38499999046326 -0.14822499454021
v -0.19249999523163 0.38499999046326 -0.14822499454021
v -0.38499999046326 0 -0.14822499454021
v -0.19249999523163 1.15499997138977 -0.14822499454021
v 0.19249999523163 1.15499997138977 -0.14822499454021
v 0 0.76999998092651 -0.14822499454021
v 0.19249999523163 0.38499999046326 -0.14822499454021
v 0.57749998569489 0.38499999046326 -0.14822499454021
v 0.38499999046326 0 -0.14822499454021
v -0.76999998092651 0 0
v -0.38499999046326 0.76999998092651 0
v 0 0 0
v 0 1.53999996185303 0
v 0.38499999046326 0.76999998092651 0
v 0.76999998092651 0 0
v -0.57749998569489 0.38499999046326 0
v -0.19249999523163 0.38499999046326 0
v -0.38499999046326 0 0
v -0.19249999523163 1.15499997138977 0
v 0.19249999523163 1.15499997138977 0
v 0 0.76999998092651 0
v 0.19249999523163 0.38499999046326 0
v 0.57749998569489 0.38499999046326 0
v 0.38499999046326 0 0
v -0.57749998569489 0 0.14822499454021
v -0.48124998807907 0.19249999523163 0.14822499454021
v -0.6737499833107 0.19249999523163 0.14822499454021
v -0.19249999523163 0 0.14822499454021
v -0.09624999761581 0.19249999523163 0.14822499454021
v -0.28874999284744 0.19249999523163 0.14822499454021
v -0.28874999284744 0.57749998569489 0.14822499454021
v -0.48124998807907 0.57749998569489 0.14822499454021
v -0.38499999046326 0.38499999046326 0.14822499454021
v -0.19249999523163 0.76999998092651 0.14822499454021
v -0.09624999761581 0.96249997615814 0.14822499454021
v -0.28874999284744 0.96249997615814 0.14822499454021
v 0.19249999523163 0.76999998092651 0.14822499454021
v 0.28874999284744 0.96249997615814 0.14822499454021
v 0.09624999761581 0.96249997615814 0.14822499454021
v 0.09624999761581 1.3474999666214 0.14822499454021
v -0.09624999761581 1.3474999666214 0.14822499454021
v 0 1.15499997138977 0.14822499454021
v 0.19249999523163 0 0.14822499454021
v 0.28874999284744 0.19249999523163 0.14822499454021
v 0.09624999761581 0.19249999523163 0.14822499454021
v 0.57749998569489 0 0.14822499454021
v 0.6737499833107 0.19249999523163 0.14822499454021
v 0.48124998807907 0.19249999523163 0.14822499454021
v 0.48124998807907 0.57749998569489 0.14822499454021
v 0.28874999284744 0.57749998569489 0.14822499454021
v 0.38499999046326 0.38499999046326 0.14822499454021
v -0.6737499833107 0.19249999523163 -0.14822499454021
v -0.48124998807907 0.19249999523163 -0.14822499454021
v -0.57749998569489 0 -0.14822499454021
v -0.48124998807907 0.57749998569489 -0.14822499454021
v -0.28874999284744 0.57749998569489 -0.14822499454021
v -0.38499999046326 0.38499999046326 -0.14822499454021
v -0.09624999761581 0.19249999523163 -0.14822499454021
v -0.19249999523163 0 -0.14822499454021
v -0.28874999284744 0.19249999523163 -0.14822499454021
v -0.28874999284744 0.96249997615814 -0.14822499454021
v -0.09624999761581 0.96249997615814 -0.14822499454021
v -0.19249999523163 0.76999998092651 -0.14822499454021
v -0.09624999761581 1.3474999666214 -0.14822499454021
v 0.09624999761581 1.3474999666214 -0.14822499454021
v 0 1.15499997138977 -0.14822499454021
v 0.28874999284744 0.96249997615814 -0.14822499454021
v 0.19249999523163 0.76999998092651 -0.14822499454021
v 0.09624999761581 0.96249997615814 -0.14822499454021
v 0.09624999761581 0.19249999523163 -0.14822499454021
v 0.28874999284744 0.19249999523163 -0.14822499454021
v 0.19249999523163 0 -0.14822499454021
v 0.28874999284744 0.57749998569489 -0.14822499454021
v 0.48124998807907 0.57749998569489 -0.14822499454021
v 0.38499999046326 0.38499999046326 -0.14822499454021
v 0.6737499833107 0.19249999523163 -0.14822499454021
v 0.57749998569489 0 -0.14822499454021
v 0.48124998807907 0.19249999523163 -0.14822499454021
v -0.76999998092651 0 -0.07411249727011
v -0.6737499833107 0.19249999523163 0
v -0.57749998569489 0.38499999046326 -0.07411249727011
v -0.76999998092651 0 0.07411249727011
v -0.57749998569489 0.38499999046326 0.07411249727011
v -0.38499999046326 0.76999998092651 0.07411249727011
v -0.48124998807907 0.57749998569489 0
v -0.38499999046326 0.76999998092651 -0.07411249727011
v -0.28874999284744 0.57749998569489 0
v -0.19249999523163 0.38499999046326 -0.07411249727011
v -0.19249999523163 0.38499999046326 0.07411249727011
v 0 0 0.07411249727011
v -0.09624999761581 0.19249999523163 0
v 0 0 -0.07411249727011
v -0.19249999523163 0 0
v -0.38499999046326 0 -0.07411249727011
v -0.38499999046326 0 0.07411249727011
v -0.57749998569489 0 0
v -0.28874999284744 0.96249997615814 0
v -0.19249999523163 1.15499997138977 -0.07411249727011
v -0.19249999523163 1.15499997138977 0.07411249727011
v 0 1.53999996185303 0.07411249727011
v -0.09624999761581 1.3474999666214 0
v 0 1.53999996185303 -0.07411249727011
v 0.09624999761581 1.3474999666214 0
v 0.19249999523163 1.15499997138977 -0.07411249727011
v 0.19249999523163 1.15499997138977 0.07411249727011
v 0.38499999046326 0.76999998092651 0.07411249727011
v 0.28874999284744 0.96249997615814 0
v 0.38499999046326 0.76999998092651 -0.07411249727011
v 0.19249999523163 0.76999998092651 0
v 0 0.76999998092651 -0.07411249727011
v 0 0.76999998092651 0.07411249727011
v -0.19249999523163 0.76999998092651 0
v 0.09624999761581 0.19249999523163 0
v 0.19249999523163 0.38499999046326 -0.07411249727011
v 0.19249999523163 0.38499999046326 0.07411249727011
v 0.28874999284744 0.57749998569489 0
v 0.48124998807907 0.57749998569489 0
v 0.57749998569489 0.38499999046326 -0.07411249727011
v 0.57749998569489 0.38499999046326 0.07411249727011
v 0.76999998092651 0 0.07411249727011
v 0.6737499833107 0.19249999523163 0
v 0.76999998092651 0 -0.07411249727011
v 0.57749998569489 0 0
v 0.38499999046326 0 -0.07411249727011
v 0.38499999046326 0 0.07411249727011
v 0.19249999523163 0 0
v -0.6737499833107 0.19249999523163 -0.07411249727011
v -0.6737499833107 0.19249999523163 0.07411249727011
v -0.48124998807907 0.57749998569489 0.07411249727011
v -0.48124998807907 0.57749998569489 -0.07411249727011
v -0.28874999284744 0.57749998569489 -0.07411249727011
v -0.28874999284744 0.57749998569489 0.07411249727011
v -0.09624999761581 0.19249999523163 0.07411249727011
v -0.09624999761581 0.19249999523163 -0.07411249727011
v -0.19249999523163 0 -0.07411249727011
v -0.19249999523163 0 0.07411249727011
v -0.57749998569489 0 0.07411249727011
v -0.57749998569489 0 -0.07411249727011
v -0.28874999284744 0.96249997615814 -0.07411249727011
v -0.28874999284744 0.96249997615814 0.07411249727011
v -0.09624999761581 1.3474999666214 0.07411249727011
v -0.09624999761581 1.3474999666214 -0.07411249727011
v 0.09624999761581 1.3474999666214 -0.07411249727011
v 0.09624999761581 1.3474999666214 0.07411249727011
v 0.28874999284744 0.96249997615814 0.07411249727011
v 0.28874999284744 0.96249997615814 -0.07411249727011
v 0.19249999523163 0.76999998092651 -0.07411249727011
v 0.19249999523163 0.76999998092651 0.07411249727011
v -0.19249999523163 0.76999998092651 0.07411249727011
v -0.19249999523163 0.76999998092651 -0.07411249727011
v 0.09624999761581 0.19249999523163 -0.07411249727011
v 0.09624999761581 0.19249999523163 0.07411249727011
v 0.28874999284744 0.57749998569489 0.07411249727011
v 0.28874999284744 0.57749998569489 -0.07411249727011
v 0.48124998807907 0.57749998569489 -0.07411249727011
v 0.48124998807907 0.57749998569489 0.07411249727011
v 0.6737499833107 0.19249999523163 0.07411249727011
v 0.6737499833107 0.19249999523163 -0.07411249727011
v 0.57749998569489 0 -0.07411249727011
v 0.57749998569489 0 0.07411249727011
v 0.19249999523163 0 0.07411249727011
v 0.19249999523163 0 -0.07411249727011
# 183 vertices

vn -0.61639606952667 -0.38095372915268 0.68915176391602
vn 0 -0.55470019578934 0.83205032348633
vn -0.49613893032074 0.24806946516037 0.83205032348633
vn 0 0 0
vn 0 0 1
vn 0.61639606952667 -0.38095372915268 0.68915176391602
vn 0.49613893032074 0.24806946516037 0.83205032348633
vn 0 0.66666668653488 0.74535602331162
vn -0.61639606952667 -0.38095372915268 -0.68915176391602
vn -0.49613893032074 0.24806946516037 -0.83205032348633
vn 0 -0.55470019578934 -0.83205032348633
vn 0 0 -1
vn 0 0.66666668653488 -0.74535602331162
vn 0.49613893032074 0.24806946516037 -0.83205032348633
vn 0.61639606952667 -0.38095372915268 -0.68915176391602
vn -0.85065078735352 -0.5257311463356 0
vn -0.89442718029022 0.44721359014511 0
vn 0 1 0
vn 0.89442718029022 0.44721359014511 0
vn 0.85065078735352 -0.5257311463356 0
vn 0 -1 0
# 21 normals

vt 0 0 0
vt 0.125 0 0
vt 0.0625 0.125 0
vt 0.25 0 0
vt 0.1875 0.125 0
vt 0.125 0.25 0
vt 0.375 0 0
vt 0.3125 0.125 0
vt 0.5 0 0
vt 0.4375 0.125 0
vt 0.375 0.25 0
vt 0.3125 0.375 0
vt 0.25 0.25 0
vt 0.25 0.5 0
vt 0.1875 0.375 0
vt 0.375 0.5 0
vt 0.3125 0.625 0
vt 0.5 0.5 0
vt 0.4375 0.625 0
vt 0.375 0.75 0
vt 0.625 0.5 0
vt 0.5625 0.625 0
vt 0.75 0.5 0
vt 0.6875 0.625 0
vt 0.625 0.75 0
vt 0.5625 0.875 0
vt 0.5 0.75 0
vt 0.5 1 0
vt 0.4375 0.875 0
vt 0.625 0 0
vt 0.5625 0.125 0
vt 0.75 0 0
vt 0.6875 0.125 0
vt 0.625 0.25 0
vt 0.875 0 0
vt 0.8125 0.125 0
vt 1 0 0
vt 0.9375 0.125 0
vt 0.875 0.25 0
vt 0.8125 0.375 0
vt 0.75 0.25 0
vt 0.6875 0.375 0
# 42 texture coordinates

o Polygon
usemtl default
f 1/1/1 46/2/2 48/3/3
f 46/2/2 13/4/2 47/5/5
f 47/5/5 15/6/3 48/3/3
f 46/2/2 47/5/5 48/3/3
f 13/4/2 49/7/2 51/8/5
f 49/7/2 6/9/6 50/10/7
f 50/10/7 14/11/7 51/8/5
f 49/7/2 50/10/7 51/8/5
f 14/11/7 52/12/7 54/13/5
f 52/12/7 4/14/8 53/15/3
f 53/15/3 15/6/3 54/13/5
f 52/12/7 53/15/3 54/13/5
f 13/4/2 51/8/5 47/5/5
f 51/8/5 14/11/7 54/13/5
f 54/13/5 15/6/3 47/5/5
f 51/8/5 54/13/5 47/5/5
f 4/14/1 55/16/2 57/17/3
f 55/16/2 16/18/2 56/19/5
f 56/19/5 18/20/3 57/17/3
f 55/16/2 56/19/5 57/17/3
f 16/18/2 58/21/2 60/22/5
f 58/21/2 5/23/6 59/24/7
f 59/24/7 17/25/7 60/22/5
f 58/21/2 59/24/7 60/22/5
f 17/25/7 61/26/7 63/27/5
f 61/26/7 2/28/8 62/29/3
f 62/29/3 18/20/3 63/27/5
f 61/26/7 62/29/3 63/27/5
f 16/18/2 60/22/5 56/19/5
f 60/22/5 17/25/7 63/27/5
f 63/27/5 18/20/3 56/19/5
f 60/22/5 63/27/5 56/19/5
f 6/9/1 64/30/2 66/31/3
f 64/30/2 19/32/2 65/33/5
f 65/33/5 21/34/3 66/31/3
f 64/30/2 65/33/5 66/31/3
f 19/32/2 67/35/2 69/36/5
f 67/35/2 3/37/6 68/38/7
f 68/38/7 20/39/7 69/36/5
f 67/35/2 68/38/7 69/36/5
f 20/39/7 70/40/7 72/41/5
f 70/40/7 5/23/8 71/42/3
f 71/42/3 21/34/3 72/41/5
f 70/40/7 71/42/3 72/41/5
f 19/32/2 69/36/5 65/33/5
f 69/36/5 20/39/7 72/41/5
f 72/41/5 21/34/3 65/33/5
f 69/36/5 72/41/5 65/33/5
f 7/1/9 73/3/10 75/2/11
f 73/3/10 22/6/10 74/5/12
f 74/5/12 24/4/11 75/2/11
f 73/3/10 74/5/12 75/2/11
f 22/6/10 76/15/10 78/13/12
f 76/15/10 9/14/13 77/12/14
f 77/12/14 23/11/14 78/13/12
f 76/15/10 77/12/14 78/13/12
f 23/11/14 79/10/14 81/8/12
f 79/10/14 8/9/15 80/7/11
f 80/7/11 24/4/11 81/8/12
f 79/10/14 80/7/11 81/8/12
f 22/6/10 78/13/12 74/5/12
f 78/13/12 23/11/14 81/8/12
f 81/8/12 24/4/11 74/5/12
f 78/13/12 81/8/12 74/5/12
f 9/14/9 82/17/10 84/16/11
f 82/17/10 25/20/10 83/19/12
f 83/19/12 27/18/11 84/16/11
f 82/17/10 83/19/12 84/16/11
f 25/20/10 85/29/10 87/27/12
f 85/29/10 10/28/13 86/26/14
f 86/26/14 26/25/14 87/27/12
f 85/29/10 86/26/14 87/27/12
f 26/25/14 88/24/14 90/22/12
f 88/24/14 11/23/15 89/21/11
f 89/21/11 27/18/11 90/22/12
f 88/24/14 89/21/11 90/22/12
f 25/20/10 87/27/12 83/19/12
f 87/27/12 26/25/14 90/22/12
f 90/22/12 27/18/11 83/19/12
f 87/27/12 90/22/12 83/19/12
f 8/9/9 91/31/10 93/30/11
f 91/31/10 28/34/10 92/33/12
f 92/33/12 30/32/11 93/30/11
f 91/31/10 92/33/12 93/30/11
f 28/34/10 94/42/10 96/41/12
f 94/42/10 11/23/13 95/40/14
f 95/40/14 29/39/14 96/41/12
f 94/42/10 95/40/14 96/41/12
f 29/39/14 97/38/14 99/36/12
f 97/38/14 12/37/15 98/35/11
f 98/35/11 30/32/11 99/36/12
f 97/38/14 98/35/11 99/36/12
f 28/34/10 96/41/12 92/33/12
f 96/41/12 29/39/14 99/36/12
f 99/36/12 30/32/11 92/33/12
f 96/41/12 99/36/12 92/33/12
f 7/1/9 100/1/16 148/3/17 73/3/10
f 100/1/16 31/1/16 101/3/17 148/3/17
f 148/3/17 101/3/17 37/6/17 102/6/17
f 73/3/10 148/3/17 102/6/17 22/6/10
f 31/1/16 103/1/16 149/3/17 101/3/17
f 103/1/16 1/1/1 48/3/3 149/3/17
f 149/3/17 48/3/3 15/6/3 104/6/17
f 101/3/17 149/3/17 104/6/17 37/6/17
f 37/6/17 104/6/17 150/15/17 106/15/17
f 104/6/17 15/6/3 53/15/3 150/15/17
f 150/15/17 53/15/3 4/14/8 105/14/18
f 106/15/17 150/15/17 105/14/18 32/14/18
f 22/6/10 102/6/17 151/15/17 76/15/10
f 102/6/17 37/6/17 106/15/17 151/15/17
f 151/15/17 106/15/17 32/14/18 107/14/18
f 76/15/10 151/15/17 107/14/18 9/14/13
f 9/14/13 107/14/18 152/12/19 77/12/14
f 107/14/18 32/14/18 108/12/19 152/12/19
f 152/12/19 108/12/19 38/11/19 109/11/19
f 77/12/14 152/12/19 109/11/19 23/11/14
f 32/14/18 105/14/18 153/12/19 108/12/19
f 105/14/18 4/14/8 52/12/7 153/12/19
f 153/12/19 52/12/7 14/11/7 110/11/19
f 108/12/19 153/12/19 110/11/19 38/11/19
f 38/11/19 110/11/19 154/10/19 112/10/19
f 110/11/19 14/11/7 50/10/7 154/10/19
f 154/10/19 50/10/7 6/9/6 111/9/20
f 112/10/19 154/10/19 111/9/20 33/9/20
f 23/11/14 109/11/19 155/10/19 79/10/14
f 109/11/19 38/11/19 112/10/19 155/10/19
f 155/10/19 112/10/19 33/9/20 113/9/20
f 79/10/14 155/10/19 113/9/20 8/9/15
f 8/9/15 113/9/20 156/7/21 80/7/11
f 113/9/20 33/9/20 114/7/21 156/7/21
f 156/7/21 114/7/21 39/4/21 115/4/21
f 80/7/11 156/7/21 115/4/21 24/4/11
f 33/9/20 111/9/20 157/7/21 114/7/21
f 111/9/20 6/9/6 49/7/2 157/7/21
f 157/7/21 49/7/2 13/4/2 116/4/21
f 114/7/21 157/7/21 116/4/21 39/4/21
f 39/4/21 116/4/21 158/2/21 117/2/21
f 116/4/21 13/4/2 46/2/2 158/2/21
f 158/2/21 46/2/2 1/1/1 103/1/16
f 117/2/21 158/2/21 103/1/16 31/1/16
f 24/4/11 115/4/21 159/2/21 75/2/11
f 115/4/21 39/4/21 117/2/21 159/2/21
f 159/2/21 117/2/21 31/1/16 100/1/16
f 75/2/11 159/2/21 100/1/16 7/1/9
f 9/14/9 107/14/16 160/17/17 82/17/10
f 107/14/16 32/14/16 118/17/17 160/17/17
f 160/17/17 118/17/17 40/20/17 119/20/17
f 82/17/10 160/17/17 119/20/17 25/20/10
f 32/14/16 105/14/16 161/17/17 118/17/17
f 105/14/16 4/14/1 57/17/3 161/17/17
f 161/17/17 57/17/3 18/20/3 120/20/17
f 118/17/17 161/17/17 120/20/17 40/20/17
f 40/20/17 120/20/17 162/29/17 122/29/17
f 120/20/17 18/20/3 62/29/3 162/29/17
f 162/29/17 62/29/3 2/28/8 121/28/18
f 122/29/17 162/29/17 121/28/18 34/28/18
f 25/20/10 119/20/17 163/29/17 85/29/10
f 119/20/17 40/20/17 122/29/17 163/29/17
f 163/29/17 122/29/17 34/28/18 123/28/18
f 85/29/10 163/29/17 123/28/18 10/28/13
f 10/28/13 123/28/18 164/26/19 86/26/14
f 123/28/18 34/28/18 124/26/19 164/26/19
f 164/26/19 124/26/19 41/25/19 125/25/19
f 86/26/14 164/26/19 125/25/19 26/25/14
f 34/28/18 121/28/18 165/26/19 124/26/19
f 121/28/18 2/28/8 61/26/7 165/26/19
f 165/26/19 61/26/7 17/25/7 126/25/19
f 124/26/19 165/26/19 126/25/19 41/25/19
f 41/25/19 126/25/19 166/24/19 128/24/19
f 126/25/19 17/25/7 59/24/7 166/24/19
f 166/24/19 59/24/7 5/23/6 127/23/20
f 128/24/19 166/24/19 127/23/20 35/23/20
f 26/25/14 125/25/19 167/24/19 88/24/14
f 125/25/19 41/25/19 128/24/19 167/24/19
f 167/24/19 128/24/19 35/23/20 129/23/20
f 88/24/14 167/24/19 129/23/20 11/23/15
f 11/23/15 129/23/20 168/21/21 89/21/11
f 129/23/20 35/23/20 130/21/21 168/21/21
f 168/21/21 130/21/21 42/18/21 131/18/21
f 89/21/11 168/21/21 131/18/21 27/18/11
f 35/23/20 127/23/20 169/21/21 130/21/21
f 127/23/20 5/23/6 58/21/2 169/21/21
f 169/21/21 58/21/2 16/18/2 132/18/21
f 130/21/21 169/21/21 132/18/21 42/18/21
f 42/18/21 132/18/21 170/16/21 133/16/21
f 132/18/21 16/18/2 55/16/2 170/16/21
f 170/16/21 55/16/2 4/14/1 105/14/16
f 133/16/21 170/16/21 105/14/16 32/14/16
f 27/18/11 131/18/21 171/16/21 84/16/11
f 131/18/21 42/18/21 133/16/21 171/16/21
f 171/16/21 133/16/21 32/14/16 107/14/16
f 84/16/11 171/16/21 107/14/16 9/14/9
f 8/9/9 113/9/16 172/31/17 91/31/10
f 113/9/16 33/9/16 134/31/17 172/31/17
f 172/31/17 134/31/17 43/34/17 135/34/17
f 91/31/10 172/31/17 135/34/17 28/34/10
f 33/9/16 111/9/16 173/31/17 134/31/17
f 111/9/16 6/9/1 66/31/3 173/31/17
f 173/31/17 66/31/3 21/34/3 136/34/17
f 134/31/17 173/31/17 136/34/17 43/34/17
f 43/34/17 136/34/17 174/42/17 137/42/17
f 136/34/17 21/34/3 71/42/3 174/42/17
f 174/42/17 71/42/3 5/23/8 127/23/18
f 137/42/17 174/42/17 127/23/18 35/23/18
f 28/34/10 135/34/17 175/42/17 94/42/10
f 135/34/17 43/34/17 137/42/17 175/42/17
f 175/42/17 137/42/17 35/23/18 129/23/18
f 94/42/10 175/42/17 129/23/18 11/23/13
f 11/23/13 129/23/18 176/40/19 95/40/14
f 129/23/18 35/23/18 138/40/19 176/40/19
f 176/40/19 138/40/19 44/39/19 139/39/19
f 95/40/14 176/40/19 139/39/19 29/39/14
f 35/23/18 127/23/18 177/40/19 138/40/19
f 127/23/18 5/23/8 70/40/7 177/40/19
f 177/40/19 70/40/7 20/39/7 140/39/19
f 138/40/19 177/40/19 140/39/19 44/39/19
f 44/39/19 140/39/19 178/38/19 142/38/19
f 140/39/19 20/39/7 68/38/7 178/38/19
f 178/38/19 68/38/7 3/37/6 141/37/20
f 142/38/19 178/38/19 141/37/20 36/37/20
f 29/39/14 139/39/19 179/38/19 97/38/14
f 139/39/19 44/39/19 142/38/19 179/38/19
f 179/38/19 142/38/19 36/37/20 143/37/20
f 97/38/14 179/38/19 143/37/20 12/37/15
f 12/37/15 143/37/20 180/35/21 98/35/11
f 143/37/20 36/37/20 144/35/21 180/35/21
f 180/35/21 144/35/21 45/32/21 145/32/21
f 98/35/11 180/35/21 145/32/21 30/32/11
f 36/37/20 141/37/20 181/35/21 144/35/21
f 141/37/20 3/37/6 67/35/2 181/35/21
f 181/35/21 67/35/2 19/32/2 146/32/21
f 144/35/21 181/35/21 146/32/21 45/32/21
f 45/32/21 146/32/21 182/30/21 147/30/21
f 146/32/21 19/32/2 64/30/2 182/30/21
f 182/30/21 64/30/2 6/9/1 111/9/16
f 147/30/21 182/30/21 111/9/16 33/9/16
f 30/32/11 145/32/21 183/30/21 93/30/11
f 145/32/21 45/32/21 147/30/21 183/30/21
f 183/30/21 147/30/21 33/9/16 113/9/16
f 93/30/11 183/30/21 113/9/16 8/9/9

