ply
format ascii 1.0
comment Created by Blender 2.79 (sub 0) - www.blender.org, source file: ''
element vertex 490
property float x
property float y
property float z
property float nx
property float ny
property float nz
property float s
property float t
property uchar red
property uchar green
property uchar blue
element face 146
property list uchar uint vertex_indices
end_header
8.000000 -4.000000 0.000000 0.000000 0.000000 1.000000 0.250000 0.500000 255 255 255
8.000000 -5.000000 0.000000 0.000000 0.000000 1.000000 0.250000 0.250000 255 255 255
9.000000 -5.000000 0.000000 0.000000 0.000000 1.000000 0.500000 0.250000 255 255 255
9.000000 -9.000000 0.000000 0.632435 -0.632435 0.447188 0.500000 0.500000 255 255 255
8.000000 -9.000000 0.000000 0.000000 0.000000 1.000000 0.250000 0.500000 255 255 255
8.000000 -10.000000 0.000000 0.000000 0.000000 1.000000 0.250000 0.250000 255 255 255
0.000000 -8.000000 1.000000 1.000000 0.000000 0.000000 1.000000 0.250000 96 80 255
0.000000 -8.000000 2.000000 1.000000 0.000000 0.000000 1.000000 0.500000 128 128 255
0.000000 -9.000000 2.000000 1.000000 0.000000 0.000000 0.750000 0.500000 128 128 255
0.000000 -9.000000 1.000000 1.000000 0.000000 0.000000 0.750000 0.250000 96 80 255
2.000000 -4.000000 0.000000 0.000000 0.000000 1.000000 0.750000 0.250000 255 255 255
2.000000 -3.000000 0.000000 0.000000 0.000000 1.000000 0.750000 0.500000 255 255 255
1.000000 -4.000000 0.000000 0.000000 0.000000 1.000000 0.500000 0.250000 255 255 255
2.000000 -10.000000 0.000000 0.000000 0.000000 1.000000 0.750000 0.500000 255 255 255
1.000000 -10.000000 0.000000 -0.685965 -0.685965 0.242531 0.500000 0.500000 255 255 255
2.000000 -11.000000 0.000000 0.000000 0.000000 1.000000 0.750000 0.250000 255 255 255
5.000000 -3.000000 0.000000 0.000000 0.000000 1.000000 0.500000 0.250000 255 255 255
5.000000 -2.000000 0.000000 0.000000 0.000000 1.000000 0.500000 0.500000 255 255 255
4.000000 -2.000000 0.000000 0.000000 0.000000 1.000000 0.250000 0.500000 255 255 255
4.000000 -3.000000 0.000000 0.000000 0.000000 1.000000 0.250000 0.250000 255 255 255
4.000000 -10.000000 0.000000 0.000000 0.000000 1.000000 0.750000 0.500000 255 255 255
3.000000 -10.000000 0.000000 0.000000 0.000000 1.000000 0.500000 0.500000 255 255 255
3.000000 -11.000000 0.000000 0.000000 0.000000 1.000000 0.500000 0.250000 255 255 255
4.000000 -11.000000 0.000000 0.000000 0.000000 1.000000 0.750000 0.250000 255 255 255
1.000000 -9.000000 0.000000 0.000000 0.000000 1.000000 0.500000 0.500000 255 255 255
0.000000 -9.000000 0.000000 -0.632435 -0.632435 0.447188 0.250000 0.500000 255 255 255
1.000000 -10.000000 0.000000 0.000000 0.000000 1.000000 0.500000 0.250000 255 255 255
2.000000 -3.000000 3.000000 0.707083 -0.707083 0.000000 1.000000 0.250000 128 128 255
2.000000 -3.000000 4.000000 0.707083 -0.707083 0.000000 1.000000 0.500000 128 128 255
1.000000 -4.000000 4.000000 0.707083 -0.707083 0.000000 0.750000 0.500000 128 128 255
1.000000 -4.000000 3.000000 0.707083 -0.707083 0.000000 0.750000 0.250000 128 128 255
9.000000 -6.000000 3.000000 -1.000000 0.000000 0.000000 1.000000 0.250000 128 128 255
9.000000 -6.000000 4.000000 -1.000000 0.000000 0.000000 1.000000 0.500000 128 128 255
9.000000 -5.000000 4.000000 -1.000000 0.000000 0.000000 0.750000 0.500000 128 128 255
9.000000 -5.000000 3.000000 -1.000000 0.000000 0.000000 0.750000 0.250000 128 128 255
0.000000 -6.000000 3.000000 1.000000 0.000000 0.000000 1.000000 0.250000 128 128 255
0.000000 -6.000000 4.000000 1.000000 0.000000 0.000000 1.000000 0.500000 128 128 255
0.000000 -7.000000 4.000000 1.000000 0.000000 0.000000 0.750000 0.500000 128 128 255
0.000000 -7.000000 3.000000 1.000000 0.000000 0.000000 0.750000 0.250000 128 128 255
2.000000 -10.000000 0.000000 0.000000 0.000000 1.000000 0.250000 0.500000 255 255 255
2.000000 -11.000000 0.000000 0.000000 0.000000 1.000000 0.250000 0.250000 255 255 255
2.000000 -6.000000 0.000000 0.000000 0.000000 1.000000 0.750000 0.500000 255 255 255
1.000000 -6.000000 0.000000 0.000000 0.000000 1.000000 0.500000 0.500000 255 255 255
1.000000 -7.000000 0.000000 0.000000 0.000000 1.000000 0.500000 0.250000 255 255 255
2.000000 -7.000000 0.000000 0.000000 0.000000 1.000000 0.750000 0.250000 255 255 255
0.000000 -6.000000 2.000000 1.000000 0.000000 0.000000 1.000000 0.250000 128 128 255
0.000000 -6.000000 3.000000 1.000000 0.000000 0.000000 1.000000 0.500000 128 128 255
0.000000 -7.000000 3.000000 1.000000 0.000000 0.000000 0.750000 0.500000 128 128 255
0.000000 -7.000000 2.000000 1.000000 0.000000 0.000000 0.750000 0.250000 128 128 255
8.000000 -4.000000 0.000000 -0.707083 -0.707083 0.000000 0.250000 0.750000 255 255 255
8.000000 -4.000000 1.000000 -0.707083 -0.707083 0.000000 0.250000 1.000000 255 255 255
7.000000 -3.000000 1.000000 -0.707083 -0.707083 0.000000 0.000000 1.000000 255 255 255
7.000000 -3.000000 0.000000 -0.707083 -0.707083 0.000000 0.000000 0.750000 255 255 255
1.000000 -7.000000 0.000000 0.000000 0.000000 1.000000 0.500000 0.500000 255 255 255
0.000000 -7.000000 0.000000 0.000000 0.000000 1.000000 0.250000 0.500000 255 255 255
0.000000 -8.000000 0.000000 0.000000 0.000000 1.000000 0.250000 0.250000 255 255 255
1.000000 -8.000000 0.000000 0.000000 0.000000 1.000000 0.500000 0.250000 255 255 255
2.000000 -7.000000 0.000000 0.000000 0.000000 1.000000 0.750000 0.500000 255 255 255
2.000000 -8.000000 0.000000 0.000000 0.000000 1.000000 0.750000 0.250000 255 255 255
4.000000 -11.000000 0.000000 0.000000 -1.000000 0.000000 0.750000 0.500000 255 255 255
3.000000 -11.000000 0.000000 0.000000 -1.000000 0.000000 0.500000 0.500000 255 255 255
3.000000 -11.000000 -1.000000 0.000000 -1.000000 0.000000 0.500000 0.250000 255 255 255
4.000000 -11.000000 -1.000000 0.000000 -1.000000 0.000000 0.750000 0.250000 255 255 255
9.000000 -6.000000 0.000000 -1.000000 0.000000 0.000000 0.250000 0.750000 255 255 255
9.000000 -6.000000 1.000000 -1.000000 0.000000 0.000000 0.250000 1.000000 255 255 255
9.000000 -5.000000 1.000000 -1.000000 0.000000 0.000000 0.000000 1.000000 255 255 255
9.000000 -5.000000 0.000000 -1.000000 0.000000 0.000000 0.000000 0.750000 255 255 255
6.000000 -3.000000 1.000000 0.000000 -1.000000 0.000000 1.000000 0.250000 96 80 255
6.000000 -3.000000 2.000000 0.000000 -1.000000 0.000000 1.000000 0.500000 128 128 255
5.000000 -3.000000 2.000000 0.000000 -1.000000 0.000000 0.750000 0.500000 128 128 255
5.000000 -3.000000 1.000000 0.000000 -1.000000 0.000000 0.750000 0.250000 96 80 255
8.000000 -10.000000 0.000000 0.000000 0.000000 1.000000 0.750000 0.250000 255 255 255
8.000000 -9.000000 0.000000 0.000000 0.000000 1.000000 0.750000 0.500000 255 255 255
7.000000 -9.000000 0.000000 0.000000 0.000000 1.000000 0.500000 0.500000 255 255 255
7.000000 -10.000000 0.000000 0.000000 0.000000 1.000000 0.500000 0.250000 255 255 255
2.000000 -10.000000 0.000000 0.000000 0.000000 1.000000 0.750000 0.250000 255 255 255
2.000000 -9.000000 0.000000 0.000000 0.000000 1.000000 0.750000 0.500000 255 255 255
5.000000 -4.000000 0.000000 0.000000 0.000000 1.000000 0.500000 0.250000 255 255 255
5.000000 -3.000000 0.000000 0.000000 0.000000 1.000000 0.500000 0.500000 255 255 255
4.000000 -3.000000 0.000000 0.000000 0.000000 1.000000 0.250000 0.500000 255 255 255
4.000000 -4.000000 0.000000 0.000000 0.000000 1.000000 0.250000 0.250000 255 255 255
7.000000 -4.000000 0.000000 0.000000 0.000000 1.000000 0.500000 0.250000 255 255 255
7.000000 -3.000000 0.000000 0.000000 0.000000 1.000000 0.500000 0.500000 255 255 255
6.000000 -3.000000 0.000000 0.000000 0.000000 1.000000 0.250000 0.500000 255 255 255
6.000000 -4.000000 0.000000 0.000000 0.000000 1.000000 0.250000 0.250000 255 255 255
8.000000 -6.000000 0.000000 0.000000 0.000000 1.000000 0.750000 0.250000 255 255 255
8.000000 -5.000000 0.000000 0.000000 0.000000 1.000000 0.750000 0.500000 255 255 255
7.000000 -5.000000 0.000000 0.000000 0.000000 1.000000 0.500000 0.500000 255 255 255
7.000000 -6.000000 0.000000 0.000000 0.000000 1.000000 0.500000 0.250000 255 255 255
5.000000 -3.000000 2.000000 0.000000 -1.000000 0.000000 1.000000 0.250000 128 128 255
5.000000 -3.000000 3.000000 0.000000 -1.000000 0.000000 1.000000 0.500000 128 128 255
4.000000 -3.000000 3.000000 0.000000 -1.000000 0.000000 0.750000 0.500000 128 128 255
4.000000 -3.000000 2.000000 0.000000 -1.000000 0.000000 0.750000 0.250000 128 128 255
3.000000 -3.000000 3.000000 0.000000 -1.000000 0.000000 1.000000 0.250000 128 128 255
3.000000 -3.000000 4.000000 0.000000 -1.000000 0.000000 1.000000 0.500000 128 128 255
2.000000 -3.000000 4.000000 0.000000 -1.000000 0.000000 0.750000 0.500000 128 128 255
2.000000 -3.000000 3.000000 0.000000 -1.000000 0.000000 0.750000 0.250000 128 128 255
8.000000 -5.000000 0.000000 0.000000 0.000000 1.000000 0.750000 0.250000 255 255 255
8.000000 -4.000000 0.000000 0.000000 0.000000 1.000000 0.750000 0.500000 255 255 255
7.000000 -4.000000 0.000000 0.000000 0.000000 1.000000 0.500000 0.500000 255 255 255
7.000000 -5.000000 0.000000 0.000000 0.000000 1.000000 0.500000 0.250000 255 255 255
8.000000 -10.000000 0.000000 0.632435 -0.632435 0.447188 0.750000 0.500000 255 255 255
7.000000 -11.000000 0.000000 0.382672 -0.923856 0.000000 0.500000 0.500000 255 255 255
7.000000 -11.000000 -1.000000 0.382672 -0.923856 0.000000 0.500000 0.250000 255 255 255
8.000000 -10.000000 -1.000000 0.707083 -0.707083 0.000000 0.750000 0.250000 255 255 255
6.000000 -4.000000 0.000000 0.000000 0.000000 1.000000 0.250000 0.500000 255 255 255
6.000000 -5.000000 0.000000 0.000000 0.000000 1.000000 0.250000 0.250000 255 255 255
8.000000 -4.000000 3.000000 -0.707083 -0.707083 0.000000 1.000000 0.250000 128 128 255
8.000000 -4.000000 4.000000 -0.707083 -0.707083 0.000000 1.000000 0.500000 128 128 255
7.000000 -3.000000 4.000000 -0.707083 -0.707083 0.000000 0.750000 0.500000 128 128 255
7.000000 -3.000000 3.000000 -0.707083 -0.707083 0.000000 0.750000 0.250000 128 128 255
9.000000 -5.000000 3.000000 -0.707083 -0.707083 0.000000 1.000000 0.250000 128 128 255
9.000000 -5.000000 4.000000 -0.707083 -0.707083 0.000000 1.000000 0.500000 128 128 255
8.000000 -4.000000 4.000000 -0.707083 -0.707083 0.000000 0.750000 0.500000 128 128 255
8.000000 -4.000000 3.000000 -0.707083 -0.707083 0.000000 0.750000 0.250000 128 128 255
3.000000 -9.000000 0.000000 0.000000 0.000000 1.000000 0.500000 0.500000 255 255 255
2.000000 -9.000000 0.000000 0.000000 0.000000 1.000000 0.250000 0.500000 255 255 255
2.000000 -10.000000 0.000000 0.000000 0.000000 1.000000 0.250000 0.250000 255 255 255
3.000000 -10.000000 0.000000 0.000000 0.000000 1.000000 0.500000 0.250000 255 255 255
3.000000 -7.000000 0.000000 0.000000 0.000000 1.000000 0.500000 0.500000 255 255 255
2.000000 -7.000000 0.000000 0.000000 0.000000 1.000000 0.250000 0.500000 255 255 255
2.000000 -8.000000 0.000000 0.000000 0.000000 1.000000 0.250000 0.250000 255 255 255
3.000000 -8.000000 0.000000 0.000000 0.000000 1.000000 0.500000 0.250000 255 255 255
4.000000 -9.000000 0.000000 0.000000 0.000000 1.000000 0.750000 0.500000 255 255 255
4.000000 -10.000000 0.000000 0.000000 0.000000 1.000000 0.750000 0.250000 255 255 255
5.000000 -6.000000 0.000000 0.000000 0.000000 1.000000 0.500000 0.250000 255 255 255
5.000000 -5.000000 0.000000 0.000000 0.000000 1.000000 0.500000 0.500000 255 255 255
4.000000 -5.000000 0.000000 0.000000 0.000000 1.000000 0.250000 0.500000 255 255 255
4.000000 -6.000000 0.000000 0.000000 0.000000 1.000000 0.250000 0.250000 255 255 255
1.000000 -4.000000 2.000000 0.707083 -0.707083 0.000000 1.000000 0.250000 128 128 255
1.000000 -4.000000 3.000000 0.707083 -0.707083 0.000000 1.000000 0.500000 128 128 255
0.000000 -5.000000 3.000000 0.707083 -0.707083 0.000000 0.750000 0.500000 128 128 255
0.000000 -5.000000 2.000000 0.707083 -0.707083 0.000000 0.750000 0.250000 128 128 255
2.000000 -3.000000 1.000000 0.382672 -0.923856 0.000000 0.250000 1.000000 255 255 255
1.000000 -4.000000 1.000000 0.707083 -0.707083 0.000000 0.000000 1.000000 255 255 255
1.000000 -4.000000 0.000000 0.707083 -0.707083 0.000000 0.000000 0.750000 255 255 255
2.000000 -3.000000 0.000000 0.382672 -0.923856 0.000000 0.250000 0.750000 255 255 255
0.000000 -7.000000 3.000000 1.000000 0.000000 0.000000 1.000000 0.250000 128 128 255
0.000000 -7.000000 4.000000 1.000000 0.000000 0.000000 1.000000 0.500000 128 128 255
0.000000 -8.000000 4.000000 1.000000 0.000000 0.000000 0.750000 0.500000 128 128 255
0.000000 -8.000000 3.000000 1.000000 0.000000 0.000000 0.750000 0.250000 128 128 255
5.000000 -8.000000 0.000000 0.000000 0.000000 1.000000 0.500000 0.250000 255 255 255
5.000000 -7.000000 0.000000 0.000000 0.000000 1.000000 0.500000 0.500000 255 255 255
4.000000 -7.000000 0.000000 0.000000 0.000000 1.000000 0.250000 0.500000 255 255 255
4.000000 -8.000000 0.000000 0.000000 0.000000 1.000000 0.250000 0.250000 255 255 255
0.000000 -5.000000 2.000000 1.000000 0.000000 0.000000 1.000000 0.250000 128 128 255
0.000000 -5.000000 3.000000 1.000000 0.000000 0.000000 1.000000 0.500000 128 128 255
0.000000 -6.000000 3.000000 1.000000 0.000000 0.000000 0.750000 0.500000 128 128 255
0.000000 -6.000000 2.000000 1.000000 0.000000 0.000000 0.750000 0.250000 128 128 255
3.000000 -3.000000 0.000000 0.000000 0.000000 1.000000 0.500000 0.500000 255 255 255
2.000000 -3.000000 0.000000 0.000000 0.000000 1.000000 0.250000 0.500000 255 255 255
2.000000 -4.000000 0.000000 0.000000 0.000000 1.000000 0.250000 0.250000 255 255 255
3.000000 -4.000000 0.000000 0.000000 0.000000 1.000000 0.500000 0.250000 255 255 255
9.000000 -8.000000 3.000000 -1.000000 0.000000 0.000000 1.000000 0.250000 128 128 255
9.000000 -8.000000 4.000000 -1.000000 0.000000 0.000000 1.000000 0.500000 128 128 255
9.000000 -7.000000 4.000000 -1.000000 0.000000 0.000000 0.750000 0.500000 128 128 255
9.000000 -7.000000 3.000000 -1.000000 0.000000 0.000000 0.750000 0.250000 128 128 255
3.000000 -3.000000 1.000000 0.000000 -1.000000 0.000000 0.500000 1.000000 255 255 255
3.000000 -3.000000 0.000000 0.000000 -1.000000 0.000000 0.500000 0.750000 255 255 255
6.000000 -3.000000 0.000000 0.000000 -1.000000 0.000000 0.250000 0.750000 255 255 255
6.000000 -3.000000 1.000000 0.000000 -1.000000 0.000000 0.250000 1.000000 255 255 255
5.000000 -3.000000 1.000000 0.000000 -1.000000 0.000000 0.000000 1.000000 255 255 255
5.000000 -3.000000 0.000000 0.000000 -1.000000 0.000000 0.000000 0.750000 255 255 255
2.000000 -11.000000 0.000000 0.000000 -1.000000 0.000000 0.250000 0.500000 255 255 255
2.000000 -11.000000 -1.000000 0.000000 -1.000000 0.000000 0.250000 0.250000 255 255 255
7.000000 -3.000000 2.000000 0.000000 -1.000000 0.000000 1.000000 0.250000 128 128 255
7.000000 -3.000000 3.000000 0.000000 -1.000000 0.000000 1.000000 0.500000 128 128 255
6.000000 -3.000000 3.000000 0.000000 -1.000000 0.000000 0.750000 0.500000 128 128 255
6.000000 -3.000000 2.000000 0.000000 -1.000000 0.000000 0.750000 0.250000 128 128 255
4.000000 -7.000000 0.000000 0.000000 0.000000 1.000000 0.750000 0.500000 255 255 255
4.000000 -8.000000 0.000000 0.000000 0.000000 1.000000 0.750000 0.250000 255 255 255
6.000000 -6.000000 0.000000 0.000000 0.000000 1.000000 0.750000 0.250000 255 255 255
6.000000 -5.000000 0.000000 0.000000 0.000000 1.000000 0.750000 0.500000 255 255 255
1.000000 -5.000000 0.000000 0.000000 0.000000 1.000000 0.500000 0.500000 255 255 255
0.000000 -5.000000 0.000000 0.000000 0.000000 1.000000 0.250000 0.500000 255 255 255
0.000000 -6.000000 0.000000 0.000000 0.000000 1.000000 0.250000 0.250000 255 255 255
1.000000 -6.000000 0.000000 0.000000 0.000000 1.000000 0.500000 0.250000 255 255 255
9.000000 -6.000000 1.000000 -1.000000 0.000000 0.000000 1.000000 0.250000 96 80 255
9.000000 -6.000000 2.000000 -1.000000 0.000000 0.000000 1.000000 0.500000 128 128 255
9.000000 -5.000000 2.000000 -1.000000 0.000000 0.000000 0.750000 0.500000 128 128 255
9.000000 -5.000000 1.000000 -1.000000 0.000000 0.000000 0.750000 0.250000 96 80 255
3.000000 -3.000000 2.000000 0.000000 -1.000000 0.000000 1.000000 0.250000 128 128 255
3.000000 -3.000000 3.000000 0.000000 -1.000000 0.000000 1.000000 0.500000 128 128 255
2.000000 -3.000000 3.000000 0.000000 -1.000000 0.000000 0.750000 0.500000 128 128 255
2.000000 -3.000000 2.000000 0.000000 -1.000000 0.000000 0.750000 0.250000 128 128 255
3.000000 -8.000000 0.000000 0.000000 0.000000 1.000000 0.500000 0.500000 255 255 255
2.000000 -8.000000 0.000000 0.000000 0.000000 1.000000 0.250000 0.500000 255 255 255
2.000000 -9.000000 0.000000 0.000000 0.000000 1.000000 0.250000 0.250000 255 255 255
3.000000 -9.000000 0.000000 0.000000 0.000000 1.000000 0.500000 0.250000 255 255 255
8.000000 -4.000000 0.000000 0.000000 0.000000 1.000000 0.750000 0.250000 255 255 255
0.000000 -7.000000 1.000000 1.000000 0.000000 0.000000 0.250000 1.000000 255 255 255
0.000000 -8.000000 1.000000 1.000000 0.000000 0.000000 0.000000 1.000000 255 255 255
0.000000 -8.000000 0.000000 1.000000 0.000000 0.000000 0.000000 0.750000 255 255 255
0.000000 -7.000000 0.000000 1.000000 0.000000 0.000000 0.250000 0.750000 255 255 255
8.000000 -9.000000 0.000000 0.000000 0.000000 1.000000 0.750000 0.250000 255 255 255
8.000000 -8.000000 0.000000 0.000000 0.000000 1.000000 0.750000 0.500000 255 255 255
7.000000 -8.000000 0.000000 0.000000 0.000000 1.000000 0.500000 0.500000 255 255 255
7.000000 -9.000000 0.000000 0.000000 0.000000 1.000000 0.500000 0.250000 255 255 255
8.000000 -7.000000 0.000000 0.000000 0.000000 1.000000 0.750000 0.250000 255 255 255
8.000000 -6.000000 0.000000 0.000000 0.000000 1.000000 0.750000 0.500000 255 255 255
7.000000 -6.000000 0.000000 0.000000 0.000000 1.000000 0.500000 0.500000 255 255 255
7.000000 -7.000000 0.000000 0.000000 0.000000 1.000000 0.500000 0.250000 255 255 255
5.000000 -5.000000 0.000000 0.000000 0.000000 1.000000 0.500000 0.250000 255 255 255
5.000000 -4.000000 0.000000 0.000000 0.000000 1.000000 0.500000 0.500000 255 255 255
4.000000 -4.000000 0.000000 0.000000 0.000000 1.000000 0.250000 0.500000 255 255 255
4.000000 -5.000000 0.000000 0.000000 0.000000 1.000000 0.250000 0.250000 255 255 255
4.000000 -3.000000 0.000000 0.000000 0.000000 1.000000 0.750000 0.500000 255 255 255
4.000000 -4.000000 0.000000 0.000000 0.000000 1.000000 0.750000 0.250000 255 255 255
3.000000 -5.000000 0.000000 0.000000 0.000000 1.000000 0.500000 0.500000 255 255 255
2.000000 -5.000000 0.000000 0.000000 0.000000 1.000000 0.250000 0.500000 255 255 255
2.000000 -6.000000 0.000000 0.000000 0.000000 1.000000 0.250000 0.250000 255 255 255
3.000000 -6.000000 0.000000 0.000000 0.000000 1.000000 0.500000 0.250000 255 255 255
6.000000 -5.000000 0.000000 0.000000 0.000000 1.000000 0.750000 0.250000 255 255 255
6.000000 -4.000000 0.000000 0.000000 0.000000 1.000000 0.750000 0.500000 255 255 255
9.000000 -9.000000 2.000000 -1.000000 0.000000 0.000000 1.000000 0.250000 128 128 255
9.000000 -9.000000 3.000000 -1.000000 0.000000 0.000000 1.000000 0.500000 128 128 255
9.000000 -8.000000 3.000000 -1.000000 0.000000 0.000000 0.750000 0.500000 128 128 255
9.000000 -8.000000 2.000000 -1.000000 0.000000 0.000000 0.750000 0.250000 128 128 255
1.000000 -8.000000 0.000000 0.000000 0.000000 1.000000 0.500000 0.500000 255 255 255
0.000000 -8.000000 0.000000 0.000000 0.000000 1.000000 0.250000 0.500000 255 255 255
0.000000 -9.000000 0.000000 0.000000 0.000000 1.000000 0.250000 0.250000 255 255 255
1.000000 -9.000000 0.000000 0.000000 0.000000 1.000000 0.500000 0.250000 255 255 255
3.000000 -6.000000 0.000000 0.000000 0.000000 1.000000 0.500000 0.500000 255 255 255
2.000000 -6.000000 0.000000 0.000000 0.000000 1.000000 0.250000 0.500000 255 255 255
2.000000 -7.000000 0.000000 0.000000 0.000000 1.000000 0.250000 0.250000 255 255 255
3.000000 -7.000000 0.000000 0.000000 0.000000 1.000000 0.500000 0.250000 255 255 255
9.000000 -8.000000 0.000000 -1.000000 0.000000 0.000000 0.250000 0.750000 255 255 255
9.000000 -8.000000 1.000000 -1.000000 0.000000 0.000000 0.250000 1.000000 255 255 255
9.000000 -7.000000 1.000000 -1.000000 0.000000 0.000000 0.000000 1.000000 255 255 255
9.000000 -7.000000 0.000000 -1.000000 0.000000 0.000000 0.000000 0.750000 255 255 255
2.000000 -11.000000 -1.000000 -0.707083 -0.707083 0.000000 0.750000 0.250000 255 255 255
2.000000 -11.000000 0.000000 -0.707083 -0.707083 0.000000 0.750000 0.500000 255 255 255
1.000000 -10.000000 -1.000000 -0.707083 -0.707083 0.000000 0.500000 0.250000 255 255 255
6.000000 -11.000000 -1.000000 0.000000 -1.000000 0.000000 0.750000 0.250000 255 255 255
6.000000 -11.000000 0.000000 0.000000 -1.000000 0.000000 0.750000 0.500000 255 255 255
5.000000 -11.000000 0.000000 0.000000 -1.000000 0.000000 0.500000 0.500000 255 255 255
5.000000 -11.000000 -1.000000 0.000000 -1.000000 0.000000 0.500000 0.250000 255 255 255
1.000000 -5.000000 0.000000 0.000000 0.000000 1.000000 0.500000 0.250000 255 255 255
1.000000 -4.000000 0.000000 0.000000 0.000000 1.000000 0.500000 0.500000 255 255 255
0.000000 -5.000000 0.000000 0.000000 0.000000 1.000000 0.250000 0.250000 255 255 255
0.000000 -5.000000 1.000000 0.923856 -0.382672 0.000000 0.250000 1.000000 255 255 255
0.000000 -6.000000 1.000000 1.000000 0.000000 0.000000 0.000000 1.000000 255 255 255
0.000000 -6.000000 0.000000 1.000000 0.000000 0.000000 0.000000 0.750000 255 255 255
0.000000 -5.000000 0.000000 0.923856 -0.382672 0.000000 0.250000 0.750000 255 255 255
1.000000 -4.000000 1.000000 0.707083 -0.707083 0.000000 0.500000 1.000000 255 255 255
1.000000 -4.000000 0.000000 0.707083 -0.707083 0.000000 0.500000 0.750000 255 255 255
7.000000 -3.000000 0.000000 0.000000 -1.000000 0.000000 0.500000 0.750000 255 255 255
7.000000 -3.000000 1.000000 0.000000 -1.000000 0.000000 0.500000 1.000000 255 255 255
6.000000 -5.000000 0.000000 0.000000 0.000000 1.000000 0.250000 0.500000 255 255 255
6.000000 -6.000000 0.000000 0.000000 0.000000 1.000000 0.250000 0.250000 255 255 255
9.000000 -9.000000 -1.000000 0.707083 -0.707083 0.000000 0.500000 0.250000 255 255 255
8.000000 -10.000000 0.000000 0.707083 -0.707083 0.000000 0.250000 0.500000 255 255 255
8.000000 -10.000000 -1.000000 0.707083 -0.707083 0.000000 0.250000 0.250000 255 255 255
3.000000 -3.000000 1.000000 0.000000 -1.000000 0.000000 1.000000 0.250000 96 80 255
3.000000 -3.000000 2.000000 0.000000 -1.000000 0.000000 1.000000 0.500000 128 128 255
2.000000 -3.000000 2.000000 0.000000 -1.000000 0.000000 0.750000 0.500000 128 128 255
2.000000 -3.000000 1.000000 0.000000 -1.000000 0.000000 0.750000 0.250000 96 80 255
0.000000 -7.000000 2.000000 1.000000 0.000000 0.000000 1.000000 0.250000 128 128 255
0.000000 -7.000000 3.000000 1.000000 0.000000 0.000000 1.000000 0.500000 128 128 255
0.000000 -8.000000 3.000000 1.000000 0.000000 0.000000 0.750000 0.500000 128 128 255
0.000000 -8.000000 2.000000 1.000000 0.000000 0.000000 0.750000 0.250000 128 128 255
3.000000 -4.000000 0.000000 0.000000 0.000000 1.000000 0.500000 0.500000 255 255 255
2.000000 -4.000000 0.000000 0.000000 0.000000 1.000000 0.250000 0.500000 255 255 255
2.000000 -5.000000 0.000000 0.000000 0.000000 1.000000 0.250000 0.250000 255 255 255
3.000000 -5.000000 0.000000 0.000000 0.000000 1.000000 0.500000 0.250000 255 255 255
5.000000 -11.000000 0.000000 0.000000 0.000000 1.000000 0.500000 0.250000 255 255 255
5.000000 -10.000000 0.000000 0.000000 0.000000 1.000000 0.500000 0.500000 255 255 255
4.000000 -10.000000 0.000000 0.000000 0.000000 1.000000 0.250000 0.500000 255 255 255
4.000000 -11.000000 0.000000 0.000000 0.000000 1.000000 0.250000 0.250000 255 255 255
7.000000 -11.000000 0.000000 0.000000 0.000000 1.000000 0.500000 0.250000 255 255 255
7.000000 -10.000000 0.000000 0.000000 0.000000 1.000000 0.500000 0.500000 255 255 255
6.000000 -10.000000 0.000000 0.000000 0.000000 1.000000 0.250000 0.500000 255 255 255
6.000000 -11.000000 0.000000 0.000000 0.000000 1.000000 0.250000 0.250000 255 255 255
5.000000 -1.000000 0.000000 0.000000 0.000000 1.000000 0.500000 0.250000 255 255 255
5.000000 0.000000 0.000000 0.000000 0.000000 1.000000 0.500000 0.500000 255 255 255
4.000000 0.000000 0.000000 0.000000 0.000000 1.000000 0.250000 0.500000 255 255 255
4.000000 -1.000000 0.000000 0.000000 0.000000 1.000000 0.250000 0.250000 255 255 255
2.000000 -4.000000 0.000000 0.000000 0.000000 1.000000 0.750000 0.500000 255 255 255
2.000000 -5.000000 0.000000 0.000000 0.000000 1.000000 0.750000 0.250000 255 255 255
6.000000 -3.000000 3.000000 0.000000 -1.000000 0.000000 1.000000 0.250000 128 128 255
6.000000 -3.000000 4.000000 0.000000 -1.000000 0.000000 1.000000 0.500000 128 128 255
5.000000 -3.000000 4.000000 0.000000 -1.000000 0.000000 0.750000 0.500000 128 128 255
5.000000 -3.000000 3.000000 0.000000 -1.000000 0.000000 0.750000 0.250000 128 128 255
5.000000 -2.000000 0.000000 0.000000 0.000000 1.000000 0.500000 0.250000 255 255 255
5.000000 -1.000000 0.000000 0.000000 0.000000 1.000000 0.500000 0.500000 255 255 255
4.000000 -1.000000 0.000000 0.000000 0.000000 1.000000 0.250000 0.500000 255 255 255
4.000000 -2.000000 0.000000 0.000000 0.000000 1.000000 0.250000 0.250000 255 255 255
9.000000 -9.000000 1.000000 -1.000000 0.000000 0.000000 1.000000 0.250000 96 80 255
9.000000 -9.000000 2.000000 -1.000000 0.000000 0.000000 1.000000 0.500000 128 128 255
9.000000 -8.000000 2.000000 -1.000000 0.000000 0.000000 0.750000 0.500000 128 128 255
9.000000 -8.000000 1.000000 -1.000000 0.000000 0.000000 0.750000 0.250000 96 80 255
6.000000 -11.000000 0.000000 0.000000 -1.000000 0.000000 0.250000 0.500000 255 255 255
6.000000 -11.000000 -1.000000 0.000000 -1.000000 0.000000 0.250000 0.250000 255 255 255
6.000000 -11.000000 0.000000 0.000000 0.000000 1.000000 0.750000 0.250000 255 255 255
6.000000 -10.000000 0.000000 0.000000 0.000000 1.000000 0.750000 0.500000 255 255 255
0.000000 -6.000000 1.000000 1.000000 0.000000 0.000000 0.500000 1.000000 255 255 255
0.000000 -6.000000 0.000000 1.000000 0.000000 0.000000 0.500000 0.750000 255 255 255
0.000000 -8.000000 0.000000 1.000000 0.000000 0.000000 0.500000 0.750000 255 255 255
0.000000 -8.000000 1.000000 1.000000 0.000000 0.000000 0.500000 1.000000 255 255 255
0.000000 -9.000000 1.000000 1.000000 0.000000 0.000000 0.250000 1.000000 255 255 255
0.000000 -9.000000 0.000000 1.000000 0.000000 0.000000 0.250000 0.750000 255 255 255
4.000000 -3.000000 2.000000 0.000000 -1.000000 0.000000 1.000000 0.250000 128 128 255
4.000000 -3.000000 3.000000 0.000000 -1.000000 0.000000 1.000000 0.500000 128 128 255
3.000000 -3.000000 3.000000 0.000000 -1.000000 0.000000 0.750000 0.500000 128 128 255
3.000000 -3.000000 2.000000 0.000000 -1.000000 0.000000 0.750000 0.250000 128 128 255
9.000000 -7.000000 0.000000 0.000000 0.000000 1.000000 0.500000 0.250000 255 255 255
9.000000 -6.000000 0.000000 0.000000 0.000000 1.000000 0.500000 0.500000 255 255 255
8.000000 -6.000000 0.000000 0.000000 0.000000 1.000000 0.250000 0.500000 255 255 255
8.000000 -7.000000 0.000000 0.000000 0.000000 1.000000 0.250000 0.250000 255 255 255
9.000000 -6.000000 0.000000 0.000000 0.000000 1.000000 0.500000 0.250000 255 255 255
9.000000 -5.000000 0.000000 0.000000 0.000000 1.000000 0.500000 0.500000 255 255 255
8.000000 -5.000000 0.000000 0.000000 0.000000 1.000000 0.250000 0.500000 255 255 255
8.000000 -6.000000 0.000000 0.000000 0.000000 1.000000 0.250000 0.250000 255 255 255
0.000000 -9.000000 -1.000000 -0.707083 -0.707083 0.000000 0.250000 0.250000 255 255 255
9.000000 -9.000000 0.000000 0.000000 0.000000 1.000000 0.500000 0.250000 255 255 255
9.000000 -8.000000 0.000000 0.000000 0.000000 1.000000 0.500000 0.500000 255 255 255
8.000000 -8.000000 0.000000 0.000000 0.000000 1.000000 0.250000 0.500000 255 255 255
8.000000 -9.000000 0.000000 0.000000 0.000000 1.000000 0.250000 0.250000 255 255 255
4.000000 -3.000000 0.000000 0.000000 -1.000000 0.000000 0.250000 0.750000 255 255 255
4.000000 -3.000000 1.000000 0.000000 -1.000000 0.000000 0.250000 1.000000 255 255 255
3.000000 -3.000000 1.000000 0.000000 -1.000000 0.000000 0.000000 1.000000 255 255 255
3.000000 -3.000000 0.000000 0.000000 -1.000000 0.000000 0.000000 0.750000 255 255 255
1.000000 -4.000000 3.000000 0.707083 -0.707083 0.000000 1.000000 0.250000 128 128 255
1.000000 -4.000000 4.000000 0.707083 -0.707083 0.000000 1.000000 0.500000 128 128 255
0.000000 -5.000000 4.000000 0.707083 -0.707083 0.000000 0.750000 0.500000 128 128 255
0.000000 -5.000000 3.000000 0.707083 -0.707083 0.000000 0.750000 0.250000 128 128 255
6.000000 -8.000000 0.000000 0.000000 0.000000 1.000000 0.250000 0.500000 255 255 255
6.000000 -9.000000 0.000000 0.000000 0.000000 1.000000 0.250000 0.250000 255 255 255
1.000000 -4.000000 1.000000 0.707083 -0.707083 0.000000 1.000000 0.250000 96 80 255
1.000000 -4.000000 2.000000 0.707083 -0.707083 0.000000 1.000000 0.500000 128 128 255
0.000000 -5.000000 2.000000 0.707083 -0.707083 0.000000 0.750000 0.500000 128 128 255
0.000000 -5.000000 1.000000 0.707083 -0.707083 0.000000 0.750000 0.250000 96 80 255
8.000000 -4.000000 1.000000 -0.707083 -0.707083 0.000000 1.000000 0.250000 96 80 255
8.000000 -4.000000 2.000000 -0.707083 -0.707083 0.000000 1.000000 0.500000 128 128 255
7.000000 -3.000000 2.000000 -0.707083 -0.707083 0.000000 0.750000 0.500000 128 128 255
7.000000 -3.000000 1.000000 -0.707083 -0.707083 0.000000 0.750000 0.250000 96 80 255
6.000000 -8.000000 0.000000 0.000000 0.000000 1.000000 0.750000 0.250000 255 255 255
6.000000 -7.000000 0.000000 0.000000 0.000000 1.000000 0.750000 0.500000 255 255 255
4.000000 -11.000000 0.000000 0.000000 -1.000000 0.000000 0.250000 0.500000 255 255 255
4.000000 -11.000000 -1.000000 0.000000 -1.000000 0.000000 0.250000 0.250000 255 255 255
9.000000 -8.000000 0.000000 0.000000 0.000000 1.000000 0.500000 0.250000 255 255 255
9.000000 -7.000000 0.000000 0.000000 0.000000 1.000000 0.500000 0.500000 255 255 255
8.000000 -7.000000 0.000000 0.000000 0.000000 1.000000 0.250000 0.500000 255 255 255
8.000000 -8.000000 0.000000 0.000000 0.000000 1.000000 0.250000 0.250000 255 255 255
0.000000 -6.000000 0.000000 0.000000 0.000000 1.000000 0.250000 0.500000 255 255 255
0.000000 -7.000000 0.000000 0.000000 0.000000 1.000000 0.250000 0.250000 255 255 255
9.000000 -5.000000 1.000000 -0.707083 -0.707083 0.000000 1.000000 0.250000 96 80 255
9.000000 -5.000000 2.000000 -0.707083 -0.707083 0.000000 1.000000 0.500000 128 128 255
8.000000 -4.000000 2.000000 -0.707083 -0.707083 0.000000 0.750000 0.500000 128 128 255
8.000000 -4.000000 1.000000 -0.707083 -0.707083 0.000000 0.750000 0.250000 96 80 255
0.000000 -6.000000 1.000000 1.000000 0.000000 0.000000 1.000000 0.250000 96 80 255
0.000000 -6.000000 2.000000 1.000000 0.000000 0.000000 1.000000 0.500000 128 128 255
0.000000 -7.000000 2.000000 1.000000 0.000000 0.000000 0.750000 0.500000 128 128 255
0.000000 -7.000000 1.000000 1.000000 0.000000 0.000000 0.750000 0.250000 96 80 255
6.000000 -3.000000 2.000000 0.000000 -1.000000 0.000000 1.000000 0.250000 128 128 255
6.000000 -3.000000 3.000000 0.000000 -1.000000 0.000000 1.000000 0.500000 128 128 255
5.000000 -3.000000 3.000000 0.000000 -1.000000 0.000000 0.750000 0.500000 128 128 255
5.000000 -3.000000 2.000000 0.000000 -1.000000 0.000000 0.750000 0.250000 128 128 255
4.000000 -5.000000 0.000000 0.000000 0.000000 1.000000 0.750000 0.500000 255 255 255
4.000000 -6.000000 0.000000 0.000000 0.000000 1.000000 0.750000 0.250000 255 255 255
8.000000 -4.000000 2.000000 -0.707083 -0.707083 0.000000 1.000000 0.250000 128 128 255
8.000000 -4.000000 3.000000 -0.707083 -0.707083 0.000000 1.000000 0.500000 128 128 255
7.000000 -3.000000 3.000000 -0.707083 -0.707083 0.000000 0.750000 0.500000 128 128 255
7.000000 -3.000000 2.000000 -0.707083 -0.707083 0.000000 0.750000 0.250000 128 128 255
0.000000 -5.000000 1.000000 1.000000 0.000000 0.000000 1.000000 0.250000 96 80 255
0.000000 -5.000000 2.000000 1.000000 0.000000 0.000000 1.000000 0.500000 128 128 255
0.000000 -6.000000 2.000000 1.000000 0.000000 0.000000 0.750000 0.500000 128 128 255
0.000000 -6.000000 1.000000 1.000000 0.000000 0.000000 0.750000 0.250000 96 80 255
9.000000 -7.000000 1.000000 -1.000000 0.000000 0.000000 1.000000 0.250000 96 80 255
9.000000 -7.000000 2.000000 -1.000000 0.000000 0.000000 1.000000 0.500000 128 128 255
9.000000 -6.000000 2.000000 -1.000000 0.000000 0.000000 0.750000 0.500000 128 128 255
9.000000 -6.000000 1.000000 -1.000000 0.000000 0.000000 0.750000 0.250000 96 80 255
9.000000 -8.000000 1.000000 -1.000000 0.000000 0.000000 1.000000 0.250000 96 80 255
9.000000 -8.000000 2.000000 -1.000000 0.000000 0.000000 1.000000 0.500000 128 128 255
9.000000 -7.000000 2.000000 -1.000000 0.000000 0.000000 0.750000 0.500000 128 128 255
9.000000 -7.000000 1.000000 -1.000000 0.000000 0.000000 0.750000 0.250000 96 80 255
5.000000 -9.000000 0.000000 0.000000 0.000000 1.000000 0.500000 0.250000 255 255 255
5.000000 -8.000000 0.000000 0.000000 0.000000 1.000000 0.500000 0.500000 255 255 255
4.000000 -8.000000 0.000000 0.000000 0.000000 1.000000 0.250000 0.500000 255 255 255
4.000000 -9.000000 0.000000 0.000000 0.000000 1.000000 0.250000 0.250000 255 255 255
6.000000 -9.000000 0.000000 0.000000 0.000000 1.000000 0.750000 0.250000 255 255 255
6.000000 -8.000000 0.000000 0.000000 0.000000 1.000000 0.750000 0.500000 255 255 255
9.000000 -5.000000 2.000000 -0.707083 -0.707083 0.000000 1.000000 0.250000 128 128 255
9.000000 -5.000000 3.000000 -0.707083 -0.707083 0.000000 1.000000 0.500000 128 128 255
8.000000 -4.000000 3.000000 -0.707083 -0.707083 0.000000 0.750000 0.500000 128 128 255
8.000000 -4.000000 2.000000 -0.707083 -0.707083 0.000000 0.750000 0.250000 128 128 255
5.000000 -10.000000 0.000000 0.000000 0.000000 1.000000 0.500000 0.250000 255 255 255
5.000000 -9.000000 0.000000 0.000000 0.000000 1.000000 0.500000 0.500000 255 255 255
4.000000 -9.000000 0.000000 0.000000 0.000000 1.000000 0.250000 0.500000 255 255 255
4.000000 -10.000000 0.000000 0.000000 0.000000 1.000000 0.250000 0.250000 255 255 255
2.000000 -3.000000 1.000000 0.707083 -0.707083 0.000000 1.000000 0.250000 96 80 255
2.000000 -3.000000 2.000000 0.707083 -0.707083 0.000000 1.000000 0.500000 128 128 255
1.000000 -4.000000 2.000000 0.707083 -0.707083 0.000000 0.750000 0.500000 128 128 255
1.000000 -4.000000 1.000000 0.707083 -0.707083 0.000000 0.750000 0.250000 96 80 255
7.000000 -3.000000 1.000000 0.000000 -1.000000 0.000000 1.000000 0.250000 96 80 255
7.000000 -3.000000 2.000000 0.000000 -1.000000 0.000000 1.000000 0.500000 128 128 255
6.000000 -3.000000 2.000000 0.000000 -1.000000 0.000000 0.750000 0.500000 128 128 255
6.000000 -3.000000 1.000000 0.000000 -1.000000 0.000000 0.750000 0.250000 96 80 255
6.000000 -10.000000 0.000000 0.000000 0.000000 1.000000 0.750000 0.250000 255 255 255
6.000000 -9.000000 0.000000 0.000000 0.000000 1.000000 0.750000 0.500000 255 255 255
2.000000 -3.000000 2.000000 0.707083 -0.707083 0.000000 1.000000 0.250000 128 128 255
2.000000 -3.000000 3.000000 0.707083 -0.707083 0.000000 1.000000 0.500000 128 128 255
1.000000 -4.000000 3.000000 0.707083 -0.707083 0.000000 0.750000 0.500000 128 128 255
1.000000 -4.000000 2.000000 0.707083 -0.707083 0.000000 0.750000 0.250000 128 128 255
9.000000 -7.000000 3.000000 -1.000000 0.000000 0.000000 1.000000 0.250000 128 128 255
9.000000 -7.000000 4.000000 -1.000000 0.000000 0.000000 1.000000 0.500000 128 128 255
9.000000 -6.000000 4.000000 -1.000000 0.000000 0.000000 0.750000 0.500000 128 128 255
9.000000 -6.000000 3.000000 -1.000000 0.000000 0.000000 0.750000 0.250000 128 128 255
2.000000 -8.000000 0.000000 0.000000 0.000000 1.000000 0.750000 0.500000 255 255 255
2.000000 -9.000000 0.000000 0.000000 0.000000 1.000000 0.750000 0.250000 255 255 255
2.000000 -5.000000 0.000000 0.000000 0.000000 1.000000 0.750000 0.500000 255 255 255
2.000000 -6.000000 0.000000 0.000000 0.000000 1.000000 0.750000 0.250000 255 255 255
9.000000 -5.000000 0.000000 -0.707083 -0.707083 0.000000 0.500000 0.750000 255 255 255
9.000000 -5.000000 1.000000 -0.707083 -0.707083 0.000000 0.500000 1.000000 255 255 255
5.000000 -7.000000 0.000000 0.000000 0.000000 1.000000 0.500000 0.250000 255 255 255
5.000000 -6.000000 0.000000 0.000000 0.000000 1.000000 0.500000 0.500000 255 255 255
4.000000 -6.000000 0.000000 0.000000 0.000000 1.000000 0.250000 0.500000 255 255 255
4.000000 -7.000000 0.000000 0.000000 0.000000 1.000000 0.250000 0.250000 255 255 255
6.000000 -7.000000 0.000000 0.000000 0.000000 1.000000 0.750000 0.250000 255 255 255
6.000000 -6.000000 0.000000 0.000000 0.000000 1.000000 0.750000 0.500000 255 255 255
9.000000 -8.000000 2.000000 -1.000000 0.000000 0.000000 1.000000 0.250000 128 128 255
9.000000 -8.000000 3.000000 -1.000000 0.000000 0.000000 1.000000 0.500000 128 128 255
9.000000 -7.000000 3.000000 -1.000000 0.000000 0.000000 0.750000 0.500000 128 128 255
9.000000 -7.000000 2.000000 -1.000000 0.000000 0.000000 0.750000 0.250000 128 128 255
4.000000 -3.000000 1.000000 0.000000 -1.000000 0.000000 1.000000 0.250000 96 80 255
4.000000 -3.000000 2.000000 0.000000 -1.000000 0.000000 1.000000 0.500000 128 128 255
3.000000 -3.000000 2.000000 0.000000 -1.000000 0.000000 0.750000 0.500000 128 128 255
3.000000 -3.000000 1.000000 0.000000 -1.000000 0.000000 0.750000 0.250000 96 80 255
7.000000 -8.000000 0.000000 0.000000 0.000000 1.000000 0.500000 0.250000 255 255 255
7.000000 -7.000000 0.000000 0.000000 0.000000 1.000000 0.500000 0.500000 255 255 255
6.000000 -7.000000 0.000000 0.000000 0.000000 1.000000 0.250000 0.500000 255 255 255
6.000000 -8.000000 0.000000 0.000000 0.000000 1.000000 0.250000 0.250000 255 255 255
0.000000 -8.000000 2.000000 1.000000 0.000000 0.000000 1.000000 0.250000 128 128 255
0.000000 -8.000000 3.000000 1.000000 0.000000 0.000000 1.000000 0.500000 128 128 255
0.000000 -9.000000 3.000000 1.000000 0.000000 0.000000 0.750000 0.500000 128 128 255
0.000000 -9.000000 2.000000 1.000000 0.000000 0.000000 0.750000 0.250000 128 128 255
8.000000 -8.000000 0.000000 0.000000 0.000000 1.000000 0.750000 0.250000 255 255 255
8.000000 -7.000000 0.000000 0.000000 0.000000 1.000000 0.750000 0.500000 255 255 255
6.000000 -6.000000 0.000000 0.000000 0.000000 1.000000 0.250000 0.500000 255 255 255
6.000000 -7.000000 0.000000 0.000000 0.000000 1.000000 0.250000 0.250000 255 255 255
9.000000 -9.000000 0.000000 -1.000000 0.000000 0.000000 0.500000 0.750000 255 255 255
9.000000 -9.000000 1.000000 -1.000000 0.000000 0.000000 0.500000 1.000000 255 255 255
6.000000 -9.000000 0.000000 0.000000 0.000000 1.000000 0.250000 0.500000 255 255 255
6.000000 -10.000000 0.000000 0.000000 0.000000 1.000000 0.250000 0.250000 255 255 255
7.000000 -3.000000 3.000000 0.000000 -1.000000 0.000000 1.000000 0.250000 128 128 255
7.000000 -3.000000 4.000000 0.000000 -1.000000 0.000000 1.000000 0.500000 128 128 255
6.000000 -3.000000 4.000000 0.000000 -1.000000 0.000000 0.750000 0.500000 128 128 255
6.000000 -3.000000 3.000000 0.000000 -1.000000 0.000000 0.750000 0.250000 128 128 255
0.000000 -5.000000 3.000000 1.000000 0.000000 0.000000 1.000000 0.250000 128 128 255
0.000000 -5.000000 4.000000 1.000000 0.000000 0.000000 1.000000 0.500000 128 128 255
0.000000 -6.000000 4.000000 1.000000 0.000000 0.000000 0.750000 0.500000 128 128 255
0.000000 -6.000000 3.000000 1.000000 0.000000 0.000000 0.750000 0.250000 128 128 255
9.000000 -7.000000 0.000000 -1.000000 0.000000 0.000000 0.500000 0.750000 255 255 255
9.000000 -7.000000 1.000000 -1.000000 0.000000 0.000000 0.500000 1.000000 255 255 255
6.000000 -4.000000 0.000000 0.000000 0.000000 1.000000 0.750000 0.250000 255 255 255
6.000000 -3.000000 0.000000 0.000000 0.000000 1.000000 0.750000 0.500000 255 255 255
9.000000 -9.000000 3.000000 -1.000000 0.000000 0.000000 1.000000 0.250000 128 128 255
9.000000 -9.000000 4.000000 -1.000000 0.000000 0.000000 1.000000 0.500000 128 128 255
9.000000 -8.000000 4.000000 -1.000000 0.000000 0.000000 0.750000 0.500000 128 128 255
9.000000 -8.000000 3.000000 -1.000000 0.000000 0.000000 0.750000 0.250000 128 128 255
0.000000 -8.000000 3.000000 1.000000 0.000000 0.000000 1.000000 0.250000 128 128 255
0.000000 -8.000000 4.000000 1.000000 0.000000 0.000000 1.000000 0.500000 128 128 255
0.000000 -9.000000 4.000000 1.000000 0.000000 0.000000 0.750000 0.500000 128 128 255
0.000000 -9.000000 3.000000 1.000000 0.000000 0.000000 0.750000 0.250000 128 128 255
9.000000 -7.000000 2.000000 -1.000000 0.000000 0.000000 1.000000 0.250000 128 128 255
9.000000 -7.000000 3.000000 -1.000000 0.000000 0.000000 1.000000 0.500000 128 128 255
9.000000 -6.000000 3.000000 -1.000000 0.000000 0.000000 0.750000 0.500000 128 128 255
9.000000 -6.000000 2.000000 -1.000000 0.000000 0.000000 0.750000 0.250000 128 128 255
4.000000 -8.000000 0.000000 0.000000 0.000000 1.000000 0.750000 0.500000 255 255 255
4.000000 -9.000000 0.000000 0.000000 0.000000 1.000000 0.750000 0.250000 255 255 255
9.000000 -6.000000 2.000000 -1.000000 0.000000 0.000000 1.000000 0.250000 128 128 255
9.000000 -6.000000 3.000000 -1.000000 0.000000 0.000000 1.000000 0.500000 128 128 255
9.000000 -5.000000 3.000000 -1.000000 0.000000 0.000000 0.750000 0.500000 128 128 255
9.000000 -5.000000 2.000000 -1.000000 0.000000 0.000000 0.750000 0.250000 128 128 255
5.000000 -3.000000 3.000000 0.000000 -1.000000 0.000000 1.000000 0.250000 128 128 255
5.000000 -3.000000 4.000000 0.000000 -1.000000 0.000000 1.000000 0.500000 128 128 255
4.000000 -3.000000 4.000000 0.000000 -1.000000 0.000000 0.750000 0.500000 128 128 255
4.000000 -3.000000 3.000000 0.000000 -1.000000 0.000000 0.750000 0.250000 128 128 255
4.000000 -3.000000 3.000000 0.000000 -1.000000 0.000000 1.000000 0.250000 128 128 255
4.000000 -3.000000 4.000000 0.000000 -1.000000 0.000000 1.000000 0.500000 128 128 255
3.000000 -3.000000 4.000000 0.000000 -1.000000 0.000000 0.750000 0.500000 128 128 255
3.000000 -3.000000 3.000000 0.000000 -1.000000 0.000000 0.750000 0.250000 128 128 255
4.000000 -4.000000 0.000000 0.000000 0.000000 1.000000 0.750000 0.500000 255 255 255
4.000000 -5.000000 0.000000 0.000000 0.000000 1.000000 0.750000 0.250000 255 255 255
4.000000 -6.000000 0.000000 0.000000 0.000000 1.000000 0.750000 0.500000 255 255 255
4.000000 -7.000000 0.000000 0.000000 0.000000 1.000000 0.750000 0.250000 255 255 255
0.000000 -7.000000 1.000000 1.000000 0.000000 0.000000 1.000000 0.250000 96 80 255
0.000000 -7.000000 2.000000 1.000000 0.000000 0.000000 1.000000 0.500000 128 128 255
0.000000 -8.000000 2.000000 1.000000 0.000000 0.000000 0.750000 0.500000 128 128 255
0.000000 -8.000000 1.000000 1.000000 0.000000 0.000000 0.750000 0.250000 96 80 255
3 0 1 2
3 3 4 5
4 6 7 8 9
3 10 11 12
3 13 14 15
4 16 17 18 19
4 20 21 22 23
3 24 25 26
4 27 28 29 30
4 31 32 33 34
4 35 36 37 38
4 21 39 40 22
4 41 42 43 44
4 45 46 47 48
4 49 50 51 52
4 53 54 55 56
4 57 53 56 58
4 59 60 61 62
4 63 64 65 66
4 67 68 69 70
4 71 72 73 74
4 75 76 24 26
4 77 78 79 80
4 81 82 83 84
4 85 86 87 88
4 89 90 91 92
4 93 94 95 96
4 97 98 99 100
4 101 102 103 104
4 100 99 105 106
4 107 108 109 110
4 111 112 113 114
4 115 116 117 118
4 119 120 121 122
4 123 115 118 124
4 125 126 127 128
4 129 130 131 132
4 133 134 135 136
4 137 138 139 140
4 141 142 143 144
4 145 146 147 148
4 149 150 151 152
4 153 154 155 156
4 157 133 136 158
4 159 160 161 162
4 60 163 164 61
4 165 166 167 168
4 169 119 122 170
4 171 172 126 125
4 173 174 175 176
4 177 178 179 180
4 181 182 183 184
4 185 186 187 188
3 82 81 189
4 190 191 192 193
4 194 195 196 197
4 198 199 200 201
4 202 203 204 205
4 206 149 152 207
4 208 209 210 211
4 212 213 203 202
4 214 215 216 217
4 218 219 220 221
4 222 223 224 225
4 226 227 228 229
4 230 231 14 232
4 233 234 235 236
3 237 238 239
4 240 241 242 243
4 244 240 243 245
4 246 247 160 159
4 88 87 248 249
4 250 3 251 252
4 253 254 255 256
4 257 258 259 260
4 261 262 263 264
4 265 266 267 268
4 269 270 271 272
4 273 274 275 276
4 277 238 237 278
4 279 280 281 282
4 283 284 285 286
4 287 288 289 290
4 102 291 292 103
4 293 294 266 265
3 101 270 269
4 295 190 193 296
4 297 298 299 300
4 301 302 303 304
4 305 306 307 308
4 309 310 311 312
4 232 14 25 313
4 314 315 316 317
4 318 319 320 321
4 322 323 324 325
4 197 196 326 327
4 328 329 330 331
4 332 333 334 335
4 336 337 142 141
4 236 235 338 339
4 340 341 342 343
4 42 344 345 43
4 346 347 348 349
4 350 351 352 353
4 354 355 356 357
4 358 208 211 359
4 360 361 362 363
4 364 365 366 367
4 368 369 370 371
4 372 373 374 375
4 376 377 378 379
4 380 381 377 376
4 382 383 384 385
4 386 387 388 389
4 390 391 392 393
4 394 395 396 397
4 398 399 387 386
4 400 401 402 403
4 404 405 406 407
4 408 218 221 409
4 410 173 176 411
4 412 413 50 49
4 414 415 416 417
4 418 419 415 414
4 420 421 422 423
4 424 425 426 427
4 428 429 430 431
4 432 433 434 435
4 436 437 429 428
4 201 200 438 439
4 440 441 227 226
4 74 73 442 443
4 444 445 446 447
4 448 449 450 451
4 452 453 64 63
4 454 455 78 77
4 456 457 458 459
4 460 461 462 463
4 464 465 466 467
4 468 185 188 469
4 470 471 472 473
4 474 475 476 477
4 478 479 480 481
4 482 261 264 483
4 484 222 225 485
4 486 487 488 489
